{"glyphs":{"0":{"ha":837,"x_min":75,"x_max":762,"o":"m 413 -25 q 168 119 260 -25 q 75 503 75 264 q 169 886 75 743 q 418 1029 262 1029 q 668 886 574 1029 q 762 505 762 744 q 668 117 762 259 q 413 -25 574 -25 m 415 75 q 568 183 517 75 q 619 507 619 291 q 569 823 619 718 q 418 928 519 928 q 268 822 318 928 q 218 503 218 715 q 267 182 218 289 q 415 75 316 75 z "},"1":{"ha":837,"x_min":125,"x_max":795,"o":"m 125 0 l 125 100 l 393 100 l 393 878 l 125 789 l 125 895 l 527 1029 l 527 100 l 795 100 l 795 0 l 125 0 z "},"2":{"ha":837,"x_min":114,"x_max":688,"o":"m 114 0 l 114 117 q 361 440 197 277 l 421 500 q 546 751 546 625 q 498 880 546 831 q 370 928 450 928 q 139 858 273 928 l 139 976 q 384 1029 264 1029 q 605 954 521 1029 q 688 756 688 879 q 519 451 688 610 l 462 397 q 273 117 304 251 l 683 117 l 683 0 l 114 0 z "},"3":{"ha":837,"x_min":159,"x_max":713,"o":"m 159 5 l 159 123 q 370 75 295 75 q 515 132 459 75 q 570 278 570 188 q 507 437 570 384 q 316 490 443 490 l 251 490 l 251 586 l 290 586 q 486 632 425 586 q 548 778 548 677 q 505 888 548 847 q 389 928 463 928 q 173 873 287 928 l 173 991 q 397 1029 283 1029 q 606 968 530 1029 q 682 800 682 907 q 637 653 682 716 q 501 548 591 590 q 660 444 607 511 q 713 278 713 376 q 618 56 713 138 q 363 -25 524 -25 q 159 5 267 -25 z "},"4":{"ha":837,"x_min":75,"x_max":753,"o":"m 494 0 l 494 268 l 75 268 l 75 380 l 494 1004 l 619 1004 l 619 368 l 753 368 l 753 268 l 619 268 l 619 0 l 494 0 m 188 368 l 494 368 l 494 824 l 188 368 z "},"5":{"ha":837,"x_min":183,"x_max":699,"o":"m 183 5 l 183 120 q 367 75 298 75 q 503 140 450 75 q 556 304 556 204 q 483 472 556 416 q 262 528 409 528 q 202 525 237 528 l 202 1004 l 673 1004 l 673 887 l 315 887 l 315 627 q 595 537 492 627 q 699 294 699 448 q 605 65 699 156 q 370 -25 511 -25 q 183 5 291 -25 z "},"6":{"ha":837,"x_min":110,"x_max":762,"o":"m 707 991 l 707 877 q 515 929 587 929 q 319 821 389 929 q 250 513 250 712 q 352 610 294 578 q 479 642 409 642 q 680 551 597 642 q 762 328 762 460 q 672 74 762 174 q 445 -25 583 -25 q 196 105 283 -25 q 110 482 110 236 q 217 880 110 731 q 503 1029 324 1029 q 707 991 585 1029 m 457 75 q 584 137 536 75 q 631 302 631 199 q 581 478 631 411 q 448 546 530 546 q 316 487 366 546 q 267 330 267 428 q 319 145 267 215 q 457 75 372 75 z "},"7":{"ha":837,"x_min":136,"x_max":741,"o":"m 191 0 q 239 194 203 109 q 405 509 275 279 l 614 878 l 136 878 l 136 1004 l 741 1004 l 741 891 l 709 837 q 457 355 547 564 q 350 0 368 146 l 191 0 z "},"8":{"ha":837,"x_min":109,"x_max":747,"o":"m 296 547 q 194 654 228 597 q 159 777 159 712 q 238 961 159 892 q 448 1029 316 1029 q 639 972 571 1029 q 707 812 707 915 q 663 671 707 736 q 531 553 618 606 q 700 416 652 479 q 747 264 747 353 q 655 57 747 138 q 420 -25 563 -25 q 195 52 281 -25 q 109 252 109 129 q 155 416 109 342 q 296 547 202 490 m 368 492 q 272 385 304 440 q 240 270 240 329 q 294 129 240 183 q 433 75 347 75 q 561 121 509 75 q 613 236 613 168 q 457 439 613 347 l 368 492 m 456 598 q 554 688 521 640 q 587 791 587 736 q 545 890 587 852 q 435 928 503 928 q 326 892 367 928 q 284 796 284 857 q 419 620 284 701 l 456 598 z "},"9":{"ha":837,"x_min":101,"x_max":752,"o":"m 156 10 l 156 125 q 350 75 282 75 q 544 184 475 75 q 612 491 612 294 q 382 362 524 362 q 183 453 264 362 q 101 675 101 545 q 190 929 101 830 q 417 1029 279 1029 q 666 899 580 1029 q 752 522 752 768 q 645 124 752 273 q 361 -25 538 -25 q 156 10 282 -25 m 405 928 q 278 866 326 928 q 231 701 231 804 q 281 526 231 593 q 414 458 332 458 q 546 517 496 458 q 595 675 595 576 q 543 859 595 789 q 405 928 490 928 z "}," ":{"ha":837,"x_min":0,"x_max":0,"o":""},"!":{"ha":837,"x_min":334,"x_max":502,"o":"m 368 284 l 351 803 l 351 1004 l 485 1004 l 485 803 l 468 284 l 368 284 m 334 0 l 334 151 l 502 151 l 502 0 l 334 0 z "},"\"":{"ha":837,"x_min":168,"x_max":669,"o":"m 201 703 l 168 1071 l 335 1071 l 301 703 l 201 703 m 536 703 l 502 1071 l 669 1071 l 636 703 l 536 703 z "},"#":{"ha":837,"x_min":35,"x_max":809,"o":"m 115 0 l 191 305 l 35 305 l 55 406 l 216 406 l 265 604 l 95 604 l 115 705 l 290 705 l 365 1004 l 468 1004 l 394 705 l 551 705 l 625 1004 l 729 1004 l 654 705 l 809 705 l 789 604 l 628 604 l 579 406 l 749 406 l 730 305 l 554 305 l 480 0 l 376 0 l 450 305 l 293 305 l 219 0 l 115 0 m 319 406 l 475 406 l 525 604 l 369 604 l 319 406 z "},"$":{"ha":837,"x_min":146,"x_max":718,"o":"m 395 -83 l 395 0 q 146 54 286 0 l 146 168 q 395 98 291 98 l 395 463 l 346 495 q 211 621 256 555 q 166 756 166 686 q 232 926 166 857 q 404 1004 298 995 l 404 1088 l 487 1088 l 487 1004 q 692 960 587 998 l 692 850 q 487 910 594 899 l 487 551 l 532 524 q 672 405 625 469 q 718 266 718 340 q 653 87 718 159 q 479 0 588 15 l 479 -83 l 395 -83 m 479 100 q 567 151 537 113 q 596 250 596 188 q 509 391 596 332 l 479 413 l 479 100 m 404 604 l 404 903 q 321 857 353 897 q 290 760 290 817 q 375 625 290 687 l 404 604 z "},"%":{"ha":837,"x_min":0,"x_max":837,"o":"m 0 -25 l 734 1029 l 837 1029 l 102 -25 l 0 -25 m 203 544 q 58 609 115 544 q 1 774 1 674 q 58 939 1 875 q 205 1004 116 1004 q 353 939 295 1004 q 411 774 411 875 q 353 608 411 672 q 203 544 295 544 m 204 611 q 281 656 252 611 q 311 774 311 701 q 281 892 311 847 q 205 937 252 937 q 130 892 159 937 q 101 774 101 847 q 130 656 101 702 q 204 611 159 611 m 629 0 q 484 65 541 0 q 427 231 427 130 q 484 396 427 331 q 631 460 542 460 q 779 396 721 460 q 837 231 837 331 q 779 64 837 128 q 629 0 721 0 m 630 67 q 707 112 678 67 q 736 231 736 157 q 707 348 736 303 q 631 393 678 393 q 556 348 585 393 q 527 231 527 303 q 556 113 527 158 q 630 67 585 67 z "},"&":{"ha":837,"x_min":16,"x_max":837,"o":"m 652 0 l 602 60 q 343 -25 492 -25 q 109 65 201 -25 q 16 292 16 155 q 76 469 16 393 q 254 596 135 545 q 194 809 194 728 q 255 968 194 907 q 415 1029 317 1029 q 568 975 509 1029 q 627 835 627 921 q 573 691 627 759 q 414 563 520 623 q 641 231 492 411 q 688 340 672 277 q 704 483 704 404 l 703 534 l 837 534 q 796 313 829 409 q 703 151 762 217 q 837 0 766 75 l 652 0 m 543 138 q 294 513 383 332 q 155 319 155 444 q 217 146 155 218 q 367 75 279 75 q 543 138 452 75 m 374 652 q 471 726 439 682 q 503 825 503 769 q 481 903 503 877 q 417 928 460 928 q 353 898 380 928 q 327 823 327 867 q 374 652 327 760 z "},"'":{"ha":837,"x_min":318,"x_max":519,"o":"m 368 652 l 318 1071 l 519 1071 l 469 652 l 368 652 z "},"(":{"ha":837,"x_min":234,"x_max":736,"o":"m 736 -201 q 375 2 515 -176 q 234 435 234 180 q 375 868 234 690 q 736 1071 515 1046 l 736 979 q 463 802 559 943 q 368 435 368 661 q 463 68 368 209 q 736 -109 558 -73 l 736 -201 z "},")":{"ha":837,"x_min":100,"x_max":602,"o":"m 100 -201 q 461 2 321 -176 q 602 435 602 180 q 461 868 602 690 q 100 1071 321 1046 l 100 979 q 373 802 277 943 q 469 435 469 661 q 373 68 469 209 q 100 -109 278 -73 l 100 -201 z "},"*":{"ha":837,"x_min":111,"x_max":726,"o":"m 477 766 l 684 860 l 726 732 l 503 686 l 503 696 q 477 766 503 732 m 496 667 l 650 498 l 541 420 l 429 617 q 496 667 471 629 m 408 617 l 296 420 l 187 498 l 340 667 q 408 617 366 629 m 334 686 l 111 732 l 153 860 l 359 766 q 334 695 334 732 l 334 686 m 376 778 l 351 1004 l 486 1004 l 460 778 q 418 787 437 787 q 376 778 400 787 z "},"+":{"ha":837,"x_min":58,"x_max":778,"o":"m 368 0 l 368 309 l 58 309 l 58 410 l 368 410 l 368 720 l 469 720 l 469 410 l 778 410 l 778 309 l 469 309 l 469 0 l 368 0 z "},",":{"ha":837,"x_min":318,"x_max":519,"o":"m 318 -218 l 318 -151 q 373 -116 353 -146 q 399 -31 393 -85 l 401 0 l 318 0 l 318 201 l 519 201 l 519 79 q 469 -138 519 -64 q 318 -218 418 -212 z "},"-":{"ha":837,"x_min":142,"x_max":694,"o":"m 142 368 l 142 469 l 694 469 l 694 368 l 142 368 z "},".":{"ha":837,"x_min":318,"x_max":519,"o":"m 318 0 l 318 201 l 519 201 l 519 0 l 318 0 z "},"/":{"ha":837,"x_min":51,"x_max":787,"o":"m 787 1071 l 163 -201 l 51 -201 l 675 1071 l 787 1071 z "},":":{"ha":837,"x_min":318,"x_max":519,"o":"m 318 536 l 318 736 l 519 736 l 519 536 l 318 536 m 318 0 l 318 201 l 519 201 l 519 0 l 318 0 z "},";":{"ha":837,"x_min":318,"x_max":519,"o":"m 318 -218 l 318 -151 q 376 -108 355 -146 q 401 0 397 -71 l 318 0 l 318 201 l 519 201 l 519 79 q 469 -138 519 -64 q 318 -218 418 -212 m 318 536 l 318 736 l 519 736 l 519 536 l 318 536 z "},"<":{"ha":837,"x_min":58,"x_max":778,"o":"m 778 0 l 58 359 l 778 720 l 778 607 l 283 359 l 778 113 l 778 0 z "},"=":{"ha":837,"x_min":58,"x_max":778,"o":"m 58 193 l 58 293 l 778 293 l 778 193 l 58 193 m 58 427 l 58 527 l 778 527 l 778 427 l 58 427 z "},">":{"ha":837,"x_min":58,"x_max":778,"o":"m 58 0 l 778 359 l 58 720 l 58 607 l 553 359 l 58 113 l 58 0 z "},"?":{"ha":837,"x_min":111,"x_max":736,"o":"m 284 0 l 284 151 l 451 151 l 451 0 l 284 0 m 300 284 l 300 303 q 338 456 300 385 q 451 591 376 528 l 498 630 q 596 789 596 711 q 539 894 596 859 q 368 929 481 929 q 212 909 292 929 l 212 793 l 111 793 l 111 989 q 391 1029 249 1029 q 650 974 564 1029 q 736 808 736 918 q 606 587 736 692 l 539 532 q 461 440 487 490 q 435 332 435 390 l 435 284 l 300 284 z "},"@":{"ha":837,"x_min":50,"x_max":837,"o":"m 653 22 q 437 -25 529 -25 q 158 113 266 -25 q 50 471 50 252 q 172 872 50 715 q 484 1029 294 1029 q 686 954 618 1029 q 753 729 753 879 l 753 284 l 837 284 l 837 201 l 653 201 l 653 426 q 565 251 614 309 q 457 193 516 193 q 351 263 393 193 q 310 445 310 334 q 385 705 310 599 q 567 811 459 811 q 653 789 604 811 q 596 906 640 867 q 477 945 552 945 q 245 807 340 945 q 151 469 151 669 q 235 174 151 289 q 450 58 319 58 q 653 115 538 58 l 653 22 m 653 594 l 653 711 q 574 739 610 739 q 454 664 498 739 q 410 460 410 589 q 426 334 410 376 q 471 292 441 292 q 561 378 509 292 q 653 594 613 465 z "},"A":{"ha":837,"x_min":8,"x_max":828,"o":"m 8 0 l 351 1004 l 485 1004 l 828 0 l 686 0 l 589 284 l 220 284 l 123 0 l 8 0 m 254 385 l 555 385 l 405 825 l 254 385 z "},"B":{"ha":837,"x_min":125,"x_max":754,"o":"m 125 0 l 125 1004 l 406 1004 q 637 949 564 1004 q 711 779 711 895 q 662 631 711 695 q 512 522 612 566 q 693 421 633 489 q 754 252 754 353 q 661 58 754 130 q 561 12 617 24 q 388 0 505 0 l 125 0 m 259 561 l 306 561 q 508 608 441 561 q 576 749 576 654 q 517 867 576 831 q 321 903 458 903 l 259 903 l 259 561 m 259 100 l 380 100 q 559 137 507 100 q 612 262 612 174 q 529 418 612 359 q 308 477 446 477 l 259 477 l 259 100 z "},"C":{"ha":837,"x_min":69,"x_max":783,"o":"m 783 23 q 531 -25 650 -25 q 194 115 319 -25 q 69 494 69 256 q 193 884 69 739 q 524 1029 316 1029 q 772 990 640 1029 l 772 867 q 524 928 637 928 q 297 810 382 928 q 212 496 212 691 q 308 196 212 309 q 565 84 405 84 q 783 133 656 84 l 783 23 z "},"D":{"ha":837,"x_min":88,"x_max":785,"o":"m 88 0 l 88 1004 l 351 1004 q 676 882 568 1004 q 785 518 785 761 q 667 130 785 259 q 315 0 549 0 l 88 0 m 222 100 l 289 100 q 561 195 479 100 q 642 509 642 290 q 534 844 642 748 q 284 904 466 904 l 222 903 l 222 100 z "},"E":{"ha":837,"x_min":146,"x_max":766,"o":"m 146 0 l 146 1004 l 734 1004 l 734 903 l 280 903 l 280 581 l 665 581 l 665 481 l 280 481 l 280 100 l 766 100 l 766 0 l 146 0 z "},"F":{"ha":837,"x_min":168,"x_max":787,"o":"m 168 0 l 168 1004 l 787 1004 l 787 903 l 301 903 l 301 541 l 715 541 l 715 441 l 301 441 l 301 0 l 168 0 z "},"G":{"ha":837,"x_min":52,"x_max":766,"o":"m 766 22 q 519 -25 623 -25 q 177 116 302 -25 q 52 500 52 256 q 177 886 52 743 q 513 1029 302 1029 q 755 991 621 1029 l 755 868 q 509 928 631 928 q 280 810 366 928 q 195 492 195 692 q 291 196 195 309 q 545 83 387 83 q 632 93 578 83 l 632 432 l 766 432 l 766 22 z "},"H":{"ha":837,"x_min":100,"x_max":736,"o":"m 100 0 l 100 1004 l 234 1004 l 234 577 l 602 577 l 602 1004 l 736 1004 l 736 0 l 602 0 l 602 477 l 234 477 l 234 0 l 100 0 z "},"I":{"ha":837,"x_min":117,"x_max":720,"o":"m 117 0 l 117 100 l 351 100 l 351 903 l 117 903 l 117 1004 l 720 1004 l 720 903 l 486 903 l 486 100 l 720 100 l 720 0 l 117 0 z "},"J":{"ha":837,"x_min":134,"x_max":631,"o":"m 134 7 l 134 121 l 178 106 q 327 75 271 75 q 460 125 422 75 q 498 300 498 175 l 498 903 l 197 903 l 197 1004 l 631 1004 l 631 371 q 616 174 631 238 q 556 61 600 110 q 336 -25 479 -25 q 134 7 258 -25 z "},"K":{"ha":837,"x_min":115,"x_max":815,"o":"m 115 0 l 115 1004 l 249 1004 l 249 511 l 613 1004 l 748 1004 l 397 527 l 815 0 l 655 0 l 249 511 l 249 0 l 115 0 z "},"L":{"ha":837,"x_min":151,"x_max":753,"o":"m 151 0 l 151 1004 l 284 1004 l 284 100 l 753 100 l 753 0 l 151 0 z "},"M":{"ha":837,"x_min":64,"x_max":772,"o":"m 64 0 l 64 1004 l 224 1004 l 416 431 l 605 1004 l 772 1004 l 772 0 l 663 0 l 663 885 l 466 268 l 353 268 l 157 869 l 157 0 l 64 0 z "},"N":{"ha":837,"x_min":100,"x_max":736,"o":"m 100 0 l 100 1004 l 227 1004 l 626 240 l 627 240 l 627 1004 l 736 1004 l 736 0 l 613 0 l 211 768 l 209 768 l 209 0 l 100 0 z "},"O":{"ha":837,"x_min":42,"x_max":795,"o":"m 413 -25 q 142 118 243 -25 q 42 502 42 260 q 143 887 42 746 q 418 1029 244 1029 q 693 887 592 1029 q 795 505 795 746 q 693 116 795 256 q 413 -25 592 -25 m 415 75 q 593 183 534 75 q 653 505 653 290 q 594 823 653 717 q 418 928 536 928 q 243 822 301 928 q 184 503 184 715 q 242 182 184 289 q 415 75 300 75 z "},"P":{"ha":837,"x_min":155,"x_max":785,"o":"m 155 0 l 155 1004 l 437 1004 q 704 941 623 1004 q 785 734 785 878 q 679 490 785 578 q 386 401 573 401 l 288 401 l 288 0 l 155 0 m 288 502 l 372 502 q 574 560 507 502 q 642 735 642 618 q 587 861 642 819 q 421 903 532 903 l 288 903 l 288 502 z "},"Q":{"ha":837,"x_min":42,"x_max":837,"o":"m 749 -218 q 604 -138 675 -186 q 465 -24 533 -90 l 420 -25 q 143 116 245 -25 q 42 502 42 258 q 143 887 42 746 q 418 1029 244 1029 q 694 887 593 1029 q 795 501 795 745 q 742 206 795 329 q 583 9 688 83 q 707 -62 643 -33 q 837 -108 770 -91 l 749 -218 m 184 508 q 243 183 184 292 q 419 75 302 75 q 594 182 536 75 q 653 503 653 289 q 594 822 653 715 q 418 928 536 928 q 243 823 301 928 q 184 508 184 718 z "},"R":{"ha":837,"x_min":125,"x_max":816,"o":"m 125 0 l 125 1004 l 368 1004 q 575 976 511 1004 q 669 891 633 951 q 705 760 705 831 q 655 592 705 665 q 503 469 604 519 l 816 0 l 654 0 l 379 429 l 258 429 l 258 0 l 125 0 m 258 530 l 329 530 q 498 590 434 530 q 563 749 563 650 q 512 868 563 832 q 340 903 460 903 l 258 903 l 258 530 z "},"S":{"ha":837,"x_min":111,"x_max":758,"o":"m 111 23 l 111 155 q 414 75 288 75 q 565 124 507 75 q 623 250 623 172 q 504 408 623 346 l 309 510 q 118 768 118 610 q 200 959 118 889 q 423 1029 281 1029 q 685 988 538 1029 l 685 872 q 426 928 538 928 q 289 893 334 928 q 243 789 243 859 q 377 627 243 696 l 559 533 q 758 271 758 430 q 661 55 758 136 q 400 -25 564 -25 q 111 23 290 -25 z "},"T":{"ha":837,"x_min":17,"x_max":820,"o":"m 351 0 l 351 903 l 17 903 l 17 1004 l 820 1004 l 820 903 l 486 903 l 486 0 l 351 0 z "},"U":{"ha":837,"x_min":104,"x_max":733,"o":"m 104 1004 l 237 1004 l 237 338 q 281 137 237 199 q 423 75 325 75 q 571 137 526 75 q 616 341 616 199 l 616 1004 l 733 1004 l 733 361 q 694 126 733 197 q 422 -25 612 -25 q 183 66 263 -25 q 104 340 104 157 l 104 1004 z "},"V":{"ha":837,"x_min":9,"x_max":827,"o":"m 347 0 l 9 1004 l 151 1004 l 429 178 l 713 1004 l 827 1004 l 481 0 l 347 0 z "},"W":{"ha":837,"x_min":11,"x_max":825,"o":"m 140 0 l 11 1004 l 125 1004 l 231 141 l 358 736 l 487 736 l 611 151 l 724 1004 l 825 1004 l 682 0 l 537 0 l 416 564 l 295 0 l 140 0 z "},"X":{"ha":837,"x_min":7,"x_max":827,"o":"m 7 0 l 346 513 l 37 1004 l 195 1004 l 431 629 l 679 1004 l 809 1004 l 494 528 l 827 0 l 668 0 l 410 411 l 138 0 l 7 0 z "},"Y":{"ha":837,"x_min":22,"x_max":832,"o":"m 352 0 l 352 423 l 22 1004 l 176 1004 l 434 549 l 705 1004 l 832 1004 l 486 423 l 486 0 l 352 0 z "},"Z":{"ha":837,"x_min":67,"x_max":770,"o":"m 67 0 l 67 100 l 613 903 l 100 903 l 100 1004 l 764 1004 l 764 903 l 219 100 l 770 100 l 770 0 l 67 0 z "},"[":{"ha":837,"x_min":301,"x_max":720,"o":"m 301 -201 l 301 1071 l 720 1071 l 720 970 l 418 970 l 418 -100 l 720 -100 l 720 -201 l 301 -201 z "},"\\":{"ha":837,"x_min":50,"x_max":786,"o":"m 50 1071 l 674 -201 l 786 -201 l 162 1071 l 50 1071 z "},"]":{"ha":837,"x_min":117,"x_max":536,"o":"m 536 -201 l 536 1071 l 117 1071 l 117 970 l 418 970 l 418 -100 l 117 -100 l 117 -201 l 536 -201 z "},"^":{"ha":837,"x_min":58,"x_max":778,"o":"m 58 201 l 418 1004 l 778 201 l 665 201 l 418 753 l 171 201 l 58 201 z "},"_":{"ha":837,"x_min":0,"x_max":837,"o":"m 0 -100 l 0 0 l 837 0 l 837 -100 l 0 -100 z "},"`":{"ha":837,"x_min":284,"x_max":585,"o":"m 468 870 l 284 1071 l 435 1071 l 585 870 l 468 870 z "},"a":{"ha":837,"x_min":92,"x_max":802,"o":"m 566 89 q 324 -13 445 -13 q 158 45 223 -13 q 92 191 92 102 q 194 375 92 305 q 463 445 296 445 l 545 445 l 545 508 q 508 616 545 580 q 397 652 471 652 q 156 587 280 652 l 156 702 q 425 753 298 753 q 622 697 564 753 q 680 505 680 641 l 680 197 q 694 106 680 130 q 747 82 708 82 q 789 89 760 82 l 802 9 q 699 -13 734 -13 q 616 13 650 -13 q 566 89 583 38 m 545 176 l 545 361 l 505 361 q 299 324 368 361 q 231 213 231 287 q 263 124 231 153 q 359 94 295 94 q 545 176 447 94 z "},"b":{"ha":837,"x_min":117,"x_max":762,"o":"m 117 -8 l 117 1071 l 251 1071 l 251 736 l 243 598 l 251 598 q 359 714 299 675 q 492 753 420 753 q 689 656 616 753 q 762 393 762 559 q 676 96 762 210 q 452 -17 591 -17 q 342 8 393 -17 q 251 83 292 33 l 243 83 l 218 -8 l 117 -8 m 251 184 q 343 109 297 134 q 434 83 389 83 q 571 161 522 83 q 619 378 619 239 q 581 574 619 509 q 465 639 542 639 q 354 604 408 639 q 251 498 300 568 l 251 184 z "},"c":{"ha":837,"x_min":111,"x_max":748,"o":"m 748 24 q 510 -17 629 -17 q 215 83 319 -17 q 111 368 111 184 q 213 651 111 549 q 498 753 316 753 q 734 718 616 753 l 734 606 q 513 652 604 652 q 322 577 391 652 q 253 368 253 501 q 326 159 253 235 q 528 83 399 83 q 748 129 627 83 l 748 24 z "},"d":{"ha":837,"x_min":86,"x_max":730,"o":"m 597 0 l 605 138 l 597 138 q 488 22 548 60 q 355 -17 427 -17 q 158 80 231 -17 q 86 344 86 177 q 172 640 86 527 q 395 753 257 753 q 505 728 454 753 q 597 652 555 703 l 605 652 l 597 753 l 597 1071 l 730 1071 l 730 0 l 597 0 m 597 552 q 504 627 550 602 q 414 652 458 652 q 277 575 326 652 q 229 357 229 498 q 267 162 229 227 q 382 98 305 98 q 493 133 439 98 q 597 239 547 168 l 597 552 z "},"e":{"ha":837,"x_min":96,"x_max":745,"o":"m 745 29 q 489 -17 606 -17 q 198 81 300 -17 q 96 360 96 179 q 194 642 96 532 q 443 753 292 753 q 668 661 595 753 q 740 376 740 570 l 740 334 l 238 334 q 313 146 245 208 q 508 83 380 83 q 745 135 616 83 l 745 29 m 242 434 l 597 434 l 597 453 q 556 603 597 553 q 431 652 514 652 q 301 595 351 652 q 242 434 252 537 z "},"f":{"ha":837,"x_min":100,"x_max":814,"o":"m 301 0 l 301 619 l 100 619 l 100 720 l 301 720 l 301 798 q 373 1020 301 952 q 609 1088 445 1088 q 814 1059 718 1088 l 814 953 q 620 987 715 987 q 476 948 517 987 q 435 812 435 909 l 435 720 l 787 720 l 787 619 l 435 619 l 435 0 l 301 0 z "},"g":{"ha":837,"x_min":83,"x_max":731,"o":"m 144 -246 l 158 -134 q 382 -184 278 -184 q 536 -140 490 -184 q 595 20 583 -95 l 610 153 l 602 153 q 498 38 559 76 q 358 0 437 0 q 158 96 232 0 q 83 355 83 192 q 170 643 83 532 q 393 753 256 753 q 606 652 501 753 l 614 652 l 614 736 l 731 736 l 731 147 q 712 -68 731 4 q 641 -196 693 -140 q 380 -285 557 -285 q 144 -246 275 -285 m 597 261 l 597 551 q 411 652 507 652 q 272 580 318 652 q 226 363 226 508 q 266 178 226 240 q 387 117 307 117 q 499 153 447 117 q 597 261 552 189 z "},"h":{"ha":837,"x_min":123,"x_max":718,"o":"m 123 0 l 123 1071 l 257 1071 l 257 736 l 249 598 l 257 598 q 366 714 303 675 q 508 753 429 753 q 665 690 612 753 q 718 504 718 628 l 718 0 l 584 0 l 584 467 q 557 590 584 554 q 467 626 530 626 q 365 590 417 626 q 257 481 312 553 l 257 0 l 123 0 z "},"i":{"ha":837,"x_min":117,"x_max":536,"o":"m 385 0 l 385 636 l 117 636 l 117 736 l 519 736 l 519 0 l 385 0 m 368 903 l 368 1071 l 536 1071 l 536 903 l 368 903 z "},"j":{"ha":837,"x_min":100,"x_max":606,"o":"m 100 -249 l 100 -137 q 307 -184 205 -184 q 424 -141 393 -184 q 456 18 456 -98 l 456 636 l 155 636 l 155 736 l 589 736 l 589 45 q 522 -205 589 -126 q 309 -284 454 -284 q 100 -249 211 -284 m 439 903 l 439 1071 l 606 1071 l 606 903 l 439 903 z "},"k":{"ha":837,"x_min":144,"x_max":806,"o":"m 144 0 l 144 1071 l 278 1071 l 278 385 l 587 736 l 732 736 l 441 405 l 806 0 l 625 0 l 278 385 l 278 0 l 144 0 z "},"l":{"ha":837,"x_min":117,"x_max":536,"o":"m 401 0 l 401 970 l 117 970 l 117 1071 l 536 1071 l 536 0 l 401 0 z "},"m":{"ha":837,"x_min":63,"x_max":774,"o":"m 63 0 l 63 736 l 180 736 l 172 598 l 180 598 q 264 714 223 675 q 345 753 306 753 q 430 711 396 753 q 469 598 464 669 l 477 598 q 554 714 513 675 q 644 753 595 753 q 742 699 709 753 q 774 539 774 646 l 774 0 l 657 0 l 657 534 q 647 611 657 585 q 615 637 636 637 q 549 597 583 637 q 477 475 514 556 l 477 0 l 360 0 l 360 509 q 349 604 360 572 q 316 636 338 636 q 248 590 287 636 q 180 474 210 543 l 180 0 l 63 0 z "},"n":{"ha":837,"x_min":123,"x_max":718,"o":"m 123 0 l 123 736 l 257 736 l 249 598 l 257 598 q 366 714 303 675 q 508 753 429 753 q 665 690 612 753 q 718 504 718 628 l 718 0 l 584 0 l 584 467 q 557 590 584 554 q 467 626 530 626 q 365 590 417 626 q 257 481 312 553 l 257 0 l 123 0 z "},"o":{"ha":837,"x_min":71,"x_max":766,"o":"m 413 -17 q 163 87 256 -17 q 71 368 71 191 q 164 650 71 547 q 418 753 257 753 q 673 650 580 753 q 766 370 766 548 q 672 85 766 187 q 413 -17 579 -17 m 416 83 q 571 155 519 83 q 623 370 623 227 q 569 577 623 502 q 418 652 515 652 q 268 577 322 652 q 214 368 214 502 q 268 159 214 235 q 416 83 321 83 z "},"p":{"ha":837,"x_min":121,"x_max":766,"o":"m 121 -268 l 121 736 l 255 736 l 247 598 l 255 598 q 363 714 303 675 q 496 753 424 753 q 693 656 621 753 q 766 393 766 559 q 680 96 766 210 q 456 -17 595 -17 q 347 8 397 -17 q 255 83 296 33 l 247 83 l 255 -17 l 255 -268 l 121 -268 m 255 184 q 347 109 301 134 q 438 83 393 83 q 575 161 526 83 q 623 378 623 239 q 585 574 623 509 q 469 639 546 639 q 358 604 412 639 q 255 498 304 568 l 255 184 z "},"q":{"ha":837,"x_min":75,"x_max":720,"o":"m 720 736 l 720 -268 l 586 -268 l 586 0 l 594 138 l 586 138 q 477 22 537 60 q 345 -17 416 -17 q 148 80 220 -17 q 75 344 75 177 q 161 640 75 527 q 385 753 246 753 q 494 728 444 753 q 586 652 545 703 l 594 652 l 619 736 l 720 736 m 586 552 q 493 627 539 602 q 403 652 448 652 q 266 575 315 652 q 218 357 218 498 q 256 162 218 227 q 372 98 294 98 q 482 133 429 98 q 586 239 536 168 l 586 552 z "},"r":{"ha":837,"x_min":209,"x_max":753,"o":"m 209 0 l 209 736 l 342 736 l 334 598 l 342 598 q 462 714 393 675 q 616 753 530 753 q 753 736 676 753 l 753 527 l 652 527 l 652 632 q 596 639 621 639 q 464 599 528 639 q 342 479 401 559 l 342 0 l 209 0 z "},"s":{"ha":837,"x_min":127,"x_max":715,"o":"m 127 30 l 127 151 q 395 83 282 83 q 530 116 476 83 q 583 199 583 149 q 456 304 583 264 l 313 351 q 146 543 146 406 q 222 698 146 644 q 437 753 298 753 q 676 721 539 753 l 676 612 q 436 652 544 652 q 314 628 355 652 q 274 555 274 604 q 374 465 274 500 l 543 406 q 715 212 715 346 q 629 45 715 107 q 397 -17 543 -17 q 127 30 271 -17 z "},"t":{"ha":837,"x_min":88,"x_max":747,"o":"m 747 1 q 554 -17 647 -17 q 331 42 390 -17 q 272 264 272 100 l 272 619 l 88 619 l 88 720 l 272 720 l 272 878 l 406 878 l 406 720 l 732 720 l 732 619 l 406 619 l 406 242 q 414 155 406 179 q 448 114 422 132 q 579 83 494 83 q 747 102 665 83 l 747 1 z "},"u":{"ha":837,"x_min":119,"x_max":713,"o":"m 713 736 l 713 0 l 580 0 l 588 138 l 580 138 q 471 22 534 60 q 328 -17 408 -17 q 172 45 224 -17 q 119 233 119 108 l 119 736 l 253 736 l 253 269 q 280 146 253 182 q 370 110 307 110 q 472 146 420 110 q 580 255 525 182 l 580 736 l 713 736 z "},"v":{"ha":837,"x_min":42,"x_max":795,"o":"m 347 0 l 42 736 l 179 736 l 424 146 l 676 736 l 795 736 l 481 0 l 347 0 z "},"w":{"ha":837,"x_min":8,"x_max":828,"o":"m 142 0 l 8 736 l 132 736 l 230 157 l 361 669 l 491 669 l 616 136 l 726 736 l 828 736 l 681 0 l 549 0 l 419 553 l 275 0 l 142 0 z "},"x":{"ha":837,"x_min":63,"x_max":783,"o":"m 63 0 l 337 372 l 64 736 l 232 736 l 435 465 l 622 736 l 754 736 l 504 373 l 783 0 l 616 0 l 405 281 l 198 0 l 63 0 z "},"y":{"ha":837,"x_min":58,"x_max":800,"o":"m 96 -268 l 96 -168 l 151 -168 q 261 -143 227 -168 q 334 -38 296 -119 l 367 33 l 58 736 l 196 736 l 437 185 l 680 736 l 800 736 l 429 -94 q 325 -230 385 -191 q 153 -268 264 -268 l 96 -268 z "},"z":{"ha":837,"x_min":92,"x_max":745,"o":"m 92 0 l 92 100 l 574 636 l 109 636 l 109 736 l 732 736 l 732 636 l 250 100 l 745 100 l 745 0 l 92 0 z "},"{":{"ha":837,"x_min":159,"x_max":694,"o":"m 694 1071 l 694 970 l 641 970 q 498 946 540 970 q 457 860 457 921 q 464 798 457 838 l 479 703 q 487 625 487 656 q 453 504 487 551 q 353 435 420 457 q 453 366 420 413 q 487 245 487 318 q 479 167 487 214 l 464 73 q 457 10 457 33 q 498 -76 457 -51 q 641 -100 540 -100 l 694 -100 l 694 -201 l 621 -201 q 406 -152 477 -201 q 335 -5 335 -103 q 345 86 335 35 l 368 207 q 372 260 372 234 q 334 354 372 323 q 220 385 296 385 l 159 385 l 159 486 l 220 486 q 334 516 296 486 q 372 610 372 547 q 368 663 372 636 l 345 784 q 335 876 335 835 q 406 1022 335 973 q 621 1071 477 1071 l 694 1071 z "},"|":{"ha":837,"x_min":368,"x_max":469,"o":"m 368 -201 l 368 1071 l 469 1071 l 469 -201 l 368 -201 z "},"}":{"ha":837,"x_min":142,"x_max":678,"o":"m 142 1071 l 142 970 l 196 970 q 338 946 297 970 q 380 860 380 921 q 373 798 380 838 l 357 703 q 350 625 350 656 q 384 504 350 551 q 484 435 417 457 q 384 366 417 413 q 350 245 350 318 q 357 167 350 214 l 373 73 q 380 10 380 33 q 338 -76 380 -51 q 196 -100 297 -100 l 142 -100 l 142 -201 l 216 -201 q 431 -152 359 -201 q 502 -5 502 -103 q 492 86 502 35 l 469 207 q 465 260 465 234 q 503 354 465 323 q 616 385 541 385 l 678 385 l 678 486 l 616 486 q 503 516 541 486 q 465 610 465 547 q 469 663 465 636 l 492 784 q 502 876 502 835 q 431 1022 502 973 q 216 1071 359 1071 l 142 1071 z "},"~":{"ha":837,"x_min":58,"x_max":778,"o":"m 58 259 q 110 421 58 359 q 243 483 161 483 q 385 439 307 483 l 485 383 q 602 340 561 340 q 662 370 641 340 q 686 460 683 400 l 778 460 q 727 299 778 361 q 593 237 675 237 q 451 281 530 237 l 351 336 q 234 380 275 380 q 174 350 195 380 q 151 259 153 319 l 58 259 z "},"Ä":{"ha":837,"x_min":8,"x_max":828,"o":"m 8 0 l 351 1004 l 485 1004 l 828 0 l 686 0 l 589 284 l 220 284 l 123 0 l 8 0 m 254 385 l 555 385 l 405 825 l 254 385 m 226 1088 l 226 1205 l 343 1205 l 343 1088 l 226 1088 m 494 1088 l 494 1205 l 611 1205 l 611 1088 l 494 1088 z "},"Å":{"ha":837,"x_min":8,"x_max":828,"o":"m 8 0 l 351 1004 l 485 1004 l 828 0 l 686 0 l 589 284 l 220 284 l 123 0 l 8 0 m 254 385 l 555 385 l 405 825 l 254 385 m 416 1005 q 309 1050 354 1005 q 264 1159 264 1095 q 310 1268 264 1223 q 418 1313 355 1313 q 528 1268 483 1313 q 572 1159 572 1223 q 527 1049 572 1094 q 416 1005 482 1005 m 417 1063 q 486 1091 458 1063 q 514 1160 514 1119 q 486 1227 514 1199 q 418 1255 458 1255 q 351 1227 379 1255 q 323 1159 323 1199 q 351 1092 323 1120 q 417 1063 378 1063 z "},"Ç":{"ha":837,"x_min":69,"x_max":783,"o":"m 783 23 q 531 -25 650 -25 q 194 115 319 -25 q 69 494 69 256 q 193 884 69 739 q 524 1029 316 1029 q 772 990 640 1029 l 772 867 q 524 928 637 928 q 297 810 382 928 q 212 496 212 691 q 308 196 212 309 q 565 84 405 84 q 783 133 656 84 l 783 23 m 494 0 l 559 0 l 519 -74 q 611 -106 572 -74 q 650 -182 650 -138 q 611 -261 650 -230 q 512 -293 572 -293 q 415 -279 465 -293 l 415 -224 q 486 -234 446 -234 q 538 -221 521 -234 q 556 -184 556 -209 q 524 -135 556 -151 q 429 -119 492 -119 l 494 0 z "},"É":{"ha":837,"x_min":146,"x_max":766,"o":"m 146 0 l 146 1004 l 734 1004 l 734 903 l 280 903 l 280 581 l 665 581 l 665 481 l 280 481 l 280 100 l 766 100 l 766 0 l 146 0 m 330 1088 l 481 1289 l 631 1289 l 448 1088 l 330 1088 z "},"Ñ":{"ha":837,"x_min":100,"x_max":736,"o":"m 100 0 l 100 1004 l 227 1004 l 626 240 l 627 240 l 627 1004 l 736 1004 l 736 0 l 613 0 l 211 768 l 209 768 l 209 0 l 100 0 m 644 1246 q 605 1127 636 1167 q 519 1088 574 1088 q 444 1101 477 1088 l 368 1133 q 326 1143 342 1143 q 296 1129 309 1143 q 276 1088 283 1116 l 193 1088 q 232 1207 201 1167 q 318 1246 263 1246 q 393 1233 359 1246 l 469 1202 q 511 1192 495 1192 q 540 1205 528 1192 q 561 1246 553 1219 l 644 1246 z "},"Ö":{"ha":837,"x_min":42,"x_max":795,"o":"m 413 -25 q 142 118 243 -25 q 42 502 42 260 q 143 887 42 746 q 418 1029 244 1029 q 693 887 592 1029 q 795 505 795 746 q 693 116 795 256 q 413 -25 592 -25 m 415 75 q 593 183 534 75 q 653 505 653 290 q 594 823 653 717 q 418 928 536 928 q 243 822 301 928 q 184 503 184 715 q 242 182 184 289 q 415 75 300 75 m 226 1088 l 226 1205 l 343 1205 l 343 1088 l 226 1088 m 494 1088 l 494 1205 l 611 1205 l 611 1088 l 494 1088 z "},"Ü":{"ha":837,"x_min":104,"x_max":733,"o":"m 104 1004 l 237 1004 l 237 338 q 281 137 237 199 q 423 75 325 75 q 571 137 526 75 q 616 341 616 199 l 616 1004 l 733 1004 l 733 361 q 694 126 733 197 q 422 -25 612 -25 q 183 66 263 -25 q 104 340 104 157 l 104 1004 m 226 1088 l 226 1205 l 343 1205 l 343 1088 l 226 1088 m 494 1088 l 494 1205 l 611 1205 l 611 1088 l 494 1088 z "},"á":{"ha":837,"x_min":92,"x_max":802,"o":"m 566 89 q 324 -13 445 -13 q 158 45 223 -13 q 92 191 92 102 q 194 375 92 305 q 463 445 296 445 l 545 445 l 545 508 q 508 616 545 580 q 397 652 471 652 q 156 587 280 652 l 156 702 q 425 753 298 753 q 622 697 564 753 q 680 505 680 641 l 680 197 q 694 106 680 130 q 747 82 708 82 q 789 89 760 82 l 802 9 q 699 -13 734 -13 q 616 13 650 -13 q 566 89 583 38 m 545 176 l 545 361 l 505 361 q 299 324 368 361 q 231 213 231 287 q 263 124 231 153 q 359 94 295 94 q 545 176 447 94 m 311 870 l 462 1071 l 612 1071 l 429 870 l 311 870 z "},"à":{"ha":837,"x_min":92,"x_max":802,"o":"m 566 89 q 324 -13 445 -13 q 158 45 223 -13 q 92 191 92 102 q 194 375 92 305 q 463 445 296 445 l 545 445 l 545 508 q 508 616 545 580 q 397 652 471 652 q 156 587 280 652 l 156 702 q 425 753 298 753 q 622 697 564 753 q 680 505 680 641 l 680 197 q 694 106 680 130 q 747 82 708 82 q 789 89 760 82 l 802 9 q 699 -13 734 -13 q 616 13 650 -13 q 566 89 583 38 m 545 176 l 545 361 l 505 361 q 299 324 368 361 q 231 213 231 287 q 263 124 231 153 q 359 94 295 94 q 545 176 447 94 m 429 870 l 245 1071 l 395 1071 l 546 870 l 429 870 z "},"â":{"ha":837,"x_min":92,"x_max":802,"o":"m 566 89 q 324 -13 445 -13 q 158 45 223 -13 q 92 191 92 102 q 194 375 92 305 q 463 445 296 445 l 545 445 l 545 508 q 508 616 545 580 q 397 652 471 652 q 156 587 280 652 l 156 702 q 425 753 298 753 q 622 697 564 753 q 680 505 680 641 l 680 197 q 694 106 680 130 q 747 82 708 82 q 789 89 760 82 l 802 9 q 699 -13 734 -13 q 616 13 650 -13 q 566 89 583 38 m 545 176 l 545 361 l 505 361 q 299 324 368 361 q 231 213 231 287 q 263 124 231 153 q 359 94 295 94 q 545 176 447 94 m 504 1071 l 654 870 l 537 870 l 429 996 l 319 870 l 203 870 l 353 1071 l 504 1071 z "},"ä":{"ha":837,"x_min":92,"x_max":802,"o":"m 566 89 q 324 -13 445 -13 q 158 45 223 -13 q 92 191 92 102 q 194 375 92 305 q 463 445 296 445 l 545 445 l 545 508 q 508 616 545 580 q 397 652 471 652 q 156 587 280 652 l 156 702 q 425 753 298 753 q 622 697 564 753 q 680 505 680 641 l 680 197 q 694 106 680 130 q 747 82 708 82 q 789 89 760 82 l 802 9 q 699 -13 734 -13 q 616 13 650 -13 q 566 89 583 38 m 545 176 l 545 361 l 505 361 q 299 324 368 361 q 231 213 231 287 q 263 124 231 153 q 359 94 295 94 q 545 176 447 94 m 236 870 l 236 987 l 353 987 l 353 870 l 236 870 m 504 870 l 504 987 l 621 987 l 621 870 l 504 870 z "},"ã":{"ha":837,"x_min":92,"x_max":802,"o":"m 566 89 q 324 -13 445 -13 q 158 45 223 -13 q 92 191 92 102 q 194 375 92 305 q 463 445 296 445 l 545 445 l 545 508 q 508 616 545 580 q 397 652 471 652 q 156 587 280 652 l 156 702 q 425 753 298 753 q 622 697 564 753 q 680 505 680 641 l 680 197 q 694 106 680 130 q 747 82 708 82 q 789 89 760 82 l 802 9 q 699 -13 734 -13 q 616 13 650 -13 q 566 89 583 38 m 545 176 l 545 361 l 505 361 q 299 324 368 361 q 231 213 231 287 q 263 124 231 153 q 359 94 295 94 q 545 176 447 94 m 641 1029 q 602 910 633 949 q 516 870 570 870 q 440 884 474 870 l 365 915 q 323 926 338 926 q 293 912 305 926 q 273 870 280 898 l 189 870 q 229 989 197 949 q 315 1029 260 1029 q 390 1015 356 1029 l 465 985 q 507 974 492 974 q 537 987 524 974 q 557 1029 549 1001 l 641 1029 z "},"å":{"ha":837,"x_min":92,"x_max":802,"o":"m 566 89 q 324 -13 445 -13 q 158 45 223 -13 q 92 191 92 102 q 194 375 92 305 q 463 445 296 445 l 545 445 l 545 508 q 508 616 545 580 q 397 652 471 652 q 156 587 280 652 l 156 702 q 425 753 298 753 q 622 697 564 753 q 680 505 680 641 l 680 197 q 694 106 680 130 q 747 82 708 82 q 789 89 760 82 l 802 9 q 699 -13 734 -13 q 616 13 650 -13 q 566 89 583 38 m 545 176 l 545 361 l 505 361 q 299 324 368 361 q 231 213 231 287 q 263 124 231 153 q 359 94 295 94 q 545 176 447 94 m 427 870 q 319 915 364 870 q 275 1024 275 960 q 320 1133 275 1088 q 429 1178 365 1178 q 538 1133 493 1178 q 583 1024 583 1088 q 537 915 583 959 q 427 870 492 870 m 427 928 q 496 956 469 928 q 524 1025 524 984 q 496 1092 524 1064 q 429 1120 469 1120 q 361 1092 389 1120 q 334 1024 334 1064 q 361 957 334 985 q 427 928 389 928 z "},"ç":{"ha":837,"x_min":111,"x_max":748,"o":"m 748 24 q 510 -17 629 -17 q 215 83 319 -17 q 111 368 111 184 q 213 651 111 549 q 498 753 316 753 q 734 718 616 753 l 734 606 q 513 652 604 652 q 322 577 391 652 q 253 368 253 501 q 326 159 253 235 q 528 83 399 83 q 748 129 627 83 l 748 24 m 451 0 l 517 0 l 476 -74 q 568 -106 529 -74 q 607 -182 607 -138 q 568 -261 607 -230 q 469 -293 529 -293 q 372 -279 422 -293 l 372 -224 q 444 -234 404 -234 q 496 -221 478 -234 q 513 -184 513 -209 q 481 -135 513 -151 q 387 -119 450 -119 l 451 0 z "},"é":{"ha":837,"x_min":96,"x_max":745,"o":"m 745 29 q 489 -17 606 -17 q 198 81 300 -17 q 96 360 96 179 q 194 642 96 532 q 443 753 292 753 q 668 661 595 753 q 740 376 740 570 l 740 334 l 238 334 q 313 146 245 208 q 508 83 380 83 q 745 135 616 83 l 745 29 m 242 434 l 597 434 l 597 453 q 556 603 597 553 q 431 652 514 652 q 301 595 351 652 q 242 434 252 537 m 318 870 l 469 1071 l 619 1071 l 435 870 l 318 870 z "},"è":{"ha":837,"x_min":96,"x_max":745,"o":"m 745 29 q 489 -17 606 -17 q 198 81 300 -17 q 96 360 96 179 q 194 642 96 532 q 443 753 292 753 q 668 661 595 753 q 740 376 740 570 l 740 334 l 238 334 q 313 146 245 208 q 508 83 380 83 q 745 135 616 83 l 745 29 m 242 434 l 597 434 l 597 453 q 556 603 597 553 q 431 652 514 652 q 301 595 351 652 q 242 434 252 537 m 452 870 l 268 1071 l 418 1071 l 569 870 l 452 870 z "},"ê":{"ha":837,"x_min":96,"x_max":745,"o":"m 745 29 q 489 -17 606 -17 q 198 81 300 -17 q 96 360 96 179 q 194 642 96 532 q 443 753 292 753 q 668 661 595 753 q 740 376 740 570 l 740 334 l 238 334 q 313 146 245 208 q 508 83 380 83 q 745 135 616 83 l 745 29 m 242 434 l 597 434 l 597 453 q 556 603 597 553 q 431 652 514 652 q 301 595 351 652 q 242 434 252 537 m 519 1071 l 669 870 l 552 870 l 444 996 l 334 870 l 218 870 l 368 1071 l 519 1071 z "},"ë":{"ha":837,"x_min":96,"x_max":745,"o":"m 745 29 q 489 -17 606 -17 q 198 81 300 -17 q 96 360 96 179 q 194 642 96 532 q 443 753 292 753 q 668 661 595 753 q 740 376 740 570 l 740 334 l 238 334 q 313 146 245 208 q 508 83 380 83 q 745 135 616 83 l 745 29 m 242 434 l 597 434 l 597 453 q 556 603 597 553 q 431 652 514 652 q 301 595 351 652 q 242 434 252 537 m 252 870 l 252 987 l 369 987 l 369 870 l 252 870 m 519 870 l 519 987 l 637 987 l 637 870 l 519 870 z "},"í":{"ha":837,"x_min":117,"x_max":611,"o":"m 385 0 l 385 636 l 117 636 l 117 736 l 519 736 l 519 0 l 385 0 m 310 870 l 460 1071 l 611 1071 l 427 870 l 310 870 z "},"ì":{"ha":837,"x_min":117,"x_max":544,"o":"m 385 0 l 385 636 l 117 636 l 117 736 l 519 736 l 519 0 l 385 0 m 427 870 l 243 1071 l 393 1071 l 544 870 l 427 870 z "},"î":{"ha":837,"x_min":117,"x_max":669,"o":"m 385 0 l 385 636 l 117 636 l 117 736 l 519 736 l 519 0 l 385 0 m 519 1071 l 669 870 l 552 870 l 444 996 l 334 870 l 218 870 l 368 1071 l 519 1071 z "},"ï":{"ha":837,"x_min":117,"x_max":636,"o":"m 385 0 l 385 636 l 117 636 l 117 736 l 519 736 l 519 0 l 385 0 m 251 870 l 251 987 l 368 987 l 368 870 l 251 870 m 519 870 l 519 987 l 636 987 l 636 870 l 519 870 z "},"ñ":{"ha":837,"x_min":123,"x_max":718,"o":"m 123 0 l 123 736 l 257 736 l 249 598 l 257 598 q 366 714 303 675 q 508 753 429 753 q 665 690 612 753 q 718 504 718 628 l 718 0 l 584 0 l 584 467 q 557 590 584 554 q 467 626 530 626 q 365 590 417 626 q 257 481 312 553 l 257 0 l 123 0 m 642 1029 q 603 910 634 949 q 517 870 572 870 q 441 884 475 870 l 366 915 q 324 926 340 926 q 294 912 307 926 q 274 870 281 898 l 191 870 q 230 989 199 949 q 316 1029 261 1029 q 391 1015 357 1029 l 467 985 q 509 974 493 974 q 538 987 526 974 q 559 1029 551 1001 l 642 1029 z "},"ó":{"ha":837,"x_min":71,"x_max":766,"o":"m 413 -17 q 163 87 256 -17 q 71 368 71 191 q 164 650 71 547 q 418 753 257 753 q 673 650 580 753 q 766 370 766 548 q 672 85 766 187 q 413 -17 579 -17 m 416 83 q 571 155 519 83 q 623 370 623 227 q 569 577 623 502 q 418 652 515 652 q 268 577 322 652 q 214 368 214 502 q 268 159 214 235 q 416 83 321 83 m 293 870 l 444 1071 l 594 1071 l 410 870 l 293 870 z "},"ò":{"ha":837,"x_min":71,"x_max":766,"o":"m 413 -17 q 163 87 256 -17 q 71 368 71 191 q 164 650 71 547 q 418 753 257 753 q 673 650 580 753 q 766 370 766 548 q 672 85 766 187 q 413 -17 579 -17 m 416 83 q 571 155 519 83 q 623 370 623 227 q 569 577 623 502 q 418 652 515 652 q 268 577 322 652 q 214 368 214 502 q 268 159 214 235 q 416 83 321 83 m 427 870 l 243 1071 l 393 1071 l 544 870 l 427 870 z "},"ô":{"ha":837,"x_min":71,"x_max":766,"o":"m 413 -17 q 163 87 256 -17 q 71 368 71 191 q 164 650 71 547 q 418 753 257 753 q 673 650 580 753 q 766 370 766 548 q 672 85 766 187 q 413 -17 579 -17 m 416 83 q 571 155 519 83 q 623 370 623 227 q 569 577 623 502 q 418 652 515 652 q 268 577 322 652 q 214 368 214 502 q 268 159 214 235 q 416 83 321 83 m 494 1071 l 644 870 l 527 870 l 418 996 l 309 870 l 193 870 l 343 1071 l 494 1071 z "},"ö":{"ha":837,"x_min":71,"x_max":766,"o":"m 413 -17 q 163 87 256 -17 q 71 368 71 191 q 164 650 71 547 q 418 753 257 753 q 673 650 580 753 q 766 370 766 548 q 672 85 766 187 q 413 -17 579 -17 m 416 83 q 571 155 519 83 q 623 370 623 227 q 569 577 623 502 q 418 652 515 652 q 268 577 322 652 q 214 368 214 502 q 268 159 214 235 q 416 83 321 83 m 226 870 l 226 987 l 343 987 l 343 870 l 226 870 m 494 870 l 494 987 l 611 987 l 611 870 l 494 870 z "},"õ":{"ha":837,"x_min":71,"x_max":766,"o":"m 413 -17 q 163 87 256 -17 q 71 368 71 191 q 164 650 71 547 q 418 753 257 753 q 673 650 580 753 q 766 370 766 548 q 672 85 766 187 q 413 -17 579 -17 m 416 83 q 571 155 519 83 q 623 370 623 227 q 569 577 623 502 q 418 652 515 652 q 268 577 322 652 q 214 368 214 502 q 268 159 214 235 q 416 83 321 83 m 644 1029 q 605 910 636 949 q 519 870 574 870 q 444 884 477 870 l 368 915 q 326 926 342 926 q 296 912 309 926 q 276 870 283 898 l 193 870 q 232 989 201 949 q 318 1029 263 1029 q 393 1015 359 1029 l 469 985 q 511 974 495 974 q 540 987 528 974 q 561 1029 553 1001 l 644 1029 z "},"ú":{"ha":837,"x_min":119,"x_max":713,"o":"m 713 736 l 713 0 l 580 0 l 588 138 l 580 138 q 471 22 534 60 q 328 -17 408 -17 q 172 45 224 -17 q 119 233 119 108 l 119 736 l 253 736 l 253 269 q 280 146 253 182 q 370 110 307 110 q 472 146 420 110 q 580 255 525 182 l 580 736 l 713 736 m 291 870 l 441 1071 l 592 1071 l 408 870 l 291 870 z "},"ù":{"ha":837,"x_min":119,"x_max":713,"o":"m 713 736 l 713 0 l 580 0 l 588 138 l 580 138 q 471 22 534 60 q 328 -17 408 -17 q 172 45 224 -17 q 119 233 119 108 l 119 736 l 253 736 l 253 269 q 280 146 253 182 q 370 110 307 110 q 472 146 420 110 q 580 255 525 182 l 580 736 l 713 736 m 425 870 l 241 1071 l 391 1071 l 542 870 l 425 870 z "},"û":{"ha":837,"x_min":119,"x_max":713,"o":"m 713 736 l 713 0 l 580 0 l 588 138 l 580 138 q 471 22 534 60 q 328 -17 408 -17 q 172 45 224 -17 q 119 233 119 108 l 119 736 l 253 736 l 253 269 q 280 146 253 182 q 370 110 307 110 q 472 146 420 110 q 580 255 525 182 l 580 736 l 713 736 m 492 1071 l 642 870 l 525 870 l 416 996 l 307 870 l 191 870 l 341 1071 l 492 1071 z "},"ü":{"ha":837,"x_min":119,"x_max":713,"o":"m 713 736 l 713 0 l 580 0 l 588 138 l 580 138 q 471 22 534 60 q 328 -17 408 -17 q 172 45 224 -17 q 119 233 119 108 l 119 736 l 253 736 l 253 269 q 280 146 253 182 q 370 110 307 110 q 472 146 420 110 q 580 255 525 182 l 580 736 l 713 736 m 224 870 l 224 987 l 341 987 l 341 870 l 224 870 m 492 870 l 492 987 l 609 987 l 609 870 l 492 870 z "},"†":{"ha":837,"x_min":134,"x_max":703,"o":"m 351 -201 l 368 569 l 134 552 l 134 652 l 368 636 l 351 1004 l 485 1004 l 468 636 l 703 652 l 703 552 l 468 569 l 485 -201 l 351 -201 z "},"°":{"ha":837,"x_min":218,"x_max":619,"o":"m 416 686 q 276 746 335 686 q 218 887 218 805 q 277 1029 218 970 q 418 1088 336 1088 q 560 1029 501 1088 q 619 887 619 970 q 560 745 619 803 q 416 686 501 686 m 417 770 q 501 804 467 770 q 536 887 536 838 q 501 969 536 935 q 418 1004 467 1004 q 336 969 370 1004 q 301 887 301 935 q 335 804 301 839 q 417 770 370 770 z "},"¢":{"ha":837,"x_min":134,"x_max":689,"o":"m 430 0 l 430 123 q 211 241 288 142 q 134 503 134 340 q 210 761 134 663 q 430 886 286 860 l 430 1004 l 513 1004 l 513 886 q 688 855 588 880 l 688 741 q 513 787 592 777 l 513 220 q 689 267 609 229 l 689 164 q 513 121 614 134 l 513 0 l 430 0 m 430 231 l 430 781 q 314 694 353 764 q 276 504 276 625 q 314 327 276 395 q 430 231 353 258 z "},"£":{"ha":837,"x_min":170,"x_max":724,"o":"m 170 0 l 170 117 q 271 195 237 143 q 305 327 305 248 l 305 486 l 192 486 l 192 586 l 305 586 l 305 732 q 371 955 305 880 q 568 1029 437 1029 q 713 1009 633 1029 l 713 895 q 566 928 623 928 q 470 892 502 928 q 439 785 439 857 l 439 586 l 573 586 l 573 486 l 439 486 l 439 389 q 416 243 439 296 q 323 117 394 190 l 724 117 l 724 0 l 170 0 z "},"§":{"ha":837,"x_min":147,"x_max":696,"o":"m 147 -173 l 147 -50 q 415 -125 304 -125 q 529 -91 483 -125 q 574 -5 574 -56 q 535 78 574 37 q 416 159 495 119 l 337 199 q 202 299 247 244 q 157 418 157 353 q 254 623 157 499 q 157 791 157 696 q 242 962 157 895 q 461 1029 328 1029 q 660 1001 558 1029 l 660 888 q 454 928 552 928 q 327 896 376 928 q 277 810 277 863 q 386 693 277 747 l 474 649 q 631 537 578 597 q 683 411 683 478 q 583 203 683 312 q 668 113 640 161 q 696 11 696 65 q 613 -156 696 -90 q 405 -222 530 -222 q 147 -173 295 -222 m 520 245 q 569 370 569 321 q 534 454 569 414 q 429 530 498 494 l 378 556 l 347 571 q 324 583 340 574 q 277 458 277 515 q 310 376 277 415 q 406 304 342 338 l 459 277 l 493 260 q 520 245 501 256 z "},"•":{"ha":837,"x_min":117,"x_max":720,"o":"m 414 151 q 205 240 293 151 q 117 452 117 329 q 205 665 117 576 q 418 753 294 753 q 632 664 544 753 q 720 450 720 576 q 630 238 720 325 q 414 151 541 151 z "},"¶":{"ha":837,"x_min":85,"x_max":679,"o":"m 344 -201 l 344 502 q 150 601 214 531 q 85 783 85 671 q 148 954 85 903 q 361 1004 210 1004 l 679 1004 l 679 -201 l 595 -201 l 595 920 l 428 920 l 428 -201 l 344 -201 z "},"ß":{"ha":837,"x_min":130,"x_max":798,"o":"m 130 0 l 130 787 q 188 1021 130 955 q 394 1088 246 1088 q 573 1039 507 1088 q 640 907 640 990 q 620 819 640 865 q 562 722 600 773 l 531 683 q 507 644 515 662 q 499 612 499 627 q 509 574 499 592 q 541 538 519 555 l 682 417 q 768 314 739 367 q 798 205 798 261 q 734 44 798 105 q 568 -17 671 -17 q 361 22 470 -17 l 361 138 q 552 83 485 83 q 642 110 612 83 q 672 190 672 136 q 652 252 672 220 q 591 319 631 284 l 460 433 q 400 502 420 467 q 380 573 380 537 q 396 646 380 606 q 446 733 413 686 l 469 767 q 497 822 488 793 q 506 884 506 851 q 475 961 506 935 q 383 987 444 987 q 293 950 323 987 q 263 837 263 912 l 263 0 l 130 0 z "},"®":{"ha":837,"x_min":117,"x_max":720,"o":"m 415 427 q 205 515 293 427 q 117 728 117 604 q 205 941 117 853 q 418 1029 294 1029 q 631 941 543 1029 q 720 728 720 853 q 631 514 720 602 q 415 427 543 427 m 416 494 q 584 562 514 494 q 653 728 653 631 q 584 893 653 824 q 418 962 515 962 q 253 893 322 962 q 184 728 184 824 q 253 563 184 633 q 416 494 321 494 m 301 552 l 301 912 l 401 912 q 502 888 468 912 q 536 815 536 863 q 518 755 536 781 q 467 711 501 729 l 551 552 l 476 552 l 399 698 l 368 698 l 368 552 l 301 552 m 368 749 l 391 749 q 447 763 429 749 q 466 807 466 778 q 449 847 466 833 q 399 860 432 860 l 368 860 l 368 749 z "},"©":{"ha":837,"x_min":42,"x_max":795,"o":"m 412 -25 q 135 108 227 -25 q 42 508 42 241 q 136 899 42 768 q 418 1029 230 1029 q 701 898 606 1029 q 795 505 795 766 q 699 107 795 239 q 412 -25 604 -25 m 414 50 q 637 163 562 50 q 711 504 711 277 q 638 841 711 728 q 418 954 565 954 q 199 840 272 954 q 125 501 125 727 q 197 163 125 275 q 414 50 269 50 m 604 244 q 444 203 520 203 q 258 286 328 203 q 189 503 189 368 q 258 724 189 644 q 451 803 328 803 q 603 776 522 803 l 603 678 q 449 722 530 722 q 329 668 369 722 q 290 509 290 615 q 337 351 290 408 q 467 293 385 293 q 604 332 524 293 l 604 244 z "},"™":{"ha":837,"x_min":0,"x_max":820,"o":"m 125 502 l 125 920 l 0 920 l 0 1004 l 499 1004 l 599 737 l 696 1004 l 820 1004 l 820 502 l 703 502 l 703 827 l 615 586 l 540 586 l 460 798 l 460 502 l 376 502 l 376 920 l 243 920 l 243 502 l 125 502 z "},"´":{"ha":837,"x_min":251,"x_max":552,"o":"m 251 870 l 401 1071 l 552 1071 l 368 870 l 251 870 z "},"¨":{"ha":837,"x_min":226,"x_max":611,"o":"m 226 870 l 226 987 l 343 987 l 343 870 l 226 870 m 494 870 l 494 987 l 611 987 l 611 870 l 494 870 z "},"≠":{"ha":837,"x_min":58,"x_max":778,"o":"m 58 427 l 58 527 l 475 527 l 571 661 l 692 661 l 599 527 l 778 527 l 778 427 l 530 427 l 436 293 l 778 293 l 778 193 l 365 193 l 272 58 l 149 58 l 241 193 l 58 193 l 58 293 l 313 293 l 407 427 l 58 427 z "},"Æ":{"ha":837,"x_min":0,"x_max":812,"o":"m 0 0 l 383 1004 l 778 1004 l 778 903 l 552 903 l 552 581 l 732 581 l 732 481 l 552 481 l 552 100 l 812 100 l 812 0 l 418 0 l 418 247 l 210 247 l 117 0 l 0 0 m 249 347 l 418 347 l 418 791 l 249 347 z "},"Ø":{"ha":837,"x_min":41,"x_max":795,"o":"m 136 127 q 41 504 41 286 q 143 888 41 747 q 419 1029 244 1029 q 644 945 543 1029 l 695 1029 l 795 1029 l 701 876 q 794 501 794 722 q 693 117 794 258 q 420 -25 592 -25 q 193 58 293 -25 l 142 -25 l 41 -25 l 136 127 m 214 252 l 580 844 q 418 928 511 928 q 242 826 300 928 q 183 520 183 724 q 214 252 183 369 m 256 160 q 416 75 326 75 q 593 177 534 75 q 652 483 652 279 q 623 750 652 631 l 256 160 z "},"∞":{"ha":837,"x_min":17,"x_max":821,"o":"m 413 273 q 315 124 368 174 q 201 75 262 75 q 71 154 125 75 q 17 342 17 233 q 73 551 17 465 q 210 636 128 636 q 380 515 307 636 l 410 465 l 426 438 q 520 587 467 537 q 636 636 572 636 q 767 558 714 636 q 821 368 821 481 q 765 160 821 244 q 627 75 709 75 q 521 117 570 75 q 429 242 471 159 l 413 273 m 358 357 l 342 385 q 273 480 307 448 q 205 512 239 512 q 141 471 162 512 q 119 347 119 429 q 143 223 119 272 q 203 174 168 174 q 273 219 235 174 q 358 357 312 265 m 479 353 l 491 330 q 560 230 526 263 q 629 197 595 197 q 693 243 669 197 q 718 363 718 288 q 696 492 718 449 q 631 535 674 535 q 558 490 596 535 q 479 353 520 444 z "},"±":{"ha":837,"x_min":58,"x_max":778,"o":"m 368 201 l 368 410 l 58 410 l 58 511 l 368 511 l 368 720 l 469 720 l 469 511 l 778 511 l 778 410 l 469 410 l 469 201 l 368 201 m 58 0 l 58 100 l 778 100 l 778 0 l 58 0 z "},"≤":{"ha":837,"x_min":58,"x_max":778,"o":"m 778 201 l 58 561 l 778 920 l 778 808 l 283 561 l 778 313 l 778 201 m 58 0 l 58 100 l 778 100 l 778 0 l 58 0 z "},"≥":{"ha":837,"x_min":59,"x_max":779,"o":"m 59 201 l 779 561 l 59 920 l 59 808 l 554 561 l 59 313 l 59 201 m 779 0 l 779 100 l 59 100 l 59 0 l 779 0 z "},"¥":{"ha":837,"x_min":34,"x_max":820,"o":"m 350 0 l 350 180 l 149 180 l 149 272 l 350 272 l 350 410 l 149 410 l 149 502 l 348 502 l 34 1004 l 194 1004 l 441 610 l 705 1004 l 820 1004 l 489 502 l 684 502 l 684 410 l 484 410 l 484 272 l 684 272 l 684 180 l 484 180 l 484 0 l 350 0 z "},"µ":{"ha":837,"x_min":121,"x_max":715,"o":"m 121 -201 l 121 736 l 255 736 l 255 268 q 280 148 255 182 q 367 113 305 113 q 478 150 424 113 q 582 261 532 186 l 582 736 l 715 736 l 715 0 l 582 0 l 590 139 l 582 139 q 478 22 532 61 q 364 -17 424 -17 q 255 15 306 -17 l 255 -201 l 121 -201 z "},"∂":{"ha":837,"x_min":117,"x_max":724,"o":"m 146 880 q 266 1036 196 984 q 427 1088 336 1088 q 646 964 568 1088 q 724 617 724 840 q 609 164 724 345 q 321 -17 494 -17 q 173 47 229 -17 q 117 218 117 112 q 234 544 117 395 q 491 692 351 692 q 621 645 548 692 l 621 665 q 554 885 621 798 q 387 973 487 973 q 260 950 320 973 q 146 880 200 926 m 621 525 q 482 595 554 595 q 318 493 393 595 q 243 269 243 391 q 276 136 243 186 q 365 86 310 86 q 531 212 458 86 q 621 525 604 337 z "},"∑":{"ha":837,"x_min":33,"x_max":826,"o":"m 33 0 l 33 117 l 431 491 l 62 903 l 62 1004 l 793 1004 l 793 903 l 241 903 l 596 509 l 180 117 l 826 117 l 826 0 l 33 0 z "},"∏":{"ha":837,"x_min":46,"x_max":791,"o":"m 113 0 l 113 903 l 46 903 l 46 1004 l 791 1004 l 791 903 l 724 903 l 724 0 l 590 0 l 590 903 l 247 903 l 247 0 l 113 0 z "},"π":{"ha":837,"x_min":38,"x_max":800,"o":"m 197 0 l 197 627 l 169 627 q 38 580 116 627 l 38 703 q 176 736 107 736 l 800 736 l 800 627 l 674 627 l 674 200 q 726 0 674 85 l 593 0 q 549 205 549 98 l 549 627 l 323 627 l 323 0 l 197 0 z "},"∫":{"ha":837,"x_min":161,"x_max":676,"o":"m 555 947 q 547 947 550 947 q 496 886 513 947 q 479 701 479 824 l 485 440 l 485 382 q 434 -66 485 68 q 267 -201 384 -201 q 192 -176 222 -201 q 161 -116 161 -151 q 181 -68 161 -89 q 226 -47 201 -47 q 271 -61 256 -47 q 286 -103 286 -75 q 283 -119 286 -108 q 293 -120 290 -120 q 342 -63 326 -120 q 359 108 359 -6 l 357 187 l 351 388 l 351 446 q 402 893 351 758 q 572 1029 454 1029 q 646 1004 616 1029 q 676 944 676 980 q 656 894 676 915 q 609 873 636 873 q 566 887 581 873 q 552 929 552 901 q 555 947 552 935 z "},"ª":{"ha":837,"x_min":161,"x_max":701,"o":"m 513 559 q 324 486 408 486 q 208 529 254 486 q 161 639 161 573 q 234 778 161 732 q 456 825 308 825 l 503 825 l 503 844 q 474 920 503 895 q 389 945 446 945 q 187 885 296 945 l 187 984 q 406 1029 289 1029 q 571 988 522 1029 q 621 852 621 948 l 621 657 q 633 598 621 618 q 670 579 645 579 q 701 587 684 579 l 701 509 q 612 486 657 486 q 551 504 576 486 q 513 559 526 522 m 503 636 l 503 741 l 469 741 q 324 717 372 741 q 276 646 276 693 q 353 575 276 575 q 503 636 432 575 z "},"º":{"ha":837,"x_min":151,"x_max":686,"o":"m 414 486 q 220 557 289 486 q 151 758 151 628 q 220 958 151 888 q 418 1029 290 1029 q 616 958 547 1029 q 686 758 686 888 q 618 554 686 622 q 414 486 550 486 m 416 569 q 524 615 488 569 q 560 754 560 661 q 525 898 560 850 q 418 945 489 945 q 312 897 347 945 q 276 753 276 849 q 311 615 276 661 q 416 569 346 569 z "},"Ω":{"ha":837,"x_min":33,"x_max":803,"o":"m 376 100 l 376 0 l 33 0 l 33 100 l 253 100 q 94 348 147 225 q 41 590 41 470 q 150 903 41 777 q 418 1029 258 1029 q 686 903 578 1029 q 795 590 795 777 q 742 348 795 470 q 583 100 689 225 l 803 100 l 803 0 l 460 0 l 460 100 q 603 310 555 193 q 650 568 650 427 q 588 832 650 736 q 418 928 526 928 q 248 832 310 928 q 186 568 186 736 q 233 310 186 427 q 376 100 281 193 z "},"æ":{"ha":837,"x_min":33,"x_max":817,"o":"m 402 85 q 319 8 362 34 q 229 -17 275 -17 q 89 43 144 -17 q 33 195 33 103 q 113 371 33 300 q 309 442 192 442 l 350 442 l 350 521 q 323 620 350 587 q 243 652 296 652 q 96 616 180 652 l 96 718 q 280 753 189 753 q 379 732 338 753 q 446 672 421 712 q 595 753 510 753 q 761 664 706 753 q 817 396 817 574 l 817 350 l 484 350 l 485 315 q 523 146 485 203 q 637 90 561 90 q 812 134 713 90 l 812 28 q 602 -17 672 -17 q 487 8 537 -17 q 402 85 437 34 m 350 153 l 350 359 l 321 359 q 211 317 255 359 q 167 211 167 275 q 191 125 167 154 q 262 97 214 97 q 309 111 287 97 q 350 153 331 125 m 484 442 l 674 442 l 674 474 q 653 608 674 563 q 590 652 632 652 q 521 607 547 652 q 487 473 495 562 l 484 442 z "},"ø":{"ha":837,"x_min":71,"x_max":766,"o":"m 545 602 q 417 652 490 652 q 264 578 315 652 q 214 357 214 505 q 242 207 214 279 l 545 602 m 71 -17 l 156 94 q 71 369 71 203 q 164 650 71 547 q 415 753 256 753 q 617 697 533 753 l 661 753 l 766 753 l 680 641 q 766 371 766 536 q 673 86 766 190 q 420 -17 581 -17 q 218 38 301 -17 l 176 -17 l 71 -17 m 291 133 q 420 83 341 83 q 573 158 522 83 q 624 382 624 233 q 595 530 624 460 l 291 133 z "},"¿":{"ha":837,"x_min":100,"x_max":726,"o":"m 385 586 l 385 736 l 553 736 l 553 586 l 385 586 m 536 452 l 536 441 q 498 288 536 360 q 386 154 460 216 l 338 115 q 241 -44 241 33 q 298 -149 241 -114 q 469 -184 355 -184 q 625 -164 545 -184 l 625 -49 l 726 -49 l 726 -245 q 446 -284 588 -284 q 187 -229 273 -284 q 100 -63 100 -174 q 230 158 100 52 l 298 212 q 376 304 350 254 q 402 412 402 355 l 402 452 l 536 452 z "},"¡":{"ha":837,"x_min":334,"x_max":502,"o":"m 468 452 l 485 -67 l 485 -268 l 351 -268 l 351 -67 l 368 452 l 468 452 m 334 586 l 334 736 l 502 736 l 502 586 l 334 586 z "},"¬":{"ha":837,"x_min":58,"x_max":778,"o":"m 58 435 l 58 536 l 778 536 l 778 201 l 677 201 l 677 435 l 58 435 z "},"√":{"ha":837,"x_min":0,"x_max":837,"o":"m 43 220 l 0 292 l 186 402 l 387 -26 l 732 1096 l 837 1096 l 439 -201 l 357 -201 l 135 274 l 43 220 z "},"ƒ":{"ha":837,"x_min":155,"x_max":777,"o":"m 155 -201 l 290 486 l 157 486 l 157 586 l 307 586 l 322 645 q 384 848 357 787 q 458 954 411 909 q 654 1029 538 1029 q 777 1013 702 1029 l 755 909 q 645 928 692 928 q 532 880 570 928 q 467 701 494 832 l 444 586 l 628 586 l 628 486 l 427 486 l 291 -201 l 155 -201 z "},"≈":{"ha":837,"x_min":58,"x_max":778,"o":"m 58 123 q 110 285 58 222 q 243 347 161 347 q 385 302 307 347 l 485 247 q 602 204 561 204 q 662 234 641 204 q 686 324 683 264 l 778 324 q 727 162 778 224 q 593 100 675 100 q 451 144 529 100 l 351 201 q 234 243 275 243 q 174 213 195 243 q 151 123 153 183 l 58 123 m 58 395 q 110 557 58 495 q 243 619 161 619 q 385 575 307 619 l 485 519 q 602 476 561 476 q 662 506 641 476 q 686 596 683 536 l 778 596 q 727 435 778 497 q 593 372 675 372 q 451 417 530 372 l 351 473 q 234 515 275 515 q 174 485 195 515 q 151 395 153 455 l 58 395 z "},"∆":{"ha":837,"x_min":21,"x_max":816,"o":"m 21 0 l 21 117 l 351 1004 l 484 1004 l 816 117 l 816 0 l 21 0 m 136 117 l 673 117 l 404 844 l 136 117 z "},"«":{"ha":837,"x_min":79,"x_max":742,"o":"m 380 673 l 445 618 l 231 364 l 444 113 l 382 58 l 79 364 l 380 673 m 677 673 l 742 618 l 528 364 l 741 113 l 679 58 l 376 364 l 677 673 z "},"»":{"ha":837,"x_min":95,"x_max":758,"o":"m 457 673 l 392 618 l 606 364 l 393 113 l 455 58 l 758 364 l 457 673 m 160 673 l 95 618 l 309 364 l 96 113 l 158 58 l 460 364 l 160 673 z "},"…":{"ha":837,"x_min":73,"x_max":764,"o":"m 73 0 l 73 134 l 206 134 l 206 0 l 73 0 m 351 0 l 351 134 l 486 134 l 486 0 l 351 0 m 630 0 l 630 134 l 764 134 l 764 0 l 630 0 z "}," ":{"ha":837,"x_min":0,"x_max":0,"o":""},"À":{"ha":837,"x_min":8,"x_max":828,"o":"m 8 0 l 351 1004 l 485 1004 l 828 0 l 686 0 l 589 284 l 220 284 l 123 0 l 8 0 m 254 385 l 555 385 l 405 825 l 254 385 m 435 1088 l 251 1289 l 401 1289 l 552 1088 l 435 1088 z "},"Ã":{"ha":837,"x_min":8,"x_max":828,"o":"m 8 0 l 351 1004 l 485 1004 l 828 0 l 686 0 l 589 284 l 220 284 l 123 0 l 8 0 m 254 385 l 555 385 l 405 825 l 254 385 m 644 1246 q 604 1127 635 1167 q 519 1088 573 1088 q 443 1101 477 1088 l 368 1133 q 326 1143 341 1143 q 295 1129 308 1143 q 275 1088 283 1116 l 192 1088 q 231 1207 200 1167 q 317 1246 262 1246 q 393 1233 359 1246 l 468 1202 q 510 1192 494 1192 q 539 1205 527 1192 q 560 1246 552 1219 l 644 1246 z "},"Õ":{"ha":837,"x_min":42,"x_max":795,"o":"m 413 -25 q 142 118 243 -25 q 42 502 42 260 q 143 887 42 746 q 418 1029 244 1029 q 693 887 592 1029 q 795 505 795 746 q 693 116 795 256 q 413 -25 592 -25 m 415 75 q 593 183 534 75 q 653 505 653 290 q 594 823 653 717 q 418 928 536 928 q 243 822 301 928 q 184 503 184 715 q 242 182 184 289 q 415 75 300 75 m 644 1246 q 605 1127 636 1167 q 519 1088 574 1088 q 444 1101 477 1088 l 368 1133 q 326 1143 342 1143 q 296 1129 309 1143 q 276 1088 283 1116 l 193 1088 q 232 1207 201 1167 q 318 1246 263 1246 q 393 1233 359 1246 l 469 1202 q 511 1192 495 1192 q 540 1205 528 1192 q 561 1246 553 1219 l 644 1246 z "},"Œ":{"ha":837,"x_min":50,"x_max":825,"o":"m 427 0 q 315 -25 367 -25 q 111 100 172 -25 q 50 515 50 224 q 113 909 50 789 q 319 1029 176 1029 q 426 1004 373 1029 l 787 1004 l 787 903 l 559 903 l 559 579 l 743 579 l 743 479 l 559 479 l 559 100 l 825 100 l 825 0 l 427 0 m 425 265 l 425 747 q 406 895 425 857 q 330 933 386 933 q 222 840 251 933 q 193 499 193 747 q 222 164 193 257 q 330 71 252 71 q 406 110 387 71 q 425 265 425 149 z "},"œ":{"ha":837,"x_min":33,"x_max":819,"o":"m 427 83 q 361 8 400 33 q 270 -17 321 -17 q 98 86 162 -17 q 33 363 33 190 q 98 649 33 545 q 277 753 163 753 q 366 725 326 753 q 435 643 405 698 q 511 725 469 698 q 602 753 553 753 q 765 661 711 753 q 819 386 819 569 l 819 349 l 505 349 l 505 325 q 543 146 505 205 q 659 86 582 86 q 817 139 720 86 l 817 29 q 620 -17 702 -17 q 510 8 558 -17 q 427 83 462 33 m 272 84 q 346 150 321 81 q 371 359 371 219 q 346 579 371 506 q 272 652 321 652 q 200 581 224 652 q 176 368 176 510 q 200 157 176 229 q 272 84 224 86 m 505 441 l 677 441 l 677 473 q 658 607 677 562 q 601 652 639 652 q 530 609 553 652 q 506 478 506 565 l 505 441 z "},"–":{"ha":837,"x_min":92,"x_max":745,"o":"m 92 368 l 92 452 l 745 452 l 745 368 l 92 368 z "},"—":{"ha":837,"x_min":42,"x_max":795,"o":"m 42 368 l 42 452 l 795 452 l 795 368 l 42 368 z "},"“":{"ha":837,"x_min":168,"x_max":669,"o":"m 168 703 l 168 853 q 209 1016 168 962 q 335 1071 251 1071 l 335 1004 q 281 979 299 1004 q 264 905 264 954 l 264 870 l 335 870 l 335 703 l 168 703 m 502 703 l 502 853 q 544 1016 502 962 q 669 1071 585 1071 l 669 1004 q 616 979 633 1004 q 598 905 598 954 l 598 870 l 669 870 l 669 703 l 502 703 z "},"”":{"ha":837,"x_min":168,"x_max":669,"o":"m 335 1071 l 335 920 q 293 757 335 811 q 168 703 251 703 l 168 770 q 221 794 203 770 q 239 868 239 819 l 239 903 l 168 903 l 168 1071 l 335 1071 m 669 1071 l 669 920 q 627 757 669 811 q 502 703 585 703 l 502 770 q 555 794 537 770 q 573 868 573 819 l 573 903 l 502 903 l 502 1071 l 669 1071 z "},"‘":{"ha":837,"x_min":318,"x_max":519,"o":"m 519 1071 l 519 1004 q 460 961 481 999 q 435 853 439 924 l 519 853 l 519 652 l 318 652 l 318 774 q 368 991 318 917 q 519 1071 418 1065 z "},"’":{"ha":837,"x_min":318,"x_max":519,"o":"m 318 652 l 318 720 q 376 762 355 724 q 401 870 397 800 l 318 870 l 318 1071 l 519 1071 l 519 949 q 469 732 519 806 q 318 652 418 658 z "},"÷":{"ha":837,"x_min":58,"x_max":778,"o":"m 342 0 l 342 151 l 494 151 l 494 0 l 342 0 m 58 309 l 58 410 l 778 410 l 778 309 l 58 309 m 342 569 l 342 720 l 494 720 l 494 569 l 342 569 z "},"◊":{"ha":837,"x_min":33,"x_max":803,"o":"m 418 -17 l 33 368 l 418 753 l 803 368 l 418 -17 m 418 125 l 661 368 l 418 611 l 175 368 l 418 125 z "},"ÿ":{"ha":837,"x_min":58,"x_max":800,"o":"m 96 -268 l 96 -168 l 151 -168 q 261 -143 227 -168 q 334 -38 296 -119 l 367 33 l 58 736 l 196 736 l 437 185 l 680 736 l 800 736 l 429 -94 q 325 -230 385 -191 q 153 -268 264 -268 l 96 -268 m 244 870 l 244 987 l 361 987 l 361 870 l 244 870 m 512 870 l 512 987 l 629 987 l 629 870 l 512 870 z "},"Ÿ":{"ha":837,"x_min":22,"x_max":832,"o":"m 352 0 l 352 423 l 22 1004 l 176 1004 l 434 549 l 705 1004 l 832 1004 l 486 423 l 486 0 l 352 0 m 235 1088 l 235 1205 l 352 1205 l 352 1088 l 235 1088 m 503 1088 l 503 1205 l 620 1205 l 620 1088 l 503 1088 z "},"∕":{"ha":837,"x_min":109,"x_max":729,"o":"m 109 -25 l 635 1029 l 729 1029 l 202 -25 l 109 -25 z "},"¤":{"ha":837,"x_min":75,"x_max":762,"o":"m 261 287 l 136 160 l 75 221 l 202 347 q 157 503 157 420 q 202 660 157 586 l 75 786 l 136 846 l 261 720 q 418 772 344 772 q 576 720 494 772 l 702 846 l 762 786 l 635 660 q 680 503 680 586 q 635 347 680 420 l 762 221 l 702 160 l 576 287 q 418 234 494 234 q 261 287 344 234 m 416 334 q 532 384 484 334 q 580 504 580 433 q 532 623 580 573 q 418 672 485 672 q 305 623 353 672 q 258 503 258 573 q 305 385 258 435 q 416 334 352 334 z "},"‹":{"ha":837,"x_min":235,"x_max":601,"o":"m 536 673 l 601 618 l 387 364 l 600 113 l 538 58 l 235 364 l 536 673 z "},"›":{"ha":837,"x_min":235,"x_max":601,"o":"m 300 673 l 235 618 l 449 364 l 237 113 l 298 58 l 601 364 l 300 673 z "},"":{"ha":837,"x_min":83,"x_max":711,"o":"m 176 0 l 176 619 l 83 619 l 83 720 l 176 720 l 176 840 q 233 1026 176 964 q 406 1088 290 1088 q 502 1078 444 1088 l 502 970 q 405 987 441 987 q 333 955 357 987 q 309 857 309 922 l 309 720 l 711 720 l 711 0 l 577 0 l 577 619 l 309 619 l 309 0 l 176 0 m 577 870 l 577 1004 l 711 1004 l 711 870 l 577 870 z "},"":{"ha":837,"x_min":83,"x_max":711,"o":"m 176 0 l 176 619 l 83 619 l 83 720 l 176 720 l 176 817 q 239 1020 176 952 q 429 1088 302 1088 q 573 1071 493 1088 l 711 1071 l 711 0 l 577 0 l 577 962 q 420 987 498 987 q 337 952 365 987 q 309 847 309 917 l 309 720 l 460 720 l 460 619 l 309 619 l 309 0 l 176 0 z "},"‡":{"ha":837,"x_min":134,"x_max":703,"o":"m 351 -201 l 368 168 l 134 151 l 134 251 l 368 234 l 368 569 l 134 552 l 134 652 l 368 636 l 351 1004 l 485 1004 l 468 636 l 703 652 l 703 552 l 468 569 l 468 234 l 703 251 l 703 151 l 468 168 l 485 -201 l 351 -201 z "},"∙":{"ha":837,"x_min":180,"x_max":657,"o":"m 180 405 q 250 571 180 501 q 418 640 321 640 q 587 570 517 640 q 657 401 657 500 q 587 233 657 303 q 419 163 517 163 q 249 233 319 163 q 180 405 180 303 z "},"‚":{"ha":837,"x_min":318,"x_max":519,"o":"m 318 -218 l 318 -151 q 376 -108 355 -146 q 401 0 397 -71 l 318 0 l 318 201 l 519 201 l 519 79 q 469 -138 519 -64 q 318 -218 418 -212 z "},"„":{"ha":837,"x_min":168,"x_max":669,"o":"m 335 168 l 335 17 q 293 -146 335 -92 q 168 -201 251 -201 l 168 -134 q 221 -109 203 -134 q 239 -35 239 -84 l 239 0 l 168 0 l 168 168 l 335 168 m 669 168 l 669 17 q 627 -146 669 -92 q 502 -201 585 -201 l 502 -134 q 555 -109 537 -134 q 573 -35 573 -84 l 573 0 l 502 0 l 502 168 l 669 168 z "},"‰":{"ha":837,"x_min":0,"x_max":837,"o":"m 0 -25 l 454 1029 l 545 1029 l 91 -25 l 0 -25 m 139 569 q 43 623 75 569 q 11 787 11 677 q 43 949 11 895 q 140 1004 75 1004 q 238 950 205 1004 q 271 788 271 896 q 238 624 271 678 q 139 569 205 569 m 140 636 q 175 673 163 635 q 186 788 186 711 q 175 900 186 863 q 140 937 163 937 q 106 900 117 937 q 95 787 95 862 q 106 674 95 712 q 140 636 117 637 m 404 0 q 308 54 340 0 q 276 218 276 109 q 308 381 276 326 q 406 435 340 435 q 503 381 471 435 q 536 219 536 327 q 503 55 536 109 q 404 0 470 0 m 405 67 q 440 104 428 66 q 452 219 452 142 q 440 331 452 294 q 406 368 429 368 q 371 331 382 368 q 359 218 359 293 q 371 105 359 143 q 405 67 382 68 m 705 0 q 609 54 641 0 q 577 218 577 109 q 609 381 577 326 q 707 435 642 435 q 804 381 772 435 q 837 219 837 327 q 804 55 837 109 q 705 0 771 0 m 706 67 q 741 104 729 66 q 753 219 753 142 q 741 331 753 294 q 707 368 730 368 q 672 331 684 368 q 661 218 661 293 q 672 105 661 143 q 706 67 684 68 z "},"Â":{"ha":837,"x_min":8,"x_max":828,"o":"m 8 0 l 351 1004 l 485 1004 l 828 0 l 686 0 l 589 284 l 220 284 l 123 0 l 8 0 m 254 385 l 555 385 l 405 825 l 254 385 m 493 1289 l 644 1088 l 526 1088 l 418 1213 l 309 1088 l 192 1088 l 342 1289 l 493 1289 z "},"Ê":{"ha":837,"x_min":146,"x_max":766,"o":"m 146 0 l 146 1004 l 734 1004 l 734 903 l 280 903 l 280 581 l 665 581 l 665 481 l 280 481 l 280 100 l 766 100 l 766 0 l 146 0 m 531 1289 l 682 1088 l 564 1088 l 456 1213 l 347 1088 l 230 1088 l 380 1289 l 531 1289 z "},"Á":{"ha":837,"x_min":8,"x_max":828,"o":"m 8 0 l 351 1004 l 485 1004 l 828 0 l 686 0 l 589 284 l 220 284 l 123 0 l 8 0 m 254 385 l 555 385 l 405 825 l 254 385 m 284 1088 l 435 1289 l 585 1289 l 401 1088 l 284 1088 z "},"Ë":{"ha":837,"x_min":146,"x_max":766,"o":"m 146 0 l 146 1004 l 734 1004 l 734 903 l 280 903 l 280 581 l 665 581 l 665 481 l 280 481 l 280 100 l 766 100 l 766 0 l 146 0 m 264 1088 l 264 1205 l 381 1205 l 381 1088 l 264 1088 m 532 1088 l 532 1205 l 649 1205 l 649 1088 l 532 1088 z "},"È":{"ha":837,"x_min":146,"x_max":766,"o":"m 146 0 l 146 1004 l 734 1004 l 734 903 l 280 903 l 280 581 l 665 581 l 665 481 l 280 481 l 280 100 l 766 100 l 766 0 l 146 0 m 464 1088 l 280 1289 l 431 1289 l 581 1088 l 464 1088 z "},"Í":{"ha":837,"x_min":117,"x_max":720,"o":"m 117 0 l 117 100 l 351 100 l 351 903 l 117 903 l 117 1004 l 720 1004 l 720 903 l 486 903 l 486 100 l 720 100 l 720 0 l 117 0 m 293 1088 l 444 1289 l 594 1289 l 410 1088 l 293 1088 z "},"Î":{"ha":837,"x_min":117,"x_max":720,"o":"m 117 0 l 117 100 l 351 100 l 351 903 l 117 903 l 117 1004 l 720 1004 l 720 903 l 486 903 l 486 100 l 720 100 l 720 0 l 117 0 m 494 1289 l 644 1088 l 527 1088 l 418 1213 l 309 1088 l 193 1088 l 343 1289 l 494 1289 z "},"Ï":{"ha":837,"x_min":117,"x_max":720,"o":"m 117 0 l 117 100 l 351 100 l 351 903 l 117 903 l 117 1004 l 720 1004 l 720 903 l 486 903 l 486 100 l 720 100 l 720 0 l 117 0 m 226 1088 l 226 1205 l 343 1205 l 343 1088 l 226 1088 m 494 1088 l 494 1205 l 611 1205 l 611 1088 l 494 1088 z "},"Ì":{"ha":837,"x_min":117,"x_max":720,"o":"m 117 0 l 117 100 l 351 100 l 351 903 l 117 903 l 117 1004 l 720 1004 l 720 903 l 486 903 l 486 100 l 720 100 l 720 0 l 117 0 m 427 1088 l 243 1289 l 393 1289 l 544 1088 l 427 1088 z "},"Ó":{"ha":837,"x_min":42,"x_max":795,"o":"m 413 -25 q 142 118 243 -25 q 42 502 42 260 q 143 887 42 746 q 418 1029 244 1029 q 693 887 592 1029 q 795 505 795 746 q 693 116 795 256 q 413 -25 592 -25 m 415 75 q 593 183 534 75 q 653 505 653 290 q 594 823 653 717 q 418 928 536 928 q 243 822 301 928 q 184 503 184 715 q 242 182 184 289 q 415 75 300 75 m 293 1088 l 444 1289 l 594 1289 l 410 1088 l 293 1088 z "},"Ô":{"ha":837,"x_min":42,"x_max":795,"o":"m 413 -25 q 142 118 243 -25 q 42 502 42 260 q 143 887 42 746 q 418 1029 244 1029 q 693 887 592 1029 q 795 505 795 746 q 693 116 795 256 q 413 -25 592 -25 m 415 75 q 593 183 534 75 q 653 505 653 290 q 594 823 653 717 q 418 928 536 928 q 243 822 301 928 q 184 503 184 715 q 242 182 184 289 q 415 75 300 75 m 494 1289 l 644 1088 l 527 1088 l 418 1213 l 309 1088 l 193 1088 l 343 1289 l 494 1289 z "},"":{"ha":837,"x_min":0,"x_max":0,"o":""},"Ò":{"ha":837,"x_min":42,"x_max":795,"o":"m 413 -25 q 142 118 243 -25 q 42 502 42 260 q 143 887 42 746 q 418 1029 244 1029 q 693 887 592 1029 q 795 505 795 746 q 693 116 795 256 q 413 -25 592 -25 m 415 75 q 593 183 534 75 q 653 505 653 290 q 594 823 653 717 q 418 928 536 928 q 243 822 301 928 q 184 503 184 715 q 242 182 184 289 q 415 75 300 75 m 427 1088 l 243 1289 l 393 1289 l 544 1088 l 427 1088 z "},"Ú":{"ha":837,"x_min":104,"x_max":733,"o":"m 104 1004 l 237 1004 l 237 338 q 281 137 237 199 q 423 75 325 75 q 571 137 526 75 q 616 341 616 199 l 616 1004 l 733 1004 l 733 361 q 694 126 733 197 q 422 -25 612 -25 q 183 66 263 -25 q 104 340 104 157 l 104 1004 m 293 1088 l 444 1289 l 594 1289 l 410 1088 l 293 1088 z "},"Û":{"ha":837,"x_min":104,"x_max":733,"o":"m 104 1004 l 237 1004 l 237 338 q 281 137 237 199 q 423 75 325 75 q 571 137 526 75 q 616 341 616 199 l 616 1004 l 733 1004 l 733 361 q 694 126 733 197 q 422 -25 612 -25 q 183 66 263 -25 q 104 340 104 157 l 104 1004 m 494 1289 l 644 1088 l 527 1088 l 418 1213 l 309 1088 l 193 1088 l 343 1289 l 494 1289 z "},"Ù":{"ha":837,"x_min":104,"x_max":733,"o":"m 104 1004 l 237 1004 l 237 338 q 281 137 237 199 q 423 75 325 75 q 571 137 526 75 q 616 341 616 199 l 616 1004 l 733 1004 l 733 361 q 694 126 733 197 q 422 -25 612 -25 q 183 66 263 -25 q 104 340 104 157 l 104 1004 m 427 1088 l 243 1289 l 393 1289 l 544 1088 l 427 1088 z "},"ı":{"ha":837,"x_min":117,"x_max":519,"o":"m 385 0 l 385 636 l 117 636 l 117 736 l 519 736 l 519 0 l 385 0 z "},"ˆ":{"ha":837,"x_min":193,"x_max":644,"o":"m 494 1071 l 644 870 l 527 870 l 418 996 l 309 870 l 193 870 l 343 1071 l 494 1071 z "},"˜":{"ha":837,"x_min":193,"x_max":644,"o":"m 644 1029 q 605 910 636 949 q 519 870 574 870 q 444 884 477 870 l 368 915 q 326 926 342 926 q 296 912 309 926 q 276 870 283 898 l 193 870 q 232 989 201 949 q 318 1029 263 1029 q 393 1015 359 1029 l 469 985 q 511 974 495 974 q 540 987 528 974 q 561 1029 553 1001 l 644 1029 z "},"ˉ":{"ha":837,"x_min":226,"x_max":611,"o":"m 226 870 l 226 970 l 611 970 l 611 870 l 226 870 z "},"˘":{"ha":837,"x_min":193,"x_max":644,"o":"m 193 1071 l 276 1071 q 321 992 286 1019 q 418 966 357 966 q 515 992 479 966 q 561 1071 551 1019 l 644 1071 q 574 920 631 970 q 418 870 517 870 q 262 920 319 870 q 193 1071 206 970 z "},"˙":{"ha":837,"x_min":351,"x_max":486,"o":"m 351 870 l 351 1004 l 486 1004 l 486 870 l 351 870 z "},"˚":{"ha":837,"x_min":264,"x_max":572,"o":"m 416 870 q 309 915 354 870 q 264 1024 264 960 q 310 1133 264 1088 q 418 1178 355 1178 q 528 1133 483 1178 q 572 1024 572 1088 q 527 915 572 959 q 416 870 482 870 m 417 928 q 486 956 458 928 q 514 1025 514 984 q 486 1092 514 1064 q 418 1120 458 1120 q 351 1092 379 1120 q 323 1024 323 1064 q 351 957 323 985 q 417 928 378 928 z "},"¸":{"ha":837,"x_min":336,"x_max":570,"o":"m 414 0 l 480 0 l 439 -74 q 531 -106 492 -74 q 570 -182 570 -138 q 531 -261 570 -230 q 433 -293 492 -293 q 336 -279 386 -293 l 336 -224 q 407 -234 367 -234 q 459 -221 441 -234 q 477 -184 477 -209 q 445 -135 477 -151 q 350 -119 413 -119 l 414 0 z "},"˝":{"ha":837,"x_min":238,"x_max":700,"o":"m 238 870 l 384 1071 l 489 1071 l 320 870 l 238 870 m 448 870 l 594 1071 l 700 1071 l 530 870 l 448 870 z "},"˛":{"ha":837,"x_min":302,"x_max":534,"o":"m 410 0 l 482 0 q 416 -56 438 -26 q 395 -122 395 -87 q 414 -170 395 -154 q 473 -186 433 -186 q 534 -176 511 -186 l 534 -231 q 441 -251 494 -251 q 337 -224 372 -251 q 302 -142 302 -197 q 329 -64 302 -100 q 410 0 356 -28 z "},"ˇ":{"ha":837,"x_min":193,"x_max":644,"o":"m 343 870 l 193 1071 l 309 1071 l 418 945 l 527 1071 l 644 1071 l 494 870 l 343 870 z "},"Ł":{"ha":837,"x_min":0,"x_max":753,"o":"m 151 0 l 151 434 l 0 347 l 0 463 l 151 550 l 151 1004 l 284 1004 l 285 627 l 502 753 l 502 637 l 284 511 l 284 100 l 753 100 l 753 0 l 151 0 z "},"ł":{"ha":837,"x_min":117,"x_max":703,"o":"m 401 0 l 401 463 l 235 366 l 235 483 l 401 579 l 401 970 l 117 970 l 117 1071 l 536 1071 l 536 656 l 703 753 l 703 637 l 536 541 l 536 0 l 401 0 z "},"Š":{"ha":837,"x_min":111,"x_max":758,"o":"m 111 23 l 111 155 q 414 75 288 75 q 565 124 507 75 q 623 250 623 172 q 504 408 623 346 l 309 510 q 118 768 118 610 q 200 959 118 889 q 423 1029 281 1029 q 685 988 538 1029 l 685 872 q 426 928 538 928 q 289 893 334 928 q 243 789 243 859 q 377 627 243 696 l 559 533 q 758 271 758 430 q 661 55 758 136 q 400 -25 564 -25 q 111 23 290 -25 m 376 1088 l 225 1289 l 342 1289 l 451 1163 l 559 1289 l 677 1289 l 526 1088 l 376 1088 z "},"š":{"ha":837,"x_min":127,"x_max":715,"o":"m 127 30 l 127 151 q 395 83 282 83 q 530 116 476 83 q 583 199 583 149 q 456 304 583 264 l 313 351 q 146 543 146 406 q 222 698 146 644 q 437 753 298 753 q 676 721 539 753 l 676 612 q 436 652 544 652 q 314 628 355 652 q 274 555 274 604 q 374 465 274 500 l 543 406 q 715 212 715 346 q 629 45 715 107 q 397 -17 543 -17 q 127 30 271 -17 m 366 870 l 216 1071 l 332 1071 l 441 945 l 550 1071 l 667 1071 l 517 870 l 366 870 z "},"Ž":{"ha":837,"x_min":67,"x_max":770,"o":"m 67 0 l 67 100 l 613 903 l 100 903 l 100 1004 l 764 1004 l 764 903 l 219 100 l 770 100 l 770 0 l 67 0 m 360 1088 l 210 1289 l 326 1289 l 435 1163 l 544 1289 l 661 1289 l 511 1088 l 360 1088 z "},"ž":{"ha":837,"x_min":92,"x_max":745,"o":"m 92 0 l 92 100 l 574 636 l 109 636 l 109 736 l 732 736 l 732 636 l 250 100 l 745 100 l 745 0 l 92 0 m 368 870 l 218 1071 l 334 1071 l 444 945 l 552 1071 l 669 1071 l 519 870 l 368 870 z "},"¦":{"ha":837,"x_min":368,"x_max":469,"o":"m 368 -201 l 368 301 l 469 301 l 469 -201 l 368 -201 m 368 569 l 368 1071 l 469 1071 l 469 569 l 368 569 z "},"Ð":{"ha":837,"x_min":21,"x_max":785,"o":"m 88 0 l 88 477 l 21 477 l 21 577 l 88 577 l 88 1004 l 351 1004 q 676 882 568 1004 q 785 518 785 761 q 667 130 785 259 q 315 0 549 0 l 88 0 m 222 100 l 289 100 q 560 195 478 100 q 642 509 642 290 q 534 844 642 748 q 283 904 466 904 l 222 903 l 222 577 l 389 577 l 389 477 l 222 477 l 222 100 z "},"ð":{"ha":837,"x_min":76,"x_max":763,"o":"m 505 724 q 378 864 467 791 l 214 754 l 159 836 l 286 924 q 77 970 197 964 l 77 1071 l 92 1071 q 393 995 262 1071 l 508 1071 l 566 989 l 481 934 q 692 692 622 828 q 763 391 763 557 q 669 95 763 207 q 419 -17 574 -17 q 171 88 265 -17 q 76 365 76 193 q 170 634 76 530 q 413 738 263 738 q 505 724 455 738 m 420 83 q 573 160 517 83 q 628 372 628 237 q 425 640 628 640 q 273 566 328 640 q 218 364 218 493 q 273 160 218 236 q 420 83 328 83 z "},"Ý":{"ha":837,"x_min":22,"x_max":832,"o":"m 352 0 l 352 423 l 22 1004 l 176 1004 l 434 549 l 705 1004 l 832 1004 l 486 423 l 486 0 l 352 0 m 309 1088 l 459 1289 l 610 1289 l 426 1088 l 309 1088 z "},"ý":{"ha":837,"x_min":58,"x_max":800,"o":"m 96 -268 l 96 -168 l 151 -168 q 261 -143 227 -168 q 334 -38 296 -119 l 367 33 l 58 736 l 196 736 l 437 185 l 680 736 l 800 736 l 429 -94 q 325 -230 385 -191 q 153 -268 264 -268 l 96 -268 m 311 870 l 462 1071 l 612 1071 l 429 870 l 311 870 z "},"Þ":{"ha":837,"x_min":155,"x_max":785,"o":"m 155 0 l 155 1004 l 288 1004 l 288 820 l 437 820 q 704 757 623 820 q 785 550 785 694 q 679 306 785 394 q 386 218 573 218 l 288 218 l 288 0 l 155 0 m 288 318 l 372 318 q 574 376 507 318 q 642 551 642 434 q 587 677 642 635 q 421 720 532 720 l 288 720 l 288 318 z "},"þ":{"ha":837,"x_min":121,"x_max":766,"o":"m 121 -268 l 121 1071 l 255 1071 l 255 736 l 247 598 l 255 598 q 363 714 303 675 q 496 753 424 753 q 693 656 621 753 q 766 393 766 559 q 680 96 766 210 q 456 -17 595 -17 q 347 8 397 -17 q 255 83 296 33 l 247 83 l 255 -17 l 255 -268 l 121 -268 m 255 184 q 347 109 301 134 q 438 83 393 83 q 575 161 526 83 q 623 378 623 239 q 585 574 623 509 q 469 639 546 639 q 358 604 412 639 q 255 498 304 568 l 255 184 z "},"−":{"ha":837,"x_min":58,"x_max":778,"o":"m 58 309 l 58 410 l 778 410 l 778 309 l 58 309 z "},"×":{"ha":837,"x_min":52,"x_max":785,"o":"m 52 71 l 347 367 l 52 663 l 122 734 l 418 438 l 714 734 l 785 663 l 489 367 l 785 71 l 714 0 l 418 296 l 122 0 l 52 71 z "},"¹":{"ha":837,"x_min":243,"x_max":627,"o":"m 243 502 l 243 579 l 376 579 l 376 920 l 251 889 l 251 968 l 494 1029 l 494 579 l 627 579 l 627 502 l 243 502 z "},"²":{"ha":837,"x_min":205,"x_max":656,"o":"m 205 502 l 205 597 q 354 726 250 663 l 404 756 q 501 823 481 803 q 521 873 521 842 q 490 927 521 909 q 398 945 459 945 q 205 897 304 945 l 205 990 q 420 1029 310 1029 q 589 991 532 1029 q 645 878 645 954 q 613 788 645 823 q 479 700 581 753 l 427 672 q 328 594 355 634 l 656 594 l 656 502 l 205 502 z "},"³":{"ha":837,"x_min":212,"x_max":646,"o":"m 212 514 l 212 608 q 404 569 342 569 q 491 587 462 569 q 520 641 520 605 q 472 704 520 683 q 328 725 424 725 l 288 725 l 288 808 l 329 808 q 472 828 425 808 q 520 888 520 848 q 496 931 520 917 q 425 945 473 945 q 212 897 340 945 l 212 989 q 440 1029 322 1029 q 591 998 541 1029 q 642 904 642 966 q 608 827 642 860 q 509 770 575 793 q 612 718 578 751 q 646 637 646 684 q 585 526 646 566 q 416 486 524 486 q 212 514 332 486 z "},"½":{"ha":837,"x_min":16,"x_max":819,"o":"m 107 502 l 107 920 l 16 897 l 16 977 l 224 1029 l 224 502 l 107 502 m 41 -25 l 568 1029 l 661 1029 l 134 -25 l 41 -25 m 450 0 l 450 94 q 603 267 501 187 l 632 290 q 684 373 684 331 q 662 426 684 408 q 595 444 640 444 q 450 406 528 444 l 450 497 q 607 528 537 528 q 752 487 696 528 q 807 380 807 446 q 779 298 807 337 q 696 222 751 258 l 659 197 l 633 179 q 561 92 583 144 l 819 92 l 819 0 l 450 0 z "},"¼":{"ha":837,"x_min":8,"x_max":820,"o":"m 100 502 l 100 920 l 8 897 l 8 977 l 218 1029 l 218 502 l 100 502 m 58 -25 l 586 1029 l 680 1029 l 152 -25 l 58 -25 m 619 0 l 619 134 l 368 134 l 368 234 l 606 519 l 736 519 l 736 218 l 820 218 l 820 134 l 736 134 l 736 0 l 619 0 m 456 218 l 619 218 l 619 405 l 456 218 z "},"¾":{"ha":837,"x_min":40,"x_max":831,"o":"m 631 0 l 631 134 l 380 134 l 380 239 l 617 519 l 748 519 l 748 218 l 831 218 l 831 134 l 748 134 l 748 0 l 631 0 m 467 218 l 631 218 l 631 404 l 467 218 m 117 -25 l 644 1029 l 737 1029 l 210 -25 l 117 -25 m 40 593 q 164 568 121 568 q 230 585 208 568 q 252 637 252 602 q 212 705 252 682 q 94 728 173 728 l 94 810 l 113 810 q 218 830 183 810 q 253 890 253 850 q 231 935 253 920 q 165 950 209 950 q 40 922 127 950 l 40 1008 q 180 1029 127 1029 q 326 998 277 1029 q 374 905 374 967 q 341 823 374 857 q 243 768 309 789 q 343 723 309 755 q 376 637 376 690 q 319 526 376 566 q 163 485 262 485 q 40 505 105 485 l 40 593 z "},"₣":{"ha":837,"x_min":92,"x_max":770,"o":"m 92 0 l 92 1004 l 645 1004 l 645 897 l 226 897 l 226 586 l 544 586 l 544 466 q 648 566 591 532 q 770 599 704 599 l 770 470 q 744 471 753 471 q 638 440 688 471 q 544 347 588 409 l 544 0 l 410 0 l 410 481 l 226 481 l 226 0 l 92 0 z "},"Ğ":{"ha":837,"x_min":52,"x_max":766,"o":"m 766 22 q 519 -25 623 -25 q 177 116 302 -25 q 52 500 52 256 q 177 886 52 743 q 513 1029 302 1029 q 755 991 621 1029 l 755 868 q 509 928 631 928 q 280 810 366 928 q 195 492 195 692 q 291 196 195 309 q 545 83 387 83 q 632 93 578 83 l 632 432 l 766 432 l 766 22 m 283 1289 l 367 1289 q 412 1210 376 1236 q 509 1184 448 1184 q 606 1210 570 1184 q 652 1289 642 1236 l 735 1289 q 665 1138 722 1188 q 509 1088 608 1088 q 353 1138 410 1088 q 283 1289 297 1188 z "},"ğ":{"ha":837,"x_min":83,"x_max":731,"o":"m 144 -246 l 158 -134 q 382 -184 278 -184 q 536 -140 490 -184 q 595 20 583 -95 l 610 153 l 602 153 q 498 38 559 76 q 358 0 437 0 q 158 96 232 0 q 83 355 83 192 q 170 643 83 532 q 393 753 256 753 q 606 652 501 753 l 614 652 l 614 736 l 731 736 l 731 147 q 712 -68 731 4 q 641 -196 693 -140 q 380 -285 557 -285 q 144 -246 275 -285 m 597 261 l 597 551 q 411 652 507 652 q 272 580 318 652 q 226 363 226 508 q 266 178 226 240 q 387 117 307 117 q 499 153 447 117 q 597 261 552 189 m 198 1071 l 281 1071 q 327 992 291 1019 q 424 966 362 966 q 520 992 485 966 q 566 1071 556 1019 l 650 1071 q 579 920 636 970 q 424 870 523 870 q 268 920 324 870 q 198 1071 212 970 z "},"İ":{"ha":837,"x_min":117,"x_max":720,"o":"m 117 0 l 117 100 l 351 100 l 351 903 l 117 903 l 117 1004 l 720 1004 l 720 903 l 486 903 l 486 100 l 720 100 l 720 0 l 117 0 m 351 1088 l 351 1221 l 486 1221 l 486 1088 l 351 1088 z "},"Ş":{"ha":837,"x_min":111,"x_max":758,"o":"m 111 23 l 111 155 q 414 75 288 75 q 565 124 507 75 q 623 250 623 172 q 504 408 623 346 l 309 510 q 118 768 118 610 q 200 959 118 889 q 423 1029 281 1029 q 685 988 538 1029 l 685 872 q 426 928 538 928 q 289 893 334 928 q 243 789 243 859 q 377 627 243 696 l 559 533 q 758 271 758 430 q 661 55 758 136 q 400 -25 564 -25 q 111 23 290 -25 m 404 0 l 469 0 l 429 -74 q 520 -106 481 -74 q 559 -182 559 -138 q 520 -261 559 -230 q 422 -293 481 -293 q 325 -279 375 -293 l 325 -224 q 396 -234 356 -234 q 448 -221 431 -234 q 466 -184 466 -209 q 434 -135 466 -151 q 339 -119 402 -119 l 404 0 z "},"ş":{"ha":837,"x_min":127,"x_max":715,"o":"m 127 30 l 127 151 q 395 83 282 83 q 530 116 476 83 q 583 199 583 149 q 456 304 583 264 l 313 351 q 146 543 146 406 q 222 698 146 644 q 437 753 298 753 q 676 721 539 753 l 676 612 q 436 652 544 652 q 314 628 355 652 q 274 555 274 604 q 374 465 274 500 l 543 406 q 715 212 715 346 q 629 45 715 107 q 397 -17 543 -17 q 127 30 271 -17 m 387 0 l 453 0 l 412 -74 q 504 -106 465 -74 q 543 -182 543 -138 q 504 -261 543 -230 q 406 -293 465 -293 q 309 -279 359 -293 l 309 -224 q 380 -234 340 -234 q 432 -221 414 -234 q 450 -184 450 -209 q 418 -135 450 -151 q 323 -119 386 -119 l 387 0 z "},"Ć":{"ha":837,"x_min":69,"x_max":783,"o":"m 783 23 q 531 -25 650 -25 q 194 115 319 -25 q 69 494 69 256 q 193 884 69 739 q 524 1029 316 1029 q 772 990 640 1029 l 772 867 q 524 928 637 928 q 297 810 382 928 q 212 496 212 691 q 308 196 212 309 q 565 84 405 84 q 783 133 656 84 l 783 23 m 382 1088 l 532 1289 l 683 1289 l 499 1088 l 382 1088 z "},"ć":{"ha":837,"x_min":111,"x_max":748,"o":"m 748 24 q 510 -17 629 -17 q 215 83 319 -17 q 111 368 111 184 q 213 651 111 549 q 498 753 316 753 q 734 718 616 753 l 734 606 q 513 652 604 652 q 322 577 391 652 q 253 368 253 501 q 326 159 253 235 q 528 83 399 83 q 748 129 627 83 l 748 24 m 358 870 l 509 1071 l 659 1071 l 475 870 l 358 870 z "},"Č":{"ha":837,"x_min":69,"x_max":783,"o":"m 783 23 q 531 -25 650 -25 q 194 115 319 -25 q 69 494 69 256 q 193 884 69 739 q 524 1029 316 1029 q 772 990 640 1029 l 772 867 q 524 928 637 928 q 297 810 382 928 q 212 496 212 691 q 308 196 212 309 q 565 84 405 84 q 783 133 656 84 l 783 23 m 457 1088 l 307 1289 l 423 1289 l 532 1163 l 641 1289 l 758 1289 l 608 1088 l 457 1088 z "},"č":{"ha":837,"x_min":111,"x_max":748,"o":"m 748 24 q 510 -17 629 -17 q 215 83 319 -17 q 111 368 111 184 q 213 651 111 549 q 498 753 316 753 q 734 718 616 753 l 734 606 q 513 652 604 652 q 322 577 391 652 q 253 368 253 501 q 326 159 253 235 q 528 83 399 83 q 748 129 627 83 l 748 24 m 417 870 l 267 1071 l 383 1071 l 492 945 l 601 1071 l 718 1071 l 568 870 l 417 870 z "},"đ":{"ha":837,"x_min":86,"x_max":831,"o":"m 597 0 l 605 138 l 597 138 q 355 -17 499 -17 q 159 80 231 -17 q 86 343 86 177 q 173 626 86 516 q 395 736 260 736 q 597 636 514 736 l 605 636 l 597 736 l 597 853 l 379 853 l 379 937 l 597 937 l 597 1071 l 730 1071 l 730 937 l 831 937 l 831 853 l 730 853 l 730 0 l 597 0 m 597 536 q 414 636 503 636 q 278 562 327 636 q 229 357 229 487 q 382 98 229 98 q 597 239 497 98 l 597 536 z "},"­":{"ha":837,"x_min":142,"x_max":694,"o":"m 142 368 l 142 469 l 694 469 l 694 368 l 142 368 z "},"¯":{"ha":837,"x_min":0,"x_max":837,"o":"m 0 987 l 0 1088 l 837 1088 l 837 987 l 0 987 z "},"·":{"ha":837,"x_min":334,"x_max":502,"o":"m 334 284 l 334 452 l 502 452 l 502 284 l 334 284 z "},"Ā":{"ha":837,"x_min":8,"x_max":828,"o":"m 8 0 l 351 1004 l 485 1004 l 828 0 l 686 0 l 589 284 l 220 284 l 123 0 l 8 0 m 254 385 l 555 385 l 405 825 l 254 385 m 226 1088 l 226 1188 l 611 1188 l 611 1088 l 226 1088 z "},"ā":{"ha":837,"x_min":92,"x_max":802,"o":"m 566 89 q 324 -13 445 -13 q 158 45 223 -13 q 92 191 92 102 q 194 375 92 305 q 463 445 296 445 l 545 445 l 545 508 q 508 616 545 580 q 397 652 471 652 q 156 587 280 652 l 156 702 q 425 753 298 753 q 622 697 564 753 q 680 505 680 641 l 680 197 q 694 106 680 130 q 747 82 708 82 q 789 89 760 82 l 802 9 q 699 -13 734 -13 q 616 13 650 -13 q 566 89 583 38 m 545 176 l 545 361 l 505 361 q 299 324 368 361 q 231 213 231 287 q 263 124 231 153 q 359 94 295 94 q 545 176 447 94 m 222 870 l 222 970 l 607 970 l 607 870 l 222 870 z "},"Ă":{"ha":837,"x_min":8,"x_max":828,"o":"m 8 0 l 351 1004 l 485 1004 l 828 0 l 686 0 l 589 284 l 220 284 l 123 0 l 8 0 m 254 385 l 555 385 l 405 825 l 254 385 m 193 1289 l 276 1289 q 321 1210 286 1236 q 418 1184 357 1184 q 515 1210 479 1184 q 561 1289 551 1236 l 644 1289 q 574 1138 631 1188 q 418 1088 517 1088 q 262 1138 319 1088 q 193 1289 206 1188 z "},"ă":{"ha":837,"x_min":92,"x_max":802,"o":"m 566 89 q 324 -13 445 -13 q 158 45 223 -13 q 92 191 92 102 q 194 375 92 305 q 463 445 296 445 l 545 445 l 545 508 q 508 616 545 580 q 397 652 471 652 q 156 587 280 652 l 156 702 q 425 753 298 753 q 622 697 564 753 q 680 505 680 641 l 680 197 q 694 106 680 130 q 747 82 708 82 q 789 89 760 82 l 802 9 q 699 -13 734 -13 q 616 13 650 -13 q 566 89 583 38 m 545 176 l 545 361 l 505 361 q 299 324 368 361 q 231 213 231 287 q 263 124 231 153 q 359 94 295 94 q 545 176 447 94 m 221 1071 l 304 1071 q 350 992 314 1019 q 447 966 385 966 q 544 992 508 966 q 589 1071 579 1019 l 673 1071 q 603 920 659 970 q 447 870 546 870 q 291 920 347 870 q 221 1071 235 970 z "},"Ą":{"ha":837,"x_min":8,"x_max":828,"o":"m 8 0 l 351 1004 l 485 1004 l 828 0 l 686 0 l 589 284 l 220 284 l 123 0 l 8 0 m 254 385 l 555 385 l 405 825 l 254 385 m 686 0 l 759 0 q 693 -56 715 -26 q 671 -122 671 -87 q 691 -170 671 -154 q 749 -186 710 -186 q 811 -176 787 -186 l 811 -231 q 718 -251 770 -251 q 614 -224 648 -251 q 579 -142 579 -197 q 606 -64 579 -100 q 686 0 633 -28 z "},"ą":{"ha":837,"x_min":92,"x_max":802,"o":"m 566 89 q 324 -13 445 -13 q 158 45 223 -13 q 92 191 92 102 q 194 375 92 305 q 463 445 296 445 l 545 445 l 545 508 q 508 616 545 580 q 397 652 471 652 q 156 587 280 652 l 156 702 q 425 753 298 753 q 622 697 564 753 q 680 505 680 641 l 680 197 q 694 106 680 130 q 747 82 708 82 q 789 89 760 82 l 802 9 q 699 -13 734 -13 q 616 13 650 -13 q 566 89 583 38 m 545 176 l 545 361 l 505 361 q 299 324 368 361 q 231 213 231 287 q 263 124 231 153 q 359 94 295 94 q 545 176 447 94 m 665 0 l 737 0 q 671 -56 693 -26 q 650 -122 650 -87 q 669 -170 650 -154 q 728 -186 688 -186 q 789 -176 766 -186 l 789 -231 q 696 -251 749 -251 q 592 -224 627 -251 q 557 -142 557 -197 q 584 -64 557 -100 q 665 0 611 -28 z "},"Ĉ":{"ha":837,"x_min":69,"x_max":783,"o":"m 783 23 q 531 -25 650 -25 q 194 115 319 -25 q 69 494 69 256 q 193 884 69 739 q 524 1029 316 1029 q 772 990 640 1029 l 772 867 q 524 928 637 928 q 297 810 382 928 q 212 496 212 691 q 308 196 212 309 q 565 84 405 84 q 783 133 656 84 l 783 23 m 591 1289 l 741 1088 l 624 1088 l 515 1213 l 406 1088 l 290 1088 l 440 1289 l 591 1289 z "},"ĉ":{"ha":837,"x_min":111,"x_max":748,"o":"m 748 24 q 510 -17 629 -17 q 215 83 319 -17 q 111 368 111 184 q 213 651 111 549 q 498 753 316 753 q 734 718 616 753 l 734 606 q 513 652 604 652 q 322 577 391 652 q 253 368 253 501 q 326 159 253 235 q 528 83 399 83 q 748 129 627 83 l 748 24 m 579 1071 l 730 870 l 612 870 l 504 996 l 395 870 l 278 870 l 429 1071 l 579 1071 z "},"Ċ":{"ha":837,"x_min":69,"x_max":783,"o":"m 783 23 q 531 -25 650 -25 q 194 115 319 -25 q 69 494 69 256 q 193 884 69 739 q 524 1029 316 1029 q 772 990 640 1029 l 772 867 q 524 928 637 928 q 297 810 382 928 q 212 496 212 691 q 308 196 212 309 q 565 84 405 84 q 783 133 656 84 l 783 23 m 465 1088 l 465 1221 l 600 1221 l 600 1088 l 465 1088 z "},"ċ":{"ha":837,"x_min":111,"x_max":748,"o":"m 748 24 q 510 -17 629 -17 q 215 83 319 -17 q 111 368 111 184 q 213 651 111 549 q 498 753 316 753 q 734 718 616 753 l 734 606 q 513 652 604 652 q 322 577 391 652 q 253 368 253 501 q 326 159 253 235 q 528 83 399 83 q 748 129 627 83 l 748 24 m 437 870 l 437 1004 l 571 1004 l 571 870 l 437 870 z "},"Ď":{"ha":837,"x_min":88,"x_max":785,"o":"m 88 0 l 88 1004 l 351 1004 q 676 882 568 1004 q 785 518 785 761 q 667 130 785 259 q 315 0 549 0 l 88 0 m 222 100 l 289 100 q 561 195 479 100 q 642 509 642 290 q 534 844 642 748 q 284 904 466 904 l 222 903 l 222 100 m 294 1088 l 144 1289 l 260 1289 l 370 1163 l 478 1289 l 595 1289 l 445 1088 l 294 1088 z "},"ď":{"ha":837,"x_min":50,"x_max":837,"o":"m 490 0 l 498 138 l 490 138 q 412 22 460 60 q 296 -17 363 -17 q 119 84 188 -17 q 50 346 50 186 q 125 638 50 524 q 315 753 199 753 q 414 728 370 753 q 490 652 457 703 l 498 652 l 490 736 l 490 1071 l 623 1071 l 623 0 l 490 0 m 490 552 q 403 627 444 602 q 323 652 361 652 q 225 582 258 652 q 193 370 193 511 q 225 166 193 234 q 321 98 257 98 q 404 133 361 98 q 490 239 446 168 l 490 552 m 715 763 l 715 804 q 750 837 739 806 q 762 926 762 867 l 762 937 l 715 937 l 715 1071 l 837 1071 l 837 955 q 806 818 837 866 q 715 763 776 770 z "},"Đ":{"ha":837,"x_min":21,"x_max":785,"o":"m 88 0 l 88 477 l 21 477 l 21 577 l 88 577 l 88 1004 l 351 1004 q 676 882 568 1004 q 785 518 785 761 q 667 130 785 259 q 315 0 549 0 l 88 0 m 222 100 l 289 100 q 560 195 478 100 q 642 509 642 290 q 534 844 642 748 q 283 904 466 904 l 222 903 l 222 577 l 389 577 l 389 477 l 222 477 l 222 100 z "},"Ē":{"ha":837,"x_min":146,"x_max":766,"o":"m 146 0 l 146 1004 l 734 1004 l 734 903 l 280 903 l 280 581 l 665 581 l 665 481 l 280 481 l 280 100 l 766 100 l 766 0 l 146 0 m 280 1088 l 280 1188 l 665 1188 l 665 1088 l 280 1088 z "},"ē":{"ha":837,"x_min":96,"x_max":745,"o":"m 745 29 q 489 -17 606 -17 q 198 81 300 -17 q 96 360 96 179 q 194 642 96 532 q 443 753 292 753 q 668 661 595 753 q 740 376 740 570 l 740 334 l 238 334 q 313 146 245 208 q 508 83 380 83 q 745 135 616 83 l 745 29 m 242 434 l 597 434 l 597 453 q 556 603 597 553 q 431 652 514 652 q 301 595 351 652 q 242 434 252 537 m 252 870 l 252 970 l 637 970 l 637 870 l 252 870 z "},"Ĕ":{"ha":837,"x_min":146,"x_max":766,"o":"m 146 0 l 146 1004 l 734 1004 l 734 903 l 280 903 l 280 581 l 665 581 l 665 481 l 280 481 l 280 100 l 766 100 l 766 0 l 146 0 m 222 1289 l 305 1289 q 350 1210 315 1236 q 448 1184 386 1184 q 544 1210 509 1184 q 590 1289 580 1236 l 673 1289 q 603 1138 660 1188 q 448 1088 547 1088 q 292 1138 348 1088 q 222 1289 235 1188 z "},"ĕ":{"ha":837,"x_min":96,"x_max":745,"o":"m 745 29 q 489 -17 606 -17 q 198 81 300 -17 q 96 360 96 179 q 194 642 96 532 q 443 753 292 753 q 668 661 595 753 q 740 376 740 570 l 740 334 l 238 334 q 313 146 245 208 q 508 83 380 83 q 745 135 616 83 l 745 29 m 242 434 l 597 434 l 597 453 q 556 603 597 553 q 431 652 514 652 q 301 595 351 652 q 242 434 252 537 m 218 1071 l 301 1071 q 346 992 311 1019 q 444 966 382 966 q 540 992 505 966 q 586 1071 576 1019 l 669 1071 q 599 920 656 970 q 444 870 543 870 q 288 920 344 870 q 218 1071 231 970 z "},"Ė":{"ha":837,"x_min":146,"x_max":766,"o":"m 146 0 l 146 1004 l 734 1004 l 734 903 l 280 903 l 280 581 l 665 581 l 665 481 l 280 481 l 280 100 l 766 100 l 766 0 l 146 0 m 374 1088 l 374 1221 l 508 1221 l 508 1088 l 374 1088 z "},"ė":{"ha":837,"x_min":96,"x_max":745,"o":"m 745 29 q 489 -17 606 -17 q 198 81 300 -17 q 96 360 96 179 q 194 642 96 532 q 443 753 292 753 q 668 661 595 753 q 740 376 740 570 l 740 334 l 238 334 q 313 146 245 208 q 508 83 380 83 q 745 135 616 83 l 745 29 m 242 434 l 597 434 l 597 453 q 556 603 597 553 q 431 652 514 652 q 301 595 351 652 q 242 434 252 537 m 377 870 l 377 1004 l 511 1004 l 511 870 l 377 870 z "},"Ę":{"ha":837,"x_min":146,"x_max":766,"o":"m 146 0 l 146 1004 l 734 1004 l 734 903 l 280 903 l 280 581 l 665 581 l 665 481 l 280 481 l 280 100 l 766 100 l 766 0 l 146 0 m 633 0 l 705 0 q 640 -56 661 -26 q 618 -122 618 -87 q 637 -170 618 -154 q 696 -186 656 -186 q 758 -176 734 -186 l 758 -231 q 664 -251 717 -251 q 560 -224 595 -251 q 526 -142 526 -197 q 552 -64 526 -100 q 633 0 579 -28 z "},"ę":{"ha":837,"x_min":96,"x_max":745,"o":"m 745 29 q 489 -17 606 -17 q 198 81 300 -17 q 96 360 96 179 q 194 642 96 532 q 443 753 292 753 q 668 661 595 753 q 740 376 740 570 l 740 334 l 238 334 q 313 146 245 208 q 508 83 380 83 q 745 135 616 83 l 745 29 m 242 434 l 597 434 l 597 453 q 556 603 597 553 q 431 652 514 652 q 301 595 351 652 q 242 434 252 537 m 531 0 l 604 0 q 538 -56 559 -26 q 516 -122 516 -87 q 535 -170 516 -154 q 594 -186 555 -186 q 656 -176 632 -186 l 656 -231 q 562 -251 615 -251 q 458 -224 493 -251 q 424 -142 424 -197 q 451 -64 424 -100 q 531 0 477 -28 z "},"Ě":{"ha":837,"x_min":146,"x_max":766,"o":"m 146 0 l 146 1004 l 734 1004 l 734 903 l 280 903 l 280 581 l 665 581 l 665 481 l 280 481 l 280 100 l 766 100 l 766 0 l 146 0 m 380 1088 l 230 1289 l 347 1289 l 456 1163 l 564 1289 l 682 1289 l 531 1088 l 380 1088 z "},"ě":{"ha":837,"x_min":96,"x_max":745,"o":"m 745 29 q 489 -17 606 -17 q 198 81 300 -17 q 96 360 96 179 q 194 642 96 532 q 443 753 292 753 q 668 661 595 753 q 740 376 740 570 l 740 334 l 238 334 q 313 146 245 208 q 508 83 380 83 q 745 135 616 83 l 745 29 m 242 434 l 597 434 l 597 453 q 556 603 597 553 q 431 652 514 652 q 301 595 351 652 q 242 434 252 537 m 368 870 l 218 1071 l 334 1071 l 444 945 l 552 1071 l 669 1071 l 519 870 l 368 870 z "},"Ĝ":{"ha":837,"x_min":52,"x_max":766,"o":"m 766 22 q 519 -25 623 -25 q 177 116 302 -25 q 52 500 52 256 q 177 886 52 743 q 513 1029 302 1029 q 755 991 621 1029 l 755 868 q 509 928 631 928 q 280 810 366 928 q 195 492 195 692 q 291 196 195 309 q 545 83 387 83 q 632 93 578 83 l 632 432 l 766 432 l 766 22 m 574 1289 l 724 1088 l 607 1088 l 498 1213 l 389 1088 l 273 1088 l 423 1289 l 574 1289 z "},"ĝ":{"ha":837,"x_min":87,"x_max":735,"o":"m 148 -246 l 162 -134 q 386 -184 282 -184 q 541 -140 494 -184 q 600 20 587 -95 l 614 153 l 606 153 q 503 38 564 76 q 362 0 441 0 q 162 96 236 0 q 87 355 87 192 q 174 643 87 532 q 397 753 260 753 q 610 652 505 753 l 618 652 l 618 736 l 735 736 l 735 147 q 716 -68 735 4 q 645 -196 697 -140 q 384 -285 562 -285 q 148 -246 279 -285 m 602 261 l 602 551 q 415 652 511 652 q 276 580 322 652 q 230 363 230 508 q 270 178 230 240 q 391 117 311 117 q 504 153 451 117 q 602 261 556 189 m 494 1071 l 644 870 l 527 870 l 418 996 l 309 870 l 193 870 l 343 1071 l 494 1071 z "},"Ġ":{"ha":837,"x_min":52,"x_max":766,"o":"m 766 22 q 519 -25 623 -25 q 177 116 302 -25 q 52 500 52 256 q 177 886 52 743 q 513 1029 302 1029 q 755 991 621 1029 l 755 868 q 509 928 631 928 q 280 810 366 928 q 195 492 195 692 q 291 196 195 309 q 545 83 387 83 q 632 93 578 83 l 632 432 l 766 432 l 766 22 m 448 1088 l 448 1221 l 583 1221 l 583 1088 l 448 1088 z "},"ġ":{"ha":837,"x_min":83,"x_max":731,"o":"m 144 -246 l 158 -134 q 382 -184 278 -184 q 536 -140 490 -184 q 595 20 583 -95 l 610 153 l 602 153 q 498 38 559 76 q 358 0 437 0 q 158 96 232 0 q 83 355 83 192 q 170 643 83 532 q 393 753 256 753 q 606 652 501 753 l 614 652 l 614 736 l 731 736 l 731 147 q 712 -68 731 4 q 641 -196 693 -140 q 380 -285 557 -285 q 144 -246 275 -285 m 597 261 l 597 551 q 411 652 507 652 q 272 580 318 652 q 226 363 226 508 q 266 178 226 240 q 387 117 307 117 q 499 153 447 117 q 597 261 552 189 m 347 870 l 347 1004 l 481 1004 l 481 870 l 347 870 z "},"Ģ":{"ha":837,"x_min":52,"x_max":766,"o":"m 766 22 q 519 -25 623 -25 q 177 116 302 -25 q 52 500 52 256 q 177 886 52 743 q 513 1029 302 1029 q 755 991 621 1029 l 755 868 q 509 928 631 928 q 280 810 366 928 q 195 492 195 692 q 291 196 195 309 q 545 83 387 83 q 632 93 578 83 l 632 432 l 766 432 l 766 22 m 412 -441 l 412 -401 q 451 -363 438 -394 q 464 -279 464 -333 l 464 -268 l 412 -268 l 412 -134 l 546 -134 l 546 -250 q 512 -387 546 -339 q 412 -441 479 -435 z "},"ģ":{"ha":837,"x_min":83,"x_max":731,"o":"m 144 -246 l 158 -134 q 382 -184 278 -184 q 536 -140 490 -184 q 595 20 583 -95 l 610 153 l 602 153 q 498 38 559 76 q 358 0 437 0 q 158 96 232 0 q 83 355 83 192 q 170 643 83 532 q 393 753 256 753 q 606 652 501 753 l 614 652 l 614 736 l 731 736 l 731 147 q 712 -68 731 4 q 641 -196 693 -140 q 380 -285 557 -285 q 144 -246 275 -285 m 597 261 l 597 551 q 411 652 507 652 q 272 580 318 652 q 226 363 226 508 q 266 178 226 240 q 387 117 307 117 q 499 153 447 117 q 597 261 552 189 m 481 1178 l 481 1138 q 442 1100 455 1131 q 429 1015 429 1069 l 429 1004 l 481 1004 l 481 870 l 347 870 l 347 986 q 380 1123 347 1075 q 481 1178 414 1171 z "},"Ĥ":{"ha":837,"x_min":100,"x_max":736,"o":"m 100 0 l 100 1004 l 234 1004 l 234 577 l 602 577 l 602 1004 l 736 1004 l 736 0 l 602 0 l 602 477 l 234 477 l 234 0 l 100 0 m 494 1289 l 644 1088 l 527 1088 l 418 1213 l 309 1088 l 193 1088 l 343 1289 l 494 1289 z "},"ĥ":{"ha":837,"x_min":123,"x_max":718,"o":"m 123 0 l 123 1071 l 257 1071 l 257 736 l 249 598 l 257 598 q 366 714 303 675 q 508 753 429 753 q 665 690 612 753 q 718 504 718 628 l 718 0 l 584 0 l 584 467 q 557 590 584 554 q 467 626 530 626 q 365 590 417 626 q 257 481 312 553 l 257 0 l 123 0 m 492 1339 l 642 1138 l 525 1138 l 416 1263 l 307 1138 l 191 1138 l 341 1339 l 492 1339 z "},"Ħ":{"ha":837,"x_min":33,"x_max":803,"o":"m 234 577 l 602 577 l 602 753 l 233 753 l 234 577 m 100 0 l 100 753 l 33 753 l 33 837 l 100 837 l 100 1004 l 234 1004 l 234 837 l 602 837 l 602 1004 l 736 1004 l 736 837 l 803 837 l 803 753 l 736 753 l 736 0 l 602 0 l 602 477 l 234 477 l 234 0 l 100 0 z "},"ħ":{"ha":837,"x_min":40,"x_max":718,"o":"m 123 0 l 123 853 l 40 853 l 40 937 l 123 937 l 123 1071 l 257 1071 l 257 937 l 475 937 l 475 853 l 257 853 l 257 736 l 249 582 l 257 582 q 366 698 303 659 q 508 736 429 736 q 665 674 612 736 q 718 487 718 612 l 718 0 l 584 0 l 584 451 q 557 573 584 537 q 467 610 530 610 q 365 573 417 610 q 257 465 312 537 l 257 0 l 123 0 z "},"Ĩ":{"ha":837,"x_min":117,"x_max":720,"o":"m 117 0 l 117 100 l 351 100 l 351 903 l 117 903 l 117 1004 l 720 1004 l 720 903 l 486 903 l 486 100 l 720 100 l 720 0 l 117 0 m 644 1246 q 605 1127 636 1167 q 519 1088 574 1088 q 444 1101 477 1088 l 368 1133 q 326 1143 342 1143 q 296 1129 309 1143 q 276 1088 283 1116 l 193 1088 q 232 1207 201 1167 q 318 1246 263 1246 q 393 1233 359 1246 l 469 1202 q 511 1192 495 1192 q 540 1205 528 1192 q 561 1246 553 1219 l 644 1246 z "},"ĩ":{"ha":837,"x_min":117,"x_max":569,"o":"m 385 0 l 385 636 l 117 636 l 117 736 l 519 736 l 519 0 l 385 0 m 569 1029 q 530 910 561 949 q 444 870 498 870 q 368 884 402 870 l 293 915 q 251 926 267 926 q 221 912 233 926 q 201 870 208 898 l 117 870 q 157 989 125 949 q 243 1029 188 1029 q 318 1015 284 1029 l 393 985 q 435 974 420 974 q 465 987 452 974 q 486 1029 477 1001 l 569 1029 z "},"Ī":{"ha":837,"x_min":117,"x_max":720,"o":"m 117 0 l 117 100 l 351 100 l 351 903 l 117 903 l 117 1004 l 720 1004 l 720 903 l 486 903 l 486 100 l 720 100 l 720 0 l 117 0 m 226 1088 l 226 1188 l 611 1188 l 611 1088 l 226 1088 z "},"ī":{"ha":837,"x_min":117,"x_max":519,"o":"m 385 0 l 385 636 l 117 636 l 117 736 l 519 736 l 519 0 l 385 0 m 134 870 l 134 970 l 519 970 l 519 870 l 134 870 z "},"Ĭ":{"ha":837,"x_min":117,"x_max":720,"o":"m 117 0 l 117 100 l 351 100 l 351 903 l 117 903 l 117 1004 l 720 1004 l 720 903 l 486 903 l 486 100 l 720 100 l 720 0 l 117 0 m 193 1289 l 276 1289 q 321 1210 286 1236 q 418 1184 357 1184 q 515 1210 479 1184 q 561 1289 551 1236 l 644 1289 q 574 1138 631 1188 q 418 1088 517 1088 q 262 1138 319 1088 q 193 1289 206 1188 z "},"ĭ":{"ha":837,"x_min":117,"x_max":652,"o":"m 385 0 l 385 636 l 117 636 l 117 736 l 519 736 l 519 0 l 385 0 m 201 1071 l 284 1071 q 329 992 294 1019 q 427 966 365 966 q 523 992 488 966 q 569 1071 559 1019 l 652 1071 q 582 920 639 970 q 427 870 526 870 q 271 920 327 870 q 201 1071 214 970 z "},"Į":{"ha":837,"x_min":117,"x_max":720,"o":"m 117 0 l 117 100 l 351 100 l 351 903 l 117 903 l 117 1004 l 720 1004 l 720 903 l 486 903 l 486 100 l 720 100 l 720 0 l 117 0 m 413 0 l 486 0 q 420 -56 441 -26 q 398 -122 398 -87 q 417 -170 398 -154 q 476 -186 437 -186 q 538 -176 514 -186 l 538 -231 q 444 -251 497 -251 q 340 -224 375 -251 q 306 -142 306 -197 q 333 -64 306 -100 q 413 0 359 -28 z "},"į":{"ha":837,"x_min":117,"x_max":559,"o":"m 385 0 l 385 636 l 117 636 l 117 736 l 519 736 l 519 0 l 385 0 m 368 903 l 368 1071 l 536 1071 l 536 903 l 368 903 m 434 0 l 507 0 q 441 -56 463 -26 q 419 -122 419 -87 q 438 -170 419 -154 q 497 -186 458 -186 q 559 -176 535 -186 l 559 -231 q 465 -251 518 -251 q 361 -224 396 -251 q 327 -142 327 -197 q 354 -64 327 -100 q 434 0 380 -28 z "},"Ĳ":{"ha":837,"x_min":33,"x_max":762,"o":"m 33 0 l 33 100 l 125 100 l 125 903 l 33 903 l 33 1004 l 351 1004 l 351 903 l 259 903 l 259 100 l 351 100 l 351 0 l 33 0 m 627 903 l 460 903 l 460 1004 l 762 1004 l 762 361 l 762 237 q 705 52 762 113 q 537 -10 649 -10 q 444 0 500 -10 l 444 108 q 537 90 505 90 q 605 123 582 90 q 627 221 627 155 l 627 903 z "},"ĳ":{"ha":837,"x_min":42,"x_max":720,"o":"m 176 0 l 176 636 l 42 636 l 42 736 l 310 736 l 310 0 l 176 0 m 159 903 l 159 1071 l 326 1071 l 326 903 l 159 903 m 703 736 l 703 0 q 643 -213 703 -142 q 463 -284 583 -284 q 310 -250 391 -284 l 310 -144 q 452 -184 403 -184 q 546 -147 522 -184 q 569 0 569 -111 l 569 636 l 435 636 l 435 736 l 703 736 m 553 903 l 553 1071 l 720 1071 l 720 903 l 553 903 z "},"Ĵ":{"ha":837,"x_min":134,"x_max":648,"o":"m 134 7 l 134 121 l 178 106 q 327 75 271 75 q 460 125 422 75 q 498 300 498 175 l 498 903 l 197 903 l 197 1004 l 631 1004 l 631 371 q 616 174 631 238 q 556 61 600 110 q 336 -25 479 -25 q 134 7 258 -25 m 498 1289 l 648 1088 l 531 1088 l 422 1213 l 313 1088 l 197 1088 l 347 1289 l 498 1289 z "},"ĵ":{"ha":837,"x_min":100,"x_max":606,"o":"m 100 -249 l 100 -137 q 307 -184 205 -184 q 424 -141 393 -184 q 456 18 456 -98 l 456 636 l 155 636 l 155 736 l 589 736 l 589 45 q 522 -205 589 -126 q 309 -284 454 -284 q 100 -249 211 -284 m 456 1071 l 606 870 l 489 870 l 380 996 l 272 870 l 155 870 l 305 1071 l 456 1071 z "},"Ķ":{"ha":837,"x_min":115,"x_max":815,"o":"m 115 0 l 115 1004 l 249 1004 l 249 511 l 613 1004 l 748 1004 l 397 527 l 815 0 l 655 0 l 249 511 l 249 0 l 115 0 m 372 -441 l 372 -401 q 410 -363 397 -394 q 423 -279 423 -333 l 423 -268 l 372 -268 l 372 -134 l 505 -134 l 505 -250 q 472 -387 505 -339 q 372 -441 438 -435 z "},"ķ":{"ha":837,"x_min":144,"x_max":806,"o":"m 144 0 l 144 1071 l 278 1071 l 278 385 l 587 736 l 732 736 l 441 405 l 806 0 l 625 0 l 278 385 l 278 0 l 144 0 m 370 -441 l 370 -401 q 409 -363 396 -394 q 422 -279 422 -333 l 422 -268 l 370 -268 l 370 -134 l 504 -134 l 504 -250 q 470 -387 504 -339 q 370 -441 437 -435 z "},"ĸ":{"ha":837,"x_min":144,"x_max":806,"o":"m 144 0 l 144 736 l 278 736 l 278 385 l 587 736 l 732 736 l 441 405 l 806 0 l 625 0 l 278 385 l 278 0 l 144 0 z "},"Ĺ":{"ha":837,"x_min":134,"x_max":753,"o":"m 151 0 l 151 1004 l 284 1004 l 284 100 l 753 100 l 753 0 l 151 0 m 134 1088 l 284 1289 l 435 1289 l 251 1088 l 134 1088 z "},"ĺ":{"ha":837,"x_min":117,"x_max":611,"o":"m 401 0 l 401 970 l 117 970 l 117 1071 l 536 1071 l 536 0 l 401 0 m 310 1138 l 460 1339 l 611 1339 l 427 1138 l 310 1138 z "},"Ļ":{"ha":837,"x_min":151,"x_max":753,"o":"m 151 0 l 151 1004 l 284 1004 l 284 100 l 753 100 l 753 0 l 151 0 m 401 -441 l 401 -401 q 440 -363 427 -394 q 453 -279 453 -333 l 453 -268 l 401 -268 l 401 -134 l 535 -134 l 535 -250 q 502 -387 535 -339 q 401 -441 468 -435 z "},"ļ":{"ha":837,"x_min":117,"x_max":536,"o":"m 401 0 l 401 970 l 117 970 l 117 1071 l 536 1071 l 536 0 l 401 0 m 401 -441 l 401 -401 q 440 -363 427 -394 q 453 -279 453 -333 l 453 -268 l 401 -268 l 401 -134 l 535 -134 l 535 -250 q 502 -387 535 -339 q 401 -441 468 -435 z "},"Ľ":{"ha":837,"x_min":151,"x_max":753,"o":"m 151 0 l 151 1004 l 284 1004 l 284 100 l 753 100 l 753 0 l 151 0 m 485 696 l 485 736 q 524 773 511 743 q 536 859 536 804 l 536 870 l 485 870 l 485 1004 l 618 1004 l 618 888 q 585 750 618 798 q 485 696 551 703 z "},"ľ":{"ha":837,"x_min":100,"x_max":753,"o":"m 351 0 l 351 970 l 100 970 l 100 1071 l 485 1071 l 485 0 l 351 0 m 619 763 l 619 803 q 658 841 645 810 q 671 926 671 871 l 671 937 l 619 937 l 619 1071 l 753 1071 l 753 955 q 719 818 753 865 q 619 763 686 770 z "},"Ŀ":{"ha":837,"x_min":151,"x_max":753,"o":"m 151 0 l 151 1004 l 284 1004 l 284 100 l 753 100 l 753 0 l 151 0 m 569 435 l 569 569 l 703 569 l 703 435 l 569 435 z "},"ŀ":{"ha":837,"x_min":67,"x_max":837,"o":"m 335 0 l 335 970 l 67 970 l 67 1071 l 469 1071 l 469 0 l 335 0 m 703 469 l 703 602 l 837 602 l 837 469 l 703 469 z "},"Ń":{"ha":837,"x_min":100,"x_max":736,"o":"m 100 0 l 100 1004 l 227 1004 l 626 240 l 627 240 l 627 1004 l 736 1004 l 736 0 l 613 0 l 211 768 l 209 768 l 209 0 l 100 0 m 293 1088 l 444 1289 l 594 1289 l 410 1088 l 293 1088 z "},"ń":{"ha":837,"x_min":123,"x_max":718,"o":"m 123 0 l 123 736 l 257 736 l 249 598 l 257 598 q 366 714 303 675 q 508 753 429 753 q 665 690 612 753 q 718 504 718 628 l 718 0 l 584 0 l 584 467 q 557 590 584 554 q 467 626 530 626 q 365 590 417 626 q 257 481 312 553 l 257 0 l 123 0 m 320 870 l 471 1071 l 621 1071 l 437 870 l 320 870 z "},"Ņ":{"ha":837,"x_min":100,"x_max":736,"o":"m 100 0 l 100 1004 l 227 1004 l 626 240 l 627 240 l 627 1004 l 736 1004 l 736 0 l 613 0 l 211 768 l 209 768 l 209 0 l 100 0 m 351 -441 l 351 -401 q 390 -363 377 -394 q 403 -279 403 -333 l 403 -268 l 351 -268 l 351 -134 l 485 -134 l 485 -250 q 451 -387 485 -339 q 351 -441 418 -435 z "},"ņ":{"ha":837,"x_min":123,"x_max":718,"o":"m 123 0 l 123 736 l 257 736 l 249 598 l 257 598 q 366 714 303 675 q 508 753 429 753 q 665 690 612 753 q 718 504 718 628 l 718 0 l 584 0 l 584 467 q 557 590 584 554 q 467 626 530 626 q 365 590 417 626 q 257 481 312 553 l 257 0 l 123 0 m 353 -441 l 353 -401 q 392 -363 379 -394 q 405 -279 405 -333 l 405 -268 l 353 -268 l 353 -134 l 487 -134 l 487 -250 q 453 -387 487 -339 q 353 -441 420 -435 z "},"Ň":{"ha":837,"x_min":100,"x_max":736,"o":"m 100 0 l 100 1004 l 227 1004 l 626 240 l 627 240 l 627 1004 l 736 1004 l 736 0 l 613 0 l 211 768 l 209 768 l 209 0 l 100 0 m 343 1088 l 193 1289 l 309 1289 l 418 1163 l 527 1289 l 644 1289 l 494 1088 l 343 1088 z "},"ň":{"ha":837,"x_min":123,"x_max":718,"o":"m 123 0 l 123 736 l 257 736 l 249 598 l 257 598 q 366 714 303 675 q 508 753 429 753 q 665 690 612 753 q 718 504 718 628 l 718 0 l 584 0 l 584 467 q 557 590 584 554 q 467 626 530 626 q 365 590 417 626 q 257 481 312 553 l 257 0 l 123 0 m 378 870 l 228 1071 l 345 1071 l 454 945 l 562 1071 l 680 1071 l 529 870 l 378 870 z "},"ŉ":{"ha":837,"x_min":56,"x_max":718,"o":"m 123 0 l 123 736 l 257 736 l 249 598 l 257 598 q 366 714 303 675 q 508 753 429 753 q 665 690 612 753 q 718 504 718 628 l 718 0 l 584 0 l 584 467 q 557 590 584 554 q 467 626 530 626 q 365 590 417 626 q 257 481 312 553 l 257 0 l 123 0 m 56 780 l 56 820 q 95 858 82 827 q 108 943 108 888 l 108 954 l 56 954 l 56 1088 l 190 1088 l 190 972 q 156 834 190 882 q 56 780 123 787 z "},"Ŋ":{"ha":837,"x_min":100,"x_max":736,"o":"m 626 -24 l 211 768 l 209 768 l 209 0 l 100 0 l 100 1004 l 227 1004 l 626 240 l 627 240 l 627 1004 l 736 1004 l 736 0 l 736 -62 q 679 -226 736 -167 q 518 -285 621 -285 q 418 -271 469 -285 l 418 -166 q 525 -184 460 -184 q 603 -151 581 -184 q 626 -37 626 -118 l 626 -24 z "},"ŋ":{"ha":837,"x_min":123,"x_max":718,"o":"m 123 0 l 123 736 l 257 736 l 249 598 l 257 598 q 366 714 303 675 q 508 753 429 753 q 665 690 612 753 q 718 504 718 628 l 718 0 l 718 -62 q 660 -226 718 -167 q 500 -285 602 -285 q 399 -271 450 -285 l 399 -166 q 484 -184 441 -184 q 559 -148 534 -184 q 584 -37 584 -111 l 584 467 q 557 590 584 554 q 467 626 530 626 q 365 590 417 626 q 257 481 312 553 l 257 0 l 123 0 z "},"Ō":{"ha":837,"x_min":42,"x_max":795,"o":"m 413 -25 q 142 118 243 -25 q 42 502 42 260 q 143 887 42 746 q 418 1029 244 1029 q 693 887 592 1029 q 795 505 795 746 q 693 116 795 256 q 413 -25 592 -25 m 415 75 q 593 183 534 75 q 653 505 653 290 q 594 823 653 717 q 418 928 536 928 q 243 822 301 928 q 184 503 184 715 q 242 182 184 289 q 415 75 300 75 m 226 1088 l 226 1188 l 611 1188 l 611 1088 l 226 1088 z "},"ō":{"ha":837,"x_min":71,"x_max":766,"o":"m 413 -17 q 163 87 256 -17 q 71 368 71 191 q 164 650 71 547 q 418 753 257 753 q 673 650 580 753 q 766 370 766 548 q 672 85 766 187 q 413 -17 579 -17 m 416 83 q 571 155 519 83 q 623 370 623 227 q 569 577 623 502 q 418 652 515 652 q 268 577 322 652 q 214 368 214 502 q 268 159 214 235 q 416 83 321 83 m 226 870 l 226 970 l 611 970 l 611 870 l 226 870 z "},"Ŏ":{"ha":837,"x_min":42,"x_max":795,"o":"m 413 -25 q 142 118 243 -25 q 42 502 42 260 q 143 887 42 746 q 418 1029 244 1029 q 693 887 592 1029 q 795 505 795 746 q 693 116 795 256 q 413 -25 592 -25 m 415 75 q 593 183 534 75 q 653 505 653 290 q 594 823 653 717 q 418 928 536 928 q 243 822 301 928 q 184 503 184 715 q 242 182 184 289 q 415 75 300 75 m 193 1289 l 276 1289 q 321 1210 286 1236 q 418 1184 357 1184 q 515 1210 479 1184 q 561 1289 551 1236 l 644 1289 q 574 1138 631 1188 q 418 1088 517 1088 q 262 1138 319 1088 q 193 1289 206 1188 z "},"ŏ":{"ha":837,"x_min":71,"x_max":766,"o":"m 413 -17 q 163 87 256 -17 q 71 368 71 191 q 164 650 71 547 q 418 753 257 753 q 673 650 580 753 q 766 370 766 548 q 672 85 766 187 q 413 -17 579 -17 m 416 83 q 571 155 519 83 q 623 370 623 227 q 569 577 623 502 q 418 652 515 652 q 268 577 322 652 q 214 368 214 502 q 268 159 214 235 q 416 83 321 83 m 193 1071 l 276 1071 q 321 992 286 1019 q 418 966 357 966 q 515 992 479 966 q 561 1071 551 1019 l 644 1071 q 574 920 631 970 q 418 870 517 870 q 262 920 319 870 q 193 1071 206 970 z "},"Ő":{"ha":837,"x_min":42,"x_max":795,"o":"m 413 -25 q 142 118 243 -25 q 42 502 42 260 q 143 887 42 746 q 418 1029 244 1029 q 693 887 592 1029 q 795 505 795 746 q 693 116 795 256 q 413 -25 592 -25 m 415 75 q 593 183 534 75 q 653 505 653 290 q 594 823 653 717 q 418 928 536 928 q 243 822 301 928 q 184 503 184 715 q 242 182 184 289 q 415 75 300 75 m 229 1088 l 375 1289 l 480 1289 l 311 1088 l 229 1088 m 439 1088 l 585 1289 l 691 1289 l 522 1088 l 439 1088 z "},"ő":{"ha":837,"x_min":71,"x_max":766,"o":"m 413 -17 q 163 87 256 -17 q 71 368 71 191 q 164 650 71 547 q 418 753 257 753 q 673 650 580 753 q 766 370 766 548 q 672 85 766 187 q 413 -17 579 -17 m 416 83 q 571 155 519 83 q 623 370 623 227 q 569 577 623 502 q 418 652 515 652 q 268 577 322 652 q 214 368 214 502 q 268 159 214 235 q 416 83 321 83 m 238 870 l 384 1071 l 489 1071 l 320 870 l 238 870 m 448 870 l 594 1071 l 700 1071 l 530 870 l 448 870 z "},"Ŕ":{"ha":837,"x_min":125,"x_max":816,"o":"m 125 0 l 125 1004 l 368 1004 q 575 976 511 1004 q 669 891 633 951 q 705 760 705 831 q 655 592 705 665 q 503 469 604 519 l 816 0 l 654 0 l 379 429 l 258 429 l 258 0 l 125 0 m 258 530 l 329 530 q 498 590 434 530 q 563 749 563 650 q 512 868 563 832 q 340 903 460 903 l 258 903 l 258 530 m 278 1088 l 429 1289 l 579 1289 l 395 1088 l 278 1088 z "},"ŕ":{"ha":837,"x_min":209,"x_max":753,"o":"m 209 0 l 209 736 l 342 736 l 334 598 l 342 598 q 462 714 393 675 q 616 753 530 753 q 753 736 676 753 l 753 527 l 652 527 l 652 632 q 596 639 621 639 q 464 599 528 639 q 342 479 401 559 l 342 0 l 209 0 m 380 870 l 531 1071 l 682 1071 l 498 870 l 380 870 z "},"Ŗ":{"ha":837,"x_min":125,"x_max":816,"o":"m 125 0 l 125 1004 l 368 1004 q 575 976 511 1004 q 669 891 633 951 q 705 760 705 831 q 655 592 705 665 q 503 469 604 519 l 816 0 l 654 0 l 379 429 l 258 429 l 258 0 l 125 0 m 258 530 l 329 530 q 498 590 434 530 q 563 749 563 650 q 512 868 563 832 q 340 903 460 903 l 258 903 l 258 530 m 356 -441 l 356 -401 q 395 -363 382 -394 q 408 -279 408 -333 l 408 -268 l 356 -268 l 356 -134 l 490 -134 l 490 -250 q 456 -387 490 -339 q 356 -441 422 -435 z "},"ŗ":{"ha":837,"x_min":209,"x_max":753,"o":"m 209 0 l 209 736 l 342 736 l 334 598 l 342 598 q 462 714 393 675 q 616 753 530 753 q 753 736 676 753 l 753 527 l 652 527 l 652 632 q 596 639 621 639 q 464 599 528 639 q 342 479 401 559 l 342 0 l 209 0 m 209 -441 l 209 -401 q 248 -363 235 -394 q 260 -279 260 -333 l 260 -268 l 209 -268 l 209 -134 l 342 -134 l 342 -250 q 309 -387 342 -339 q 209 -441 275 -435 z "},"Ř":{"ha":837,"x_min":125,"x_max":816,"o":"m 125 0 l 125 1004 l 368 1004 q 575 976 511 1004 q 669 891 633 951 q 705 760 705 831 q 655 592 705 665 q 503 469 604 519 l 816 0 l 654 0 l 379 429 l 258 429 l 258 0 l 125 0 m 258 530 l 329 530 q 498 590 434 530 q 563 749 563 650 q 512 868 563 832 q 340 903 460 903 l 258 903 l 258 530 m 328 1088 l 178 1289 l 294 1289 l 404 1163 l 512 1289 l 629 1289 l 479 1088 l 328 1088 z "},"ř":{"ha":837,"x_min":209,"x_max":753,"o":"m 209 0 l 209 736 l 342 736 l 334 598 l 342 598 q 462 714 393 675 q 616 753 530 753 q 753 736 676 753 l 753 527 l 652 527 l 652 632 q 596 639 621 639 q 464 599 528 639 q 342 479 401 559 l 342 0 l 209 0 m 431 870 l 280 1071 l 397 1071 l 506 945 l 614 1071 l 732 1071 l 581 870 l 431 870 z "},"Ś":{"ha":837,"x_min":111,"x_max":758,"o":"m 111 23 l 111 155 q 414 75 288 75 q 565 124 507 75 q 623 250 623 172 q 504 408 623 346 l 309 510 q 118 768 118 610 q 200 959 118 889 q 423 1029 281 1029 q 685 988 538 1029 l 685 872 q 426 928 538 928 q 289 893 334 928 q 243 789 243 859 q 377 627 243 696 l 559 533 q 758 271 758 430 q 661 55 758 136 q 400 -25 564 -25 q 111 23 290 -25 m 326 1088 l 476 1289 l 627 1289 l 443 1088 l 326 1088 z "},"ś":{"ha":837,"x_min":127,"x_max":715,"o":"m 127 30 l 127 151 q 395 83 282 83 q 530 116 476 83 q 583 199 583 149 q 456 304 583 264 l 313 351 q 146 543 146 406 q 222 698 146 644 q 437 753 298 753 q 676 721 539 753 l 676 612 q 436 652 544 652 q 314 628 355 652 q 274 555 274 604 q 374 465 274 500 l 543 406 q 715 212 715 346 q 629 45 715 107 q 397 -17 543 -17 q 127 30 271 -17 m 324 870 l 475 1071 l 625 1071 l 441 870 l 324 870 z "},"Ŝ":{"ha":837,"x_min":111,"x_max":758,"o":"m 111 23 l 111 155 q 414 75 288 75 q 565 124 507 75 q 623 250 623 172 q 504 408 623 346 l 309 510 q 118 768 118 610 q 200 959 118 889 q 423 1029 281 1029 q 685 988 538 1029 l 685 872 q 426 928 538 928 q 289 893 334 928 q 243 789 243 859 q 377 627 243 696 l 559 533 q 758 271 758 430 q 661 55 758 136 q 400 -25 564 -25 q 111 23 290 -25 m 510 1289 l 661 1088 l 543 1088 l 435 1213 l 326 1088 l 209 1088 l 359 1289 l 510 1289 z "},"ŝ":{"ha":837,"x_min":127,"x_max":715,"o":"m 127 30 l 127 151 q 395 83 282 83 q 530 116 476 83 q 583 199 583 149 q 456 304 583 264 l 313 351 q 146 543 146 406 q 222 698 146 644 q 437 753 298 753 q 676 721 539 753 l 676 612 q 436 652 544 652 q 314 628 355 652 q 274 555 274 604 q 374 465 274 500 l 543 406 q 715 212 715 346 q 629 45 715 107 q 397 -17 543 -17 q 127 30 271 -17 m 513 1071 l 663 870 l 546 870 l 437 996 l 328 870 l 212 870 l 362 1071 l 513 1071 z "},"Ţ":{"ha":837,"x_min":17,"x_max":820,"o":"m 351 0 l 351 903 l 17 903 l 17 1004 l 820 1004 l 820 903 l 486 903 l 486 0 l 351 0 m 386 0 l 452 0 l 411 -74 q 503 -106 464 -74 q 542 -182 542 -138 q 503 -261 542 -230 q 404 -293 464 -293 q 307 -279 357 -293 l 307 -224 q 378 -234 338 -234 q 431 -221 413 -234 q 448 -184 448 -209 q 416 -135 448 -151 q 321 -119 385 -119 l 386 0 z "},"ţ":{"ha":837,"x_min":88,"x_max":747,"o":"m 747 1 q 554 -17 647 -17 q 331 42 390 -17 q 272 264 272 100 l 272 619 l 88 619 l 88 720 l 272 720 l 272 878 l 406 878 l 406 720 l 732 720 l 732 619 l 406 619 l 406 242 q 414 155 406 179 q 448 114 422 132 q 579 83 494 83 q 747 102 665 83 l 747 1 m 449 0 l 515 0 l 474 -74 q 566 -106 527 -74 q 605 -182 605 -138 q 566 -261 605 -230 q 467 -293 527 -293 q 370 -279 420 -293 l 370 -224 q 441 -234 401 -234 q 494 -221 476 -234 q 511 -184 511 -209 q 479 -135 511 -151 q 385 -119 448 -119 l 449 0 z "},"Ť":{"ha":837,"x_min":17,"x_max":820,"o":"m 351 0 l 351 903 l 17 903 l 17 1004 l 820 1004 l 820 903 l 486 903 l 486 0 l 351 0 m 343 1088 l 193 1289 l 309 1289 l 418 1163 l 527 1289 l 644 1289 l 494 1088 l 343 1088 z "},"ť":{"ha":837,"x_min":88,"x_max":747,"o":"m 747 1 q 554 -17 647 -17 q 331 42 390 -17 q 272 264 272 100 l 272 619 l 88 619 l 88 720 l 272 720 l 272 878 l 406 878 l 406 720 l 732 720 l 732 619 l 406 619 l 406 242 q 414 155 406 179 q 448 114 422 132 q 579 83 494 83 q 747 102 665 83 l 747 1 m 599 771 l 599 811 q 637 849 625 818 q 650 934 650 880 l 650 945 l 599 945 l 599 1079 l 732 1079 l 732 963 q 699 826 732 873 q 599 771 665 778 z "},"Ŧ":{"ha":837,"x_min":17,"x_max":820,"o":"m 351 0 l 351 485 l 146 485 l 146 585 l 351 585 l 351 903 l 17 903 l 17 1004 l 820 1004 l 820 903 l 486 903 l 486 585 l 691 585 l 691 485 l 486 485 l 486 0 l 351 0 z "},"ŧ":{"ha":837,"x_min":88,"x_max":747,"o":"m 747 102 l 747 1 q 554 -17 647 -17 q 331 42 390 -17 q 272 264 272 100 l 272 385 l 130 385 l 130 469 l 272 469 l 272 619 l 88 619 l 88 720 l 272 720 l 272 878 l 406 878 l 406 720 l 732 720 l 732 619 l 406 619 l 406 469 l 649 469 l 649 385 l 406 385 l 406 242 q 414 155 406 179 q 448 114 422 132 q 579 83 494 83 q 747 102 665 83 z "},"Ũ":{"ha":837,"x_min":104,"x_max":733,"o":"m 104 1004 l 237 1004 l 237 338 q 281 137 237 199 q 423 75 325 75 q 571 137 526 75 q 616 341 616 199 l 616 1004 l 733 1004 l 733 361 q 694 126 733 197 q 422 -25 612 -25 q 183 66 263 -25 q 104 340 104 157 l 104 1004 m 644 1246 q 605 1127 636 1167 q 519 1088 574 1088 q 444 1101 477 1088 l 368 1133 q 326 1143 342 1143 q 296 1129 309 1143 q 276 1088 283 1116 l 193 1088 q 232 1207 201 1167 q 318 1246 263 1246 q 393 1233 359 1246 l 469 1202 q 511 1192 495 1192 q 540 1205 528 1192 q 561 1246 553 1219 l 644 1246 z "},"ũ":{"ha":837,"x_min":119,"x_max":713,"o":"m 713 736 l 713 0 l 580 0 l 588 138 l 580 138 q 471 22 534 60 q 328 -17 408 -17 q 172 45 224 -17 q 119 233 119 108 l 119 736 l 253 736 l 253 269 q 280 146 253 182 q 370 110 307 110 q 472 146 420 110 q 580 255 525 182 l 580 736 l 713 736 m 642 1029 q 603 910 634 949 q 517 870 572 870 q 441 884 475 870 l 366 915 q 324 926 340 926 q 294 912 307 926 q 274 870 281 898 l 191 870 q 230 989 199 949 q 316 1029 261 1029 q 391 1015 357 1029 l 467 985 q 509 974 493 974 q 538 987 526 974 q 559 1029 551 1001 l 642 1029 z "},"Ū":{"ha":837,"x_min":104,"x_max":733,"o":"m 104 1004 l 237 1004 l 237 338 q 281 137 237 199 q 423 75 325 75 q 571 137 526 75 q 616 341 616 199 l 616 1004 l 733 1004 l 733 361 q 694 126 733 197 q 422 -25 612 -25 q 183 66 263 -25 q 104 340 104 157 l 104 1004 m 235 1088 l 235 1188 l 620 1188 l 620 1088 l 235 1088 z "},"ū":{"ha":837,"x_min":119,"x_max":713,"o":"m 713 736 l 713 0 l 580 0 l 588 138 l 580 138 q 471 22 534 60 q 328 -17 408 -17 q 172 45 224 -17 q 119 233 119 108 l 119 736 l 253 736 l 253 269 q 280 146 253 182 q 370 110 307 110 q 472 146 420 110 q 580 255 525 182 l 580 736 l 713 736 m 224 870 l 224 970 l 609 970 l 609 870 l 224 870 z "},"Ŭ":{"ha":837,"x_min":104,"x_max":733,"o":"m 104 1004 l 237 1004 l 237 338 q 281 137 237 199 q 423 75 325 75 q 571 137 526 75 q 616 341 616 199 l 616 1004 l 733 1004 l 733 361 q 694 126 733 197 q 422 -25 612 -25 q 183 66 263 -25 q 104 340 104 157 l 104 1004 m 201 1289 l 284 1289 q 329 1210 294 1236 q 427 1184 365 1184 q 523 1210 488 1184 q 569 1289 559 1236 l 652 1289 q 582 1138 639 1188 q 427 1088 526 1088 q 271 1138 327 1088 q 201 1289 214 1188 z "},"ŭ":{"ha":837,"x_min":119,"x_max":713,"o":"m 713 736 l 713 0 l 580 0 l 588 138 l 580 138 q 471 22 534 60 q 328 -17 408 -17 q 172 45 224 -17 q 119 233 119 108 l 119 736 l 253 736 l 253 269 q 280 146 253 182 q 370 110 307 110 q 472 146 420 110 q 580 255 525 182 l 580 736 l 713 736 m 191 1071 l 274 1071 q 319 992 283 1019 q 416 966 355 966 q 513 992 477 966 q 559 1071 549 1019 l 642 1071 q 572 920 629 970 q 416 870 515 870 q 260 920 317 870 q 191 1071 204 970 z "},"Ů":{"ha":837,"x_min":104,"x_max":733,"o":"m 104 1004 l 237 1004 l 237 338 q 281 137 237 199 q 423 75 325 75 q 571 137 526 75 q 616 341 616 199 l 616 1004 l 733 1004 l 733 361 q 694 126 733 197 q 422 -25 612 -25 q 183 66 263 -25 q 104 340 104 157 l 104 1004 m 416 1071 q 309 1116 354 1071 q 264 1225 264 1161 q 310 1334 264 1289 q 418 1379 355 1379 q 528 1334 483 1379 q 572 1225 572 1289 q 527 1115 572 1160 q 416 1071 482 1071 m 417 1129 q 486 1157 458 1129 q 514 1225 514 1185 q 486 1293 514 1265 q 418 1320 458 1320 q 351 1293 379 1320 q 323 1225 323 1265 q 351 1157 323 1185 q 417 1129 378 1129 z "},"ů":{"ha":837,"x_min":119,"x_max":713,"o":"m 713 736 l 713 0 l 580 0 l 588 138 l 580 138 q 471 22 534 60 q 328 -17 408 -17 q 172 45 224 -17 q 119 233 119 108 l 119 736 l 253 736 l 253 269 q 280 146 253 182 q 370 110 307 110 q 472 146 420 110 q 580 255 525 182 l 580 736 l 713 736 m 414 870 q 307 915 352 870 q 262 1024 262 960 q 308 1133 262 1088 q 416 1178 353 1178 q 526 1133 481 1178 q 570 1024 570 1088 q 525 915 570 959 q 414 870 480 870 m 415 928 q 484 956 456 928 q 512 1025 512 984 q 484 1092 512 1064 q 416 1120 456 1120 q 349 1092 377 1120 q 321 1024 321 1064 q 349 957 321 985 q 415 928 376 928 z "},"Ű":{"ha":837,"x_min":104,"x_max":733,"o":"m 104 1004 l 237 1004 l 237 338 q 281 137 237 199 q 423 75 325 75 q 571 137 526 75 q 616 341 616 199 l 616 1004 l 733 1004 l 733 361 q 694 126 733 197 q 422 -25 612 -25 q 183 66 263 -25 q 104 340 104 157 l 104 1004 m 221 1088 l 367 1289 l 472 1289 l 303 1088 l 221 1088 m 431 1088 l 577 1289 l 683 1289 l 513 1088 l 431 1088 z "},"ű":{"ha":837,"x_min":119,"x_max":714,"o":"m 713 736 l 713 0 l 580 0 l 588 138 l 580 138 q 471 22 534 60 q 328 -17 408 -17 q 172 45 224 -17 q 119 233 119 108 l 119 736 l 253 736 l 253 269 q 280 146 253 182 q 370 110 307 110 q 472 146 420 110 q 580 255 525 182 l 580 736 l 713 736 m 252 870 l 398 1071 l 503 1071 l 334 870 l 252 870 m 463 870 l 608 1071 l 714 1071 l 545 870 l 463 870 z "},"Ų":{"ha":837,"x_min":104,"x_max":733,"o":"m 104 1004 l 237 1004 l 237 338 q 281 137 237 199 q 423 75 325 75 q 571 137 526 75 q 616 341 616 199 l 616 1004 l 733 1004 l 733 361 q 694 126 733 197 q 422 -25 612 -25 q 183 66 263 -25 q 104 340 104 157 l 104 1004 m 468 0 l 541 0 q 475 -56 496 -26 q 453 -122 453 -87 q 472 -170 453 -154 q 531 -186 492 -186 q 593 -176 569 -186 l 593 -231 q 499 -251 552 -251 q 395 -224 430 -251 q 361 -142 361 -197 q 388 -64 361 -100 q 468 0 414 -28 z "},"ų":{"ha":837,"x_min":119,"x_max":713,"o":"m 713 736 l 713 0 l 580 0 l 588 138 l 580 138 q 471 22 534 60 q 328 -17 408 -17 q 172 45 224 -17 q 119 233 119 108 l 119 736 l 253 736 l 253 269 q 280 146 253 182 q 370 110 307 110 q 472 146 420 110 q 580 255 525 182 l 580 736 l 713 736 m 581 0 l 653 0 q 587 -56 609 -26 q 566 -122 566 -87 q 585 -170 566 -154 q 644 -186 604 -186 q 705 -176 682 -186 l 705 -231 q 612 -251 665 -251 q 508 -224 543 -251 q 473 -142 473 -197 q 500 -64 473 -100 q 581 0 527 -28 z "},"Ŵ":{"ha":837,"x_min":11,"x_max":825,"o":"m 140 0 l 11 1004 l 125 1004 l 231 141 l 358 736 l 487 736 l 611 151 l 724 1004 l 825 1004 l 682 0 l 537 0 l 416 564 l 295 0 l 140 0 m 499 1289 l 650 1088 l 532 1088 l 424 1213 l 315 1088 l 198 1088 l 349 1289 l 499 1289 z "},"ŵ":{"ha":837,"x_min":8,"x_max":828,"o":"m 142 0 l 8 736 l 132 736 l 230 157 l 361 669 l 491 669 l 616 136 l 726 736 l 828 736 l 681 0 l 549 0 l 419 553 l 275 0 l 142 0 m 504 1071 l 654 870 l 537 870 l 429 996 l 319 870 l 203 870 l 353 1071 l 504 1071 z "},"Ŷ":{"ha":837,"x_min":22,"x_max":832,"o":"m 352 0 l 352 423 l 22 1004 l 176 1004 l 434 549 l 705 1004 l 832 1004 l 486 423 l 486 0 l 352 0 m 509 1289 l 660 1088 l 543 1088 l 434 1213 l 325 1088 l 208 1088 l 359 1289 l 509 1289 z "},"ŷ":{"ha":837,"x_min":58,"x_max":800,"o":"m 96 -268 l 96 -168 l 151 -168 q 261 -143 227 -168 q 334 -38 296 -119 l 367 33 l 58 736 l 196 736 l 437 185 l 680 736 l 800 736 l 429 -94 q 325 -230 385 -191 q 153 -268 264 -268 l 96 -268 m 513 1071 l 663 870 l 546 870 l 437 996 l 328 870 l 212 870 l 362 1071 l 513 1071 z "},"Ź":{"ha":837,"x_min":67,"x_max":770,"o":"m 67 0 l 67 100 l 613 903 l 100 903 l 100 1004 l 764 1004 l 764 903 l 219 100 l 770 100 l 770 0 l 67 0 m 318 1088 l 469 1289 l 619 1289 l 435 1088 l 318 1088 z "},"ź":{"ha":837,"x_min":92,"x_max":745,"o":"m 92 0 l 92 100 l 574 636 l 109 636 l 109 736 l 732 736 l 732 636 l 250 100 l 745 100 l 745 0 l 92 0 m 310 870 l 460 1071 l 611 1071 l 427 870 l 310 870 z "},"Ż":{"ha":837,"x_min":67,"x_max":770,"o":"m 67 0 l 67 100 l 613 903 l 100 903 l 100 1004 l 764 1004 l 764 903 l 219 100 l 770 100 l 770 0 l 67 0 m 368 1088 l 368 1221 l 503 1221 l 503 1088 l 368 1088 z "},"ż":{"ha":837,"x_min":92,"x_max":745,"o":"m 92 0 l 92 100 l 574 636 l 109 636 l 109 736 l 732 736 l 732 636 l 250 100 l 745 100 l 745 0 l 92 0 m 368 870 l 368 1004 l 503 1004 l 503 870 l 368 870 z "},"ſ":{"ha":837,"x_min":100,"x_max":814,"o":"m 301 0 l 301 619 l 100 619 l 100 720 l 301 720 l 301 798 q 373 1020 301 952 q 609 1088 445 1088 q 814 1059 718 1088 l 814 953 q 620 987 715 987 q 476 948 517 987 q 435 812 435 909 l 435 0 l 301 0 z "},"Ǻ":{"ha":837,"x_min":8,"x_max":828,"o":"m 8 0 l 351 1004 l 485 1004 l 828 0 l 686 0 l 589 284 l 220 284 l 123 0 l 8 0 m 254 385 l 555 385 l 405 825 l 254 385 m 416 1005 q 309 1050 354 1005 q 264 1159 264 1095 q 310 1268 264 1223 q 418 1313 355 1313 q 528 1268 483 1313 q 572 1159 572 1223 q 527 1049 572 1094 q 416 1005 482 1005 m 417 1063 q 486 1091 458 1063 q 514 1160 514 1119 q 486 1227 514 1199 q 418 1255 458 1255 q 351 1227 379 1255 q 323 1159 323 1199 q 351 1092 323 1120 q 417 1063 378 1063 m 301 1362 l 452 1563 l 602 1563 l 418 1362 l 301 1362 z "},"ǻ":{"ha":837,"x_min":92,"x_max":802,"o":"m 566 89 q 324 -13 445 -13 q 158 45 223 -13 q 92 191 92 102 q 194 375 92 305 q 463 445 296 445 l 545 445 l 545 508 q 508 616 545 580 q 397 652 471 652 q 156 587 280 652 l 156 702 q 425 753 298 753 q 622 697 564 753 q 680 505 680 641 l 680 197 q 694 106 680 130 q 747 82 708 82 q 789 89 760 82 l 802 9 q 699 -13 734 -13 q 616 13 650 -13 q 566 89 583 38 m 545 176 l 545 361 l 505 361 q 299 324 368 361 q 231 213 231 287 q 263 124 231 153 q 359 94 295 94 q 545 176 447 94 m 427 837 q 319 882 364 837 q 275 991 275 927 q 320 1100 275 1055 q 429 1145 365 1145 q 538 1100 493 1145 q 583 991 583 1055 q 537 881 583 926 q 427 837 492 837 m 427 895 q 496 923 469 895 q 524 991 524 951 q 496 1059 524 1031 q 429 1086 469 1086 q 361 1059 389 1086 q 334 991 334 1031 q 361 923 334 951 q 427 895 389 895 m 314 1203 l 465 1404 l 615 1404 l 431 1203 l 314 1203 z "},"Ǽ":{"ha":837,"x_min":0,"x_max":812,"o":"m 0 0 l 383 1004 l 778 1004 l 778 903 l 552 903 l 552 581 l 732 581 l 732 481 l 552 481 l 552 100 l 812 100 l 812 0 l 418 0 l 418 247 l 210 247 l 117 0 l 0 0 m 249 347 l 418 347 l 418 791 l 249 347 m 415 1088 l 566 1289 l 716 1289 l 532 1088 l 415 1088 z "},"ǽ":{"ha":837,"x_min":33,"x_max":817,"o":"m 402 85 q 319 8 362 34 q 229 -17 275 -17 q 89 43 144 -17 q 33 195 33 103 q 113 371 33 300 q 309 442 192 442 l 350 442 l 350 521 q 323 620 350 587 q 243 652 296 652 q 96 616 180 652 l 96 718 q 280 753 189 753 q 379 732 338 753 q 446 672 421 712 q 595 753 510 753 q 761 664 706 753 q 817 396 817 574 l 817 350 l 484 350 l 485 315 q 523 146 485 203 q 637 90 561 90 q 812 134 713 90 l 812 28 q 602 -17 672 -17 q 487 8 537 -17 q 402 85 437 34 m 350 153 l 350 359 l 321 359 q 211 317 255 359 q 167 211 167 275 q 191 125 167 154 q 262 97 214 97 q 309 111 287 97 q 350 153 331 125 m 484 442 l 674 442 l 674 474 q 653 608 674 563 q 590 652 632 652 q 521 607 547 652 q 487 473 495 562 l 484 442 m 330 870 l 480 1071 l 631 1071 l 447 870 l 330 870 z "},"Ǿ":{"ha":837,"x_min":41,"x_max":795,"o":"m 136 127 q 41 504 41 286 q 143 888 41 747 q 419 1029 244 1029 q 644 945 543 1029 l 695 1029 l 795 1029 l 701 876 q 794 501 794 722 q 693 117 794 258 q 420 -25 592 -25 q 193 58 293 -25 l 142 -25 l 41 -25 l 136 127 m 214 252 l 580 844 q 418 928 511 928 q 242 826 300 928 q 183 520 183 724 q 214 252 183 369 m 256 160 q 416 75 326 75 q 593 177 534 75 q 652 483 652 279 q 623 750 652 631 l 256 160 m 300 1088 l 451 1289 l 602 1289 l 418 1088 l 300 1088 z "},"ǿ":{"ha":837,"x_min":71,"x_max":766,"o":"m 545 602 q 417 652 490 652 q 264 578 315 652 q 214 357 214 505 q 242 207 214 279 l 545 602 m 71 -17 l 156 94 q 71 369 71 203 q 164 650 71 547 q 415 753 256 753 q 617 697 533 753 l 661 753 l 766 753 l 680 641 q 766 371 766 536 q 673 86 766 190 q 420 -17 581 -17 q 218 38 301 -17 l 176 -17 l 71 -17 m 291 133 q 420 83 341 83 q 573 158 522 83 q 624 382 624 233 q 595 530 624 460 l 291 133 m 301 870 l 452 1071 l 602 1071 l 418 870 l 301 870 z "},"Ș":{"ha":837,"x_min":111,"x_max":758,"o":"m 111 23 l 111 155 q 414 75 288 75 q 565 124 507 75 q 623 250 623 172 q 504 408 623 346 l 309 510 q 118 768 118 610 q 200 959 118 889 q 423 1029 281 1029 q 685 988 538 1029 l 685 872 q 426 928 538 928 q 289 893 334 928 q 243 789 243 859 q 377 627 243 696 l 559 533 q 758 271 758 430 q 661 55 758 136 q 400 -25 564 -25 q 111 23 290 -25 m 344 -441 l 344 -401 q 382 -363 370 -394 q 395 -279 395 -333 l 395 -268 l 344 -268 l 344 -134 l 477 -134 l 477 -250 q 444 -387 477 -339 q 344 -441 410 -435 z "},"ș":{"ha":837,"x_min":127,"x_max":715,"o":"m 127 30 l 127 151 q 395 83 282 83 q 530 116 476 83 q 583 199 583 149 q 456 304 583 264 l 313 351 q 146 543 146 406 q 222 698 146 644 q 437 753 298 753 q 676 721 539 753 l 676 612 q 436 652 544 652 q 314 628 355 652 q 274 555 274 604 q 374 465 274 500 l 543 406 q 715 212 715 346 q 629 45 715 107 q 397 -17 543 -17 q 127 30 271 -17 m 330 -441 l 330 -401 q 369 -363 356 -394 q 382 -279 382 -333 l 382 -268 l 330 -268 l 330 -134 l 464 -134 l 464 -250 q 430 -387 464 -339 q 330 -441 397 -435 z "},"Ț":{"ha":837,"x_min":17,"x_max":820,"o":"m 351 0 l 351 903 l 17 903 l 17 1004 l 820 1004 l 820 903 l 486 903 l 486 0 l 351 0 m 351 -441 l 351 -401 q 390 -363 377 -394 q 403 -279 403 -333 l 403 -268 l 351 -268 l 351 -134 l 485 -134 l 485 -250 q 451 -387 485 -339 q 351 -441 418 -435 z "},"ț":{"ha":837,"x_min":88,"x_max":747,"o":"m 747 1 q 554 -17 647 -17 q 331 42 390 -17 q 272 264 272 100 l 272 619 l 88 619 l 88 720 l 272 720 l 272 878 l 406 878 l 406 720 l 732 720 l 732 619 l 406 619 l 406 242 q 414 155 406 179 q 448 114 422 132 q 579 83 494 83 q 747 102 665 83 l 747 1 m 406 -441 l 406 -401 q 445 -363 432 -394 q 458 -279 458 -333 l 458 -268 l 406 -268 l 406 -134 l 540 -134 l 540 -250 q 506 -387 540 -339 q 406 -441 473 -435 z "},"ʹ":{"ha":837,"x_min":276,"x_max":560,"o":"m 276 669 l 410 1071 l 560 1071 l 359 669 l 276 669 z "},"͵":{"ha":837,"x_min":276,"x_max":560,"o":"m 276 -201 l 410 201 l 560 201 l 359 -201 l 276 -201 z "},"ͺ":{"ha":837,"x_min":366,"x_max":567,"o":"m 567 -267 q 463 -293 516 -293 q 388 -263 410 -293 q 366 -159 366 -233 l 366 -67 l 471 -67 l 471 -121 q 481 -178 471 -159 q 511 -197 491 -197 q 567 -181 539 -197 l 567 -267 z "},";":{"ha":837,"x_min":318,"x_max":519,"o":"m 318 -218 l 318 -151 q 376 -108 355 -146 q 401 0 397 -71 l 318 0 l 318 201 l 519 201 l 519 79 q 469 -138 519 -64 q 318 -218 418 -212 m 318 536 l 318 736 l 519 736 l 519 536 l 318 536 z "},"΄":{"ha":837,"x_min":345,"x_max":492,"o":"m 368 870 l 345 1088 l 492 1088 l 469 870 l 368 870 z "},"΅":{"ha":837,"x_min":151,"x_max":686,"o":"m 151 870 l 151 987 l 268 987 l 268 870 l 151 870 m 374 870 l 351 1088 l 485 1088 l 463 870 l 374 870 m 569 870 l 569 987 l 686 987 l 686 870 l 569 870 z "},"Ά":{"ha":837,"x_min":8,"x_max":828,"o":"m 8 0 l 351 1004 l 485 1004 l 828 0 l 686 0 l 589 284 l 220 284 l 123 0 l 8 0 m 254 385 l 555 385 l 405 825 l 254 385 m 79 787 l 56 1004 l 202 1004 l 179 787 l 79 787 z "},"·":{"ha":837,"x_min":334,"x_max":502,"o":"m 334 284 l 334 452 l 502 452 l 502 284 l 334 284 z "},"Έ":{"ha":837,"x_min":0,"x_max":774,"o":"m 221 0 l 221 1004 l 742 1004 l 742 903 l 355 903 l 355 581 l 673 581 l 673 481 l 355 481 l 355 100 l 774 100 l 774 0 l 221 0 m 23 787 l 0 1004 l 146 1004 l 123 787 l 23 787 z "},"Ή":{"ha":837,"x_min":0,"x_max":778,"o":"m 218 0 l 218 1004 l 351 1004 l 351 577 l 644 577 l 644 1004 l 778 1004 l 778 0 l 644 0 l 644 477 l 351 477 l 351 0 l 218 0 m 23 787 l 0 1004 l 146 1004 l 123 787 l 23 787 z "},"Ί":{"ha":837,"x_min":2,"x_max":787,"o":"m 218 0 l 218 100 l 435 100 l 435 903 l 218 903 l 218 1004 l 787 1004 l 787 903 l 569 903 l 569 100 l 787 100 l 787 0 l 218 0 m 25 787 l 2 1004 l 149 1004 l 125 787 l 25 787 z "},"Ό":{"ha":837,"x_min":0,"x_max":811,"o":"m 463 -25 q 215 115 304 -25 q 125 502 125 255 q 216 890 125 751 q 469 1029 306 1029 q 721 890 630 1029 q 811 505 811 752 q 721 113 811 250 q 463 -25 630 -25 m 465 75 q 622 176 574 75 q 669 507 669 277 q 622 828 669 728 q 468 928 574 928 q 315 828 363 928 q 267 503 267 727 q 314 177 267 279 q 465 75 361 75 m 23 787 l 0 1004 l 146 1004 l 123 787 l 23 787 z "},"Ύ":{"ha":837,"x_min":0,"x_max":837,"o":"m 410 0 l 410 325 q 341 698 410 528 q 267 830 307 783 q 184 887 228 878 l 184 1004 q 376 893 291 1004 q 495 599 460 783 q 646 883 553 773 q 837 1004 738 992 l 837 903 q 731 834 781 887 q 635 690 680 781 q 543 325 543 511 l 543 0 l 410 0 m 23 787 l 0 1004 l 146 1004 l 123 787 l 23 787 z "},"Ώ":{"ha":837,"x_min":0,"x_max":821,"o":"m 431 117 l 431 0 l 134 0 l 134 117 l 321 117 q 180 361 227 240 q 133 603 133 483 q 227 912 133 795 q 477 1029 321 1029 q 726 912 631 1029 q 821 602 821 795 q 773 361 821 482 q 632 117 726 240 l 820 117 l 820 0 l 523 0 l 523 117 q 633 332 596 214 q 669 591 669 451 q 621 844 669 760 q 477 928 573 928 q 332 844 380 928 q 283 591 283 760 q 320 333 283 451 q 431 117 357 214 m 22 787 l 0 1004 l 146 1004 l 123 787 l 22 787 z "},"ΐ":{"ha":837,"x_min":78,"x_max":720,"o":"m 720 18 q 508 -17 609 -17 q 327 39 377 -17 q 276 242 276 96 l 276 736 l 410 736 l 410 256 q 434 115 410 147 q 543 83 458 83 q 720 119 608 83 l 720 18 m 78 870 l 78 987 l 195 987 l 195 870 l 78 870 m 302 870 l 279 1088 l 412 1088 l 390 870 l 302 870 m 496 870 l 496 987 l 614 987 l 614 870 l 496 870 z "},"Α":{"ha":837,"x_min":8,"x_max":828,"o":"m 8 0 l 351 1004 l 485 1004 l 828 0 l 686 0 l 589 284 l 220 284 l 123 0 l 8 0 m 254 385 l 555 385 l 405 825 l 254 385 z "},"Β":{"ha":837,"x_min":125,"x_max":754,"o":"m 125 0 l 125 1004 l 406 1004 q 637 949 564 1004 q 711 779 711 895 q 662 631 711 695 q 512 522 612 566 q 693 421 633 489 q 754 252 754 353 q 661 58 754 130 q 561 12 617 24 q 388 0 505 0 l 125 0 m 259 561 l 306 561 q 508 608 441 561 q 576 749 576 654 q 517 867 576 831 q 321 903 458 903 l 259 903 l 259 561 m 259 100 l 380 100 q 559 137 507 100 q 612 262 612 174 q 529 418 612 359 q 308 477 446 477 l 259 477 l 259 100 z "},"Γ":{"ha":837,"x_min":168,"x_max":787,"o":"m 168 0 l 168 1004 l 787 1004 l 787 903 l 301 903 l 301 0 l 168 0 z "},"Δ":{"ha":837,"x_min":8,"x_max":828,"o":"m 8 0 l 8 125 l 349 1004 l 490 1004 l 828 125 l 828 0 l 8 0 m 123 117 l 688 117 l 405 850 l 123 117 z "},"Ε":{"ha":837,"x_min":146,"x_max":766,"o":"m 146 0 l 146 1004 l 734 1004 l 734 903 l 280 903 l 280 581 l 665 581 l 665 481 l 280 481 l 280 100 l 766 100 l 766 0 l 146 0 z "},"Ζ":{"ha":837,"x_min":67,"x_max":770,"o":"m 67 0 l 67 100 l 613 903 l 100 903 l 100 1004 l 764 1004 l 764 903 l 219 100 l 770 100 l 770 0 l 67 0 z "},"Η":{"ha":837,"x_min":100,"x_max":736,"o":"m 100 0 l 100 1004 l 234 1004 l 234 577 l 602 577 l 602 1004 l 736 1004 l 736 0 l 602 0 l 602 477 l 234 477 l 234 0 l 100 0 z "},"Θ":{"ha":837,"x_min":42,"x_max":795,"o":"m 413 -25 q 142 118 243 -25 q 42 502 42 260 q 143 887 42 746 q 418 1029 244 1029 q 693 887 592 1029 q 795 505 795 746 q 693 116 795 256 q 413 -25 592 -25 m 415 75 q 593 183 534 75 q 653 505 653 290 q 594 823 653 717 q 418 928 536 928 q 243 822 301 928 q 184 503 184 715 q 242 182 184 289 q 415 75 300 75 m 247 469 l 247 569 l 590 569 l 590 469 l 247 469 z "},"Ι":{"ha":837,"x_min":117,"x_max":720,"o":"m 117 0 l 117 100 l 351 100 l 351 903 l 117 903 l 117 1004 l 720 1004 l 720 903 l 486 903 l 486 100 l 720 100 l 720 0 l 117 0 z "},"Κ":{"ha":837,"x_min":115,"x_max":815,"o":"m 115 0 l 115 1004 l 249 1004 l 249 511 l 613 1004 l 748 1004 l 397 527 l 815 0 l 655 0 l 249 511 l 249 0 l 115 0 z "},"Λ":{"ha":837,"x_min":8,"x_max":828,"o":"m 123 0 l 8 0 l 351 1004 l 485 1004 l 828 0 l 686 0 l 405 825 l 123 0 z "},"Μ":{"ha":837,"x_min":64,"x_max":772,"o":"m 64 0 l 64 1004 l 224 1004 l 416 431 l 605 1004 l 772 1004 l 772 0 l 663 0 l 663 885 l 466 268 l 353 268 l 157 869 l 157 0 l 64 0 z "},"Ν":{"ha":837,"x_min":100,"x_max":736,"o":"m 100 0 l 100 1004 l 227 1004 l 626 240 l 627 240 l 627 1004 l 736 1004 l 736 0 l 613 0 l 211 768 l 209 768 l 209 0 l 100 0 z "},"Ξ":{"ha":837,"x_min":50,"x_max":786,"o":"m 50 0 l 50 130 l 786 130 l 786 0 l 50 0 m 138 458 l 138 588 l 699 588 l 699 458 l 138 458 m 71 874 l 71 1004 l 766 1004 l 766 874 l 71 874 z "},"Ο":{"ha":837,"x_min":42,"x_max":795,"o":"m 413 -25 q 142 118 243 -25 q 42 502 42 260 q 143 887 42 746 q 418 1029 244 1029 q 693 887 592 1029 q 795 505 795 746 q 693 116 795 256 q 413 -25 592 -25 m 415 75 q 593 183 534 75 q 653 505 653 290 q 594 823 653 717 q 418 928 536 928 q 243 822 301 928 q 184 503 184 715 q 242 182 184 289 q 415 75 300 75 z "},"Π":{"ha":837,"x_min":100,"x_max":736,"o":"m 100 0 l 100 1004 l 736 1004 l 736 0 l 602 0 l 602 903 l 234 903 l 234 0 l 100 0 z "},"Ρ":{"ha":837,"x_min":155,"x_max":785,"o":"m 155 0 l 155 1004 l 437 1004 q 704 941 623 1004 q 785 734 785 878 q 679 490 785 578 q 386 401 573 401 l 288 401 l 288 0 l 155 0 m 288 502 l 372 502 q 574 560 507 502 q 642 735 642 618 q 587 861 642 819 q 421 903 532 903 l 288 903 l 288 502 z "},"Σ":{"ha":837,"x_min":48,"x_max":793,"o":"m 205 127 l 793 127 l 793 0 l 48 0 l 48 127 l 416 507 l 65 899 l 65 1004 l 772 1004 l 772 899 l 245 899 l 586 519 l 205 127 z "},"Τ":{"ha":837,"x_min":17,"x_max":820,"o":"m 351 0 l 351 903 l 17 903 l 17 1004 l 820 1004 l 820 903 l 486 903 l 486 0 l 351 0 z "},"Υ":{"ha":837,"x_min":8,"x_max":828,"o":"m 342 0 l 342 325 q 249 730 342 572 q 8 887 155 887 l 8 1004 q 279 906 178 1004 q 428 599 380 809 q 598 885 498 783 q 828 1004 699 986 l 828 903 q 578 701 681 869 q 476 325 476 532 l 476 0 l 342 0 z "},"Φ":{"ha":837,"x_min":15,"x_max":823,"o":"m 356 0 l 356 153 q 110 250 205 153 q 15 502 15 348 q 110 754 15 656 q 356 851 205 851 l 356 1004 l 481 1004 l 481 851 q 727 754 632 851 q 823 502 823 656 q 727 250 823 348 q 481 153 632 153 l 481 0 l 356 0 m 356 253 l 356 751 q 201 688 252 751 q 149 502 149 626 q 201 315 149 377 q 356 253 252 253 m 481 253 q 637 315 585 253 q 689 502 689 377 q 637 688 689 626 q 481 751 585 751 l 481 253 z "},"Χ":{"ha":837,"x_min":7,"x_max":827,"o":"m 7 0 l 346 513 l 37 1004 l 195 1004 l 431 629 l 679 1004 l 809 1004 l 494 528 l 827 0 l 668 0 l 410 411 l 138 0 l 7 0 z "},"Ψ":{"ha":837,"x_min":8,"x_max":828,"o":"m 485 422 l 485 0 l 351 0 l 351 422 q 192 500 251 435 q 114 681 132 564 l 100 766 l 91 814 q 64 881 82 859 q 18 903 45 903 l 8 903 l 8 1004 l 20 1004 q 152 959 109 1004 q 215 802 195 915 l 229 724 q 275 570 250 612 q 351 523 300 528 l 351 1004 l 485 1004 l 485 523 q 562 570 536 528 q 607 724 587 612 l 621 802 q 685 959 642 915 q 817 1004 728 1004 l 828 1004 l 828 903 l 819 903 q 770 885 785 903 q 745 814 755 867 l 736 766 l 722 681 q 644 500 703 564 q 485 422 585 435 z "},"Ω":{"ha":837,"x_min":33,"x_max":803,"o":"m 355 100 l 355 0 l 33 0 l 33 100 l 237 100 q 90 332 139 212 q 41 583 41 453 q 140 912 41 795 q 418 1029 239 1029 q 696 912 597 1029 q 795 583 795 795 q 746 332 795 453 q 599 100 696 212 l 803 100 l 803 0 l 481 0 l 481 100 q 614 310 576 209 q 652 555 652 411 q 594 835 652 742 q 418 928 535 928 q 242 835 301 928 q 184 555 184 742 q 222 310 184 410 q 355 100 260 209 z "},"Ϊ":{"ha":837,"x_min":117,"x_max":720,"o":"m 117 0 l 117 100 l 351 100 l 351 903 l 117 903 l 117 1004 l 720 1004 l 720 903 l 486 903 l 486 100 l 720 100 l 720 0 l 117 0 m 226 1088 l 226 1205 l 343 1205 l 343 1088 l 226 1088 m 494 1088 l 494 1205 l 611 1205 l 611 1088 l 494 1088 z "},"Ϋ":{"ha":837,"x_min":8,"x_max":828,"o":"m 342 0 l 342 325 q 249 730 342 572 q 8 887 155 887 l 8 1004 q 279 906 178 1004 q 428 599 380 809 q 598 885 498 783 q 828 1004 699 986 l 828 903 q 578 701 681 869 q 476 325 476 532 l 476 0 l 342 0 m 235 1088 l 235 1205 l 353 1205 l 353 1088 l 235 1088 m 503 1088 l 503 1205 l 621 1205 l 621 1088 l 503 1088 z "},"ά":{"ha":837,"x_min":67,"x_max":822,"o":"m 587 491 q 672 736 648 629 l 793 736 q 665 420 770 616 l 642 376 l 659 336 q 822 0 737 144 l 688 0 q 614 150 648 68 l 587 214 l 572 249 q 451 50 519 116 q 300 -17 383 -17 q 130 80 193 -17 q 67 341 67 176 q 145 636 67 518 q 341 753 223 753 q 471 697 418 753 q 587 491 524 641 m 524 352 l 509 388 q 410 596 446 543 q 334 650 374 650 q 245 565 281 650 q 210 351 210 480 q 237 153 210 218 q 319 87 264 87 q 421 153 370 87 q 524 352 472 219 m 364 870 l 341 1088 l 488 1088 l 465 870 l 364 870 z "},"έ":{"ha":837,"x_min":102,"x_max":726,"o":"m 726 128 l 726 24 q 488 -17 614 -17 q 199 81 295 -17 q 102 374 102 178 q 203 659 102 565 q 507 753 304 753 q 718 728 616 753 l 718 619 q 505 652 594 652 q 317 598 382 652 q 243 435 252 544 l 676 435 l 676 334 l 243 334 q 318 143 253 203 q 515 83 382 83 q 726 128 624 83 m 431 870 l 408 1088 l 555 1088 l 532 870 l 431 870 z "},"ή":{"ha":837,"x_min":79,"x_max":718,"o":"m 123 0 l 123 511 q 79 736 123 634 l 228 736 q 257 597 246 677 q 381 714 316 675 q 515 753 446 753 q 667 685 616 753 q 718 481 718 616 l 718 -268 l 584 -268 l 584 465 q 556 587 584 546 q 473 627 528 627 q 359 591 413 627 q 257 481 305 554 l 257 0 l 123 0 m 382 870 l 359 1088 l 505 1088 l 482 870 l 382 870 z "},"ί":{"ha":837,"x_min":270,"x_max":720,"o":"m 720 18 q 508 -17 609 -17 q 327 39 377 -17 q 276 242 276 96 l 276 736 l 410 736 l 410 256 q 434 115 410 147 q 543 83 458 83 q 720 119 608 83 l 720 18 m 293 870 l 270 1088 l 416 1088 l 393 870 l 293 870 z "},"ΰ":{"ha":837,"x_min":121,"x_max":741,"o":"m 121 736 l 255 736 l 255 368 q 289 142 255 201 q 419 83 323 83 q 567 151 514 83 q 620 340 620 219 q 594 545 620 446 q 515 736 568 644 l 661 736 q 721 554 701 646 q 741 369 741 462 q 651 86 741 190 q 408 -17 562 -17 q 201 56 277 -17 q 138 160 155 100 q 121 340 121 221 l 121 736 m 149 870 l 149 987 l 266 987 l 266 870 l 149 870 m 372 870 l 349 1088 l 483 1088 l 460 870 l 372 870 m 567 870 l 567 987 l 684 987 l 684 870 l 567 870 z "},"α":{"ha":837,"x_min":67,"x_max":822,"o":"m 587 491 q 672 736 648 629 l 793 736 q 665 420 770 616 l 642 376 l 659 336 q 822 0 737 144 l 688 0 q 614 150 648 68 l 587 214 l 572 249 q 451 50 519 116 q 300 -17 383 -17 q 130 80 193 -17 q 67 341 67 176 q 145 636 67 518 q 341 753 223 753 q 471 697 418 753 q 587 491 524 641 m 524 352 l 509 388 q 410 596 446 543 q 334 650 374 650 q 245 565 281 650 q 210 351 210 480 q 237 153 210 218 q 319 87 264 87 q 421 153 370 87 q 524 352 472 219 z "},"β":{"ha":837,"x_min":134,"x_max":770,"o":"m 134 -268 l 134 715 q 213 989 134 891 q 434 1088 292 1088 q 623 1027 551 1088 q 694 866 694 966 q 511 596 694 692 q 699 476 629 559 q 770 291 770 393 q 676 70 770 156 q 437 -17 583 -17 q 267 12 344 -17 l 267 -268 l 134 -268 m 317 619 l 342 619 q 495 690 431 619 q 560 856 560 760 q 524 951 560 916 q 425 987 487 987 q 307 924 346 987 q 267 736 267 861 l 267 127 l 267 127 l 292 117 q 435 83 349 83 q 577 142 519 83 q 635 286 635 201 q 556 455 635 391 q 344 519 477 519 l 317 519 l 317 619 z "},"γ":{"ha":837,"x_min":0,"x_max":836,"o":"m 342 72 q 202 389 316 168 q 0 736 88 610 l 153 736 q 302 479 238 608 l 370 341 q 427 216 409 262 q 652 633 512 395 l 705 721 l 713 736 l 836 736 q 749 595 804 690 l 656 432 q 478 84 541 233 q 503 -71 503 -5 q 461 -268 503 -160 l 342 -268 q 307 -101 307 -183 q 342 72 307 -14 z "},"δ":{"ha":837,"x_min":67,"x_max":770,"o":"m 338 678 q 308 699 315 694 l 239 743 q 141 825 174 784 q 109 907 109 867 q 194 1040 109 991 q 431 1088 280 1088 q 648 1068 556 1088 l 648 957 q 417 987 524 987 q 285 970 329 987 q 241 918 241 952 q 304 850 241 892 l 372 805 q 435 766 378 801 l 499 727 q 713 551 656 631 q 770 346 770 471 q 672 83 770 184 q 418 -17 575 -17 q 165 81 264 -17 q 67 332 67 179 q 135 542 67 455 q 338 678 203 629 m 441 616 l 425 610 q 263 498 317 568 q 209 330 209 428 q 269 153 209 222 q 423 83 330 83 q 569 156 511 83 q 627 338 627 228 q 586 496 627 433 q 441 616 545 558 z "},"ε":{"ha":837,"x_min":102,"x_max":726,"o":"m 726 128 l 726 24 q 488 -17 614 -17 q 199 81 295 -17 q 102 374 102 178 q 203 659 102 565 q 507 753 304 753 q 718 728 616 753 l 718 619 q 505 652 594 652 q 317 598 382 652 q 243 435 252 544 l 676 435 l 676 334 l 243 334 q 318 143 253 203 q 515 83 382 83 q 726 128 624 83 z "},"ζ":{"ha":837,"x_min":21,"x_max":829,"o":"m 444 -279 l 444 -168 q 567 -184 527 -184 q 682 -158 644 -184 q 720 -78 720 -131 q 689 -15 720 -29 q 555 0 659 0 l 504 0 q 220 85 315 0 q 126 340 126 170 q 180 588 126 455 q 321 816 234 720 q 268 813 284 813 q 148 825 210 813 q 21 861 86 837 l 21 979 q 182 919 98 939 q 357 899 266 899 l 404 899 q 583 1033 490 986 q 773 1088 675 1080 l 806 996 q 636 876 727 921 q 444 816 546 831 q 312 578 355 696 q 268 347 268 461 q 328 171 268 224 q 526 117 387 117 l 557 117 q 765 74 702 117 q 829 -66 829 31 q 754 -230 829 -176 q 530 -285 679 -285 q 444 -279 503 -285 z "},"η":{"ha":837,"x_min":79,"x_max":718,"o":"m 123 0 l 123 511 q 79 736 123 634 l 228 736 q 257 597 246 677 q 381 714 316 675 q 515 753 446 753 q 667 685 616 753 q 718 481 718 616 l 718 -268 l 584 -268 l 584 465 q 556 587 584 546 q 473 627 528 627 q 359 591 413 627 q 257 481 305 554 l 257 0 l 123 0 z "},"θ":{"ha":837,"x_min":83,"x_max":753,"o":"m 83 535 q 170 945 83 803 q 418 1088 256 1088 q 667 945 581 1088 q 753 536 753 803 q 667 125 753 268 q 418 -17 581 -17 q 167 121 251 -17 q 83 535 83 259 m 222 594 l 614 594 q 559 877 614 766 q 418 987 504 987 q 277 877 332 987 q 222 594 222 766 m 614 494 l 222 494 q 275 196 222 309 q 418 83 329 83 q 559 199 504 83 q 614 494 614 314 z "},"ι":{"ha":837,"x_min":276,"x_max":720,"o":"m 720 18 q 508 -17 609 -17 q 327 39 377 -17 q 276 242 276 96 l 276 736 l 410 736 l 410 256 q 434 115 410 147 q 543 83 458 83 q 720 119 608 83 l 720 18 z "},"κ":{"ha":837,"x_min":134,"x_max":799,"o":"m 134 0 l 134 736 l 267 736 l 267 376 l 339 454 q 574 688 493 625 q 708 736 633 736 l 724 736 l 724 616 q 698 618 707 618 q 627 591 669 618 q 533 511 586 564 l 461 437 l 415 391 l 799 0 l 638 0 l 267 376 l 267 0 l 134 0 z "},"λ":{"ha":837,"x_min":28,"x_max":834,"o":"m 356 673 l 286 824 q 215 929 248 905 q 110 954 182 954 l 74 954 l 74 1071 l 115 1071 q 285 1040 225 1071 q 382 932 345 1008 l 417 858 l 675 307 l 709 231 q 834 0 780 79 l 679 0 q 605 140 630 86 l 557 243 l 420 536 l 157 0 l 28 0 l 356 673 z "},"μ":{"ha":837,"x_min":123,"x_max":762,"o":"m 123 -268 l 123 736 l 257 736 l 257 361 q 299 174 257 235 q 429 113 342 113 q 511 149 471 113 q 588 258 551 185 l 588 736 l 722 736 l 722 227 q 762 0 722 80 l 616 0 q 591 117 602 39 q 588 138 590 124 q 515 22 557 60 q 422 -17 473 -17 q 336 7 377 -17 q 257 81 294 32 l 257 71 l 257 -268 l 123 -268 z "},"ν":{"ha":837,"x_min":13,"x_max":787,"o":"m 358 0 l 347 26 q 279 178 306 122 l 188 370 q 99 562 144 462 q 13 736 48 674 l 159 736 q 234 578 193 670 q 297 440 283 468 l 374 278 l 428 159 q 442 130 431 154 q 617 450 574 347 q 661 646 661 554 q 644 736 661 692 l 776 736 q 787 658 787 702 q 753 490 787 576 q 616 223 720 405 q 515 43 570 140 l 492 0 l 358 0 z "},"ξ":{"ha":837,"x_min":8,"x_max":795,"o":"m 380 -278 l 380 -169 q 521 -184 460 -184 q 648 -159 606 -184 q 690 -86 690 -135 q 652 -21 690 -43 q 538 0 614 0 l 467 0 q 204 73 299 0 q 109 273 109 145 q 169 446 109 372 q 352 568 230 520 q 213 661 259 604 q 167 793 167 717 q 217 929 167 860 q 117 940 169 929 q 8 975 64 951 l 8 1084 q 137 1040 65 1057 q 297 1017 210 1023 l 328 1015 q 581 1088 450 1088 q 677 1079 627 1088 l 698 1015 q 564 949 639 971 q 398 928 489 928 l 347 929 q 301 811 301 876 q 380 660 301 717 q 589 602 458 602 l 677 602 l 677 502 l 585 502 q 334 446 418 502 q 251 280 251 391 q 303 158 251 199 q 460 117 355 117 l 527 117 q 728 70 661 117 q 795 -71 795 23 q 711 -227 795 -169 q 484 -284 627 -284 q 422 -281 461 -284 l 380 -278 z "},"ο":{"ha":837,"x_min":71,"x_max":766,"o":"m 413 -17 q 163 87 256 -17 q 71 368 71 191 q 164 650 71 547 q 418 753 257 753 q 673 650 580 753 q 766 370 766 548 q 672 85 766 187 q 413 -17 579 -17 m 416 83 q 571 155 519 83 q 623 370 623 227 q 569 577 623 502 q 418 652 515 652 q 268 577 322 652 q 214 368 214 502 q 268 159 214 235 q 416 83 321 83 z "},"ρ":{"ha":837,"x_min":121,"x_max":762,"o":"m 121 -268 l 121 283 q 206 635 121 517 q 460 753 291 753 q 682 669 602 753 q 762 436 762 585 q 656 123 762 245 q 386 0 550 0 q 255 24 314 0 l 255 -268 l 121 -268 m 255 153 q 401 100 319 100 q 565 188 501 100 q 628 414 628 275 q 577 587 628 522 q 444 652 527 652 q 302 575 349 652 q 255 342 255 497 l 255 153 z "},"ς":{"ha":837,"x_min":90,"x_max":789,"o":"m 378 -172 q 505 -184 443 -184 q 640 -159 595 -184 q 684 -82 684 -133 q 644 -20 684 -41 q 522 0 603 0 l 454 0 q 185 83 279 0 q 90 317 90 165 q 228 628 90 504 q 571 753 365 753 q 713 738 652 753 l 713 634 q 565 653 643 653 q 316 568 404 653 q 228 327 228 483 q 287 167 228 217 q 473 117 345 117 l 521 117 q 722 70 654 117 q 789 -71 789 23 q 706 -227 789 -170 q 480 -285 623 -285 q 378 -276 430 -285 l 378 -172 z "},"σ":{"ha":837,"x_min":42,"x_max":837,"o":"m 488 736 l 837 736 l 837 619 l 638 619 q 703 366 703 515 q 615 85 703 187 q 373 -17 528 -17 q 130 85 218 -17 q 42 368 42 188 q 130 651 42 549 q 372 753 218 753 q 488 736 424 753 m 370 83 q 519 155 469 83 q 570 370 570 227 q 520 582 570 511 q 373 652 471 652 q 225 581 275 652 q 176 368 176 510 q 228 159 176 235 q 370 83 279 83 z "},"τ":{"ha":837,"x_min":38,"x_max":791,"o":"m 394 0 q 359 124 371 52 q 348 290 348 196 l 348 619 l 208 619 q 119 611 161 619 q 38 585 76 602 l 38 709 q 119 730 74 723 q 217 736 163 736 l 791 736 l 791 619 l 481 619 l 481 215 q 495 95 481 149 q 535 0 508 41 l 394 0 z "},"υ":{"ha":837,"x_min":121,"x_max":741,"o":"m 121 736 l 255 736 l 255 368 q 289 142 255 201 q 419 83 323 83 q 567 151 514 83 q 620 340 620 219 q 594 545 620 446 q 515 736 568 644 l 661 736 q 721 554 701 646 q 741 369 741 462 q 651 86 741 190 q 408 -17 562 -17 q 201 56 277 -17 q 138 160 155 100 q 121 340 121 221 l 121 736 z "},"φ":{"ha":837,"x_min":33,"x_max":803,"o":"m 334 -268 l 334 0 q 111 119 189 9 q 33 424 33 229 q 85 736 33 587 l 209 736 q 158 422 158 559 q 198 196 158 270 q 334 100 239 122 l 334 278 q 382 652 334 566 q 561 753 437 753 q 738 668 672 753 q 803 439 803 584 q 711 129 803 246 q 460 0 620 12 l 460 -268 l 334 -268 m 460 100 q 623 200 568 117 q 677 436 677 284 q 643 592 677 532 q 553 652 608 652 q 479 602 498 652 q 460 401 460 551 l 460 302 l 460 100 z "},"χ":{"ha":837,"x_min":34,"x_max":806,"o":"m 342 246 l 199 490 q 168 543 174 532 l 121 618 l 67 707 q 44 736 61 715 l 199 736 q 329 535 265 646 l 368 467 l 421 376 l 638 736 l 754 736 l 479 277 l 652 -22 l 697 -96 l 744 -172 q 806 -268 766 -209 l 652 -268 l 643 -254 q 519 -55 571 -142 l 401 146 l 151 -268 l 34 -268 l 342 246 z "},"ψ":{"ha":837,"x_min":25,"x_max":803,"o":"m 355 100 l 355 870 l 489 870 l 489 100 q 624 203 579 121 q 669 429 669 285 q 656 601 669 524 q 616 736 642 677 l 751 736 q 790 589 777 667 q 803 425 803 511 q 719 121 803 235 q 489 0 634 7 l 489 -268 l 355 -268 l 355 0 q 126 117 193 17 q 58 438 58 216 l 58 542 q 50 649 58 600 q 25 736 41 698 l 159 736 q 184 649 176 698 q 193 542 193 600 l 193 447 q 229 197 193 275 q 355 100 266 119 z "},"ω":{"ha":837,"x_min":25,"x_max":812,"o":"m 421 188 q 349 34 393 85 q 243 -17 304 -17 q 85 83 145 -17 q 25 345 25 183 q 50 557 25 459 q 123 736 74 654 l 262 736 q 180 560 208 659 q 153 342 153 461 q 184 163 153 235 q 260 92 214 92 q 320 148 293 92 q 370 316 348 204 q 338 486 338 399 q 370 665 338 581 l 475 665 q 507 486 507 581 q 475 316 507 399 q 522 148 494 204 q 587 92 550 92 q 656 164 629 92 q 683 345 683 236 q 657 567 683 469 q 582 736 632 665 l 721 736 q 789 578 766 669 q 812 372 812 487 q 750 92 812 201 q 593 -17 689 -17 q 483 34 526 -17 q 421 188 440 85 z "},"ϊ":{"ha":837,"x_min":159,"x_max":720,"o":"m 720 18 q 508 -17 609 -17 q 327 39 377 -17 q 276 242 276 96 l 276 736 l 410 736 l 410 256 q 434 115 410 147 q 543 83 458 83 q 720 119 608 83 l 720 18 m 159 870 l 159 987 l 277 987 l 277 870 l 159 870 m 427 870 l 427 987 l 545 987 l 545 870 l 427 870 z "},"ϋ":{"ha":837,"x_min":121,"x_max":741,"o":"m 121 736 l 255 736 l 255 368 q 289 142 255 201 q 419 83 323 83 q 567 151 514 83 q 620 340 620 219 q 594 545 620 446 q 515 736 568 644 l 661 736 q 721 554 701 646 q 741 369 741 462 q 651 86 741 190 q 408 -17 562 -17 q 201 56 277 -17 q 138 160 155 100 q 121 340 121 221 l 121 736 m 208 870 l 208 987 l 325 987 l 325 870 l 208 870 m 475 870 l 475 987 l 593 987 l 593 870 l 475 870 z "},"ό":{"ha":837,"x_min":71,"x_max":766,"o":"m 413 -17 q 163 87 256 -17 q 71 368 71 191 q 164 650 71 547 q 418 753 257 753 q 673 650 580 753 q 766 370 766 548 q 672 85 766 187 q 413 -17 579 -17 m 416 83 q 571 155 519 83 q 623 370 623 227 q 569 577 623 502 q 418 652 515 652 q 268 577 322 652 q 214 368 214 502 q 268 159 214 235 q 416 83 321 83 m 368 870 l 345 1088 l 492 1088 l 469 870 l 368 870 z "},"ύ":{"ha":837,"x_min":121,"x_max":741,"o":"m 121 736 l 255 736 l 255 368 q 289 142 255 201 q 419 83 323 83 q 567 151 514 83 q 620 340 620 219 q 594 545 620 446 q 515 736 568 644 l 661 736 q 721 554 701 646 q 741 369 741 462 q 651 86 741 190 q 408 -17 562 -17 q 201 56 277 -17 q 138 160 155 100 q 121 340 121 221 l 121 736 m 359 870 l 336 1088 l 483 1088 l 460 870 l 359 870 z "},"ώ":{"ha":837,"x_min":25,"x_max":812,"o":"m 421 188 q 349 34 393 85 q 243 -17 304 -17 q 85 83 145 -17 q 25 345 25 183 q 50 557 25 459 q 123 736 74 654 l 262 736 q 180 560 208 659 q 153 342 153 461 q 184 163 153 235 q 260 92 214 92 q 320 148 293 92 q 370 316 348 204 q 338 486 338 399 q 370 665 338 581 l 475 665 q 507 486 507 581 q 475 316 507 399 q 522 148 494 204 q 587 92 550 92 q 656 164 629 92 q 683 345 683 236 q 657 567 683 469 q 582 736 632 665 l 721 736 q 789 578 766 669 q 812 372 812 487 q 750 92 812 201 q 593 -17 689 -17 q 483 34 526 -17 q 421 188 440 85 m 371 870 l 348 1088 l 494 1088 l 471 870 l 371 870 z "},"ϐ":{"ha":837,"x_min":96,"x_max":762,"o":"m 269 793 q 350 750 307 764 q 439 736 392 736 q 574 772 529 736 q 619 878 619 807 q 589 960 619 932 q 500 987 559 987 q 365 939 422 987 q 269 793 307 890 m 247 704 q 222 497 222 610 q 231 361 222 422 q 355 451 289 421 q 496 481 421 481 q 689 418 617 481 q 762 248 762 355 q 677 54 762 125 q 447 -17 593 -17 q 184 111 271 -17 q 96 494 96 238 q 208 929 96 770 q 513 1088 319 1088 q 687 1037 629 1088 q 745 886 745 987 q 661 706 745 775 q 443 636 576 636 q 338 653 387 636 q 247 704 289 670 m 247 258 q 332 127 278 170 q 463 83 386 83 q 589 122 547 83 q 631 237 631 160 q 591 345 631 309 q 471 381 551 381 q 348 350 404 381 q 247 258 292 319 z "},"ϑ":{"ha":837,"x_min":67,"x_max":800,"o":"m 79 301 l 202 301 q 227 235 215 273 l 239 190 q 283 110 255 136 q 351 83 311 83 q 482 189 433 83 q 532 465 532 294 l 532 494 l 415 494 q 152 554 236 494 q 67 743 67 614 q 157 984 67 881 q 366 1088 247 1088 q 576 968 498 1088 q 676 611 654 849 l 800 611 l 800 494 l 676 494 q 584 127 676 271 q 350 -17 492 -17 q 215 24 269 -17 q 134 146 161 64 l 115 208 l 104 240 q 79 301 94 271 m 532 611 l 532 631 q 483 889 532 790 q 357 987 435 987 q 236 916 288 987 q 184 749 184 844 q 235 638 184 666 q 437 611 285 611 l 532 611 z "},"ϒ":{"ha":837,"x_min":4,"x_max":832,"o":"m 347 0 l 347 325 q 255 706 347 524 q 4 1004 163 888 l 197 1004 q 329 843 271 941 q 429 610 387 744 q 570 905 473 798 q 674 984 625 964 q 815 1004 724 1004 l 832 1004 l 832 903 l 815 903 l 766 904 q 568 726 655 904 q 480 323 480 549 l 480 0 l 347 0 z "},"ϓ":{"ha":837,"x_min":0,"x_max":833,"o":"m 17 736 l 0 1004 l 117 1004 l 100 736 l 17 736 m 397 0 l 397 325 q 319 685 397 489 q 125 1004 240 882 l 294 1004 q 398 815 351 919 q 481 590 445 712 q 611 900 527 797 q 816 1004 694 1004 l 833 1004 l 833 903 l 816 903 q 713 874 751 903 q 632 758 675 844 q 531 323 531 556 l 531 0 l 397 0 z "},"ϔ":{"ha":837,"x_min":4,"x_max":832,"o":"m 347 0 l 347 325 q 255 706 347 524 q 4 1004 163 888 l 197 1004 q 329 843 271 941 q 429 610 387 744 q 570 905 473 798 q 674 984 625 964 q 815 1004 724 1004 l 832 1004 l 832 903 l 815 903 l 766 904 q 568 726 655 904 q 480 323 480 549 l 480 0 l 347 0 m 236 1088 l 236 1205 l 353 1205 l 353 1088 l 236 1088 m 504 1088 l 504 1205 l 621 1205 l 621 1088 l 504 1088 z "},"ϕ":{"ha":837,"x_min":33,"x_max":803,"o":"m 355 -268 l 355 22 q 120 115 207 22 q 33 366 33 208 q 120 618 33 526 q 355 711 206 711 l 355 1071 l 481 1071 l 481 711 q 716 618 630 711 q 803 366 803 526 q 716 115 803 208 q 481 22 629 22 l 481 -268 l 355 -268 m 359 609 q 209 543 259 604 q 159 364 159 481 q 212 187 159 251 q 359 123 265 123 l 359 609 m 477 609 l 477 123 q 624 188 571 123 q 677 364 677 252 q 627 543 677 481 q 477 609 577 604 z "},"ϖ":{"ha":837,"x_min":0,"x_max":837,"o":"m 111 636 q 48 628 75 636 q 0 605 20 621 l 0 711 q 63 730 28 724 q 139 736 98 736 l 837 736 l 837 636 l 737 636 q 786 477 770 552 q 803 338 803 403 q 742 83 803 184 q 587 -17 681 -17 q 488 34 529 -17 q 424 188 447 85 q 359 34 400 85 q 260 -17 318 -17 q 106 83 167 -17 q 45 337 45 183 q 61 477 45 402 q 111 636 77 552 m 374 536 l 473 536 q 503 406 503 459 q 473 275 503 349 q 516 138 491 183 q 572 92 541 92 q 649 159 619 92 q 678 332 678 226 q 661 473 678 397 q 608 636 643 549 l 239 636 q 187 474 204 550 q 170 332 170 397 q 199 159 170 226 q 275 92 229 92 q 331 138 306 92 q 374 275 356 183 q 345 404 345 349 q 374 536 345 459 z "},"Ϛ":{"ha":837,"x_min":42,"x_max":821,"o":"m 393 -283 l 393 -180 q 503 -184 460 -184 q 653 -158 603 -184 q 703 -80 703 -132 q 659 -20 703 -40 q 528 0 615 0 l 473 0 q 146 95 250 0 q 42 395 42 191 q 197 844 42 659 q 574 1029 353 1029 q 779 1004 680 1029 l 779 895 q 573 928 663 928 q 294 779 409 928 q 180 415 180 630 q 272 180 180 256 q 494 125 336 125 l 547 125 q 752 77 684 125 q 821 -68 821 28 q 738 -231 821 -176 q 490 -285 655 -285 l 460 -284 l 416 -283 l 393 -283 z "},"Ϝ":{"ha":837,"x_min":168,"x_max":787,"o":"m 168 0 l 168 1004 l 787 1004 l 787 903 l 301 903 l 301 541 l 715 541 l 715 441 l 301 441 l 301 0 l 168 0 z "},"Ϟ":{"ha":837,"x_min":83,"x_max":753,"o":"m 438 0 l 585 439 l 83 439 l 272 1004 l 395 1004 l 252 573 l 753 573 l 562 0 l 438 0 z "},"Ϡ":{"ha":837,"x_min":0,"x_max":803,"o":"m 764 -26 l 662 8 q 699 227 699 117 q 667 432 699 323 l 294 177 l 229 265 l 625 536 q 511 702 576 627 l 113 426 l 50 513 l 429 777 q 223 888 330 851 q 0 926 116 926 l 0 1032 q 309 973 167 1032 q 568 795 451 913 q 744 533 686 676 q 803 221 803 389 q 764 -26 803 102 z "},"Ϣ":{"ha":837,"x_min":17,"x_max":823,"o":"m 117 1004 l 248 1004 q 175 771 199 901 q 151 483 151 641 q 179 205 151 311 q 252 100 207 100 q 335 239 302 100 l 358 333 q 365 380 360 341 q 333 637 333 538 q 360 848 333 720 l 368 887 l 469 887 l 477 848 q 504 637 504 720 q 473 380 504 538 q 479 333 477 341 l 503 239 q 585 100 536 100 q 659 205 631 100 q 686 482 686 311 q 662 771 686 641 q 589 1004 637 901 l 721 1004 q 808 682 770 894 q 823 406 823 490 q 709 -157 823 -16 q 558 -257 651 -230 q 279 -284 466 -284 l 279 -184 q 599 -131 515 -184 q 703 82 683 -79 q 587 -25 655 -25 q 482 34 519 -25 q 418 244 446 92 q 354 32 391 90 q 243 -25 317 -25 q 79 119 141 -25 q 17 499 17 262 q 117 1004 17 785 z "},"ϣ":{"ha":837,"x_min":25,"x_max":811,"o":"m 421 188 q 349 34 393 85 q 243 -17 304 -17 q 85 83 145 -17 q 25 345 25 183 q 50 557 25 459 q 123 736 74 654 l 262 736 q 180 560 208 659 q 153 342 153 461 q 184 163 153 235 q 260 92 214 92 q 320 148 293 92 q 370 316 348 204 q 338 486 338 399 q 370 665 338 581 l 475 665 q 507 486 507 581 q 475 316 507 399 q 522 148 494 204 q 587 92 550 92 q 656 164 629 92 q 683 345 683 236 q 657 567 683 469 q 582 736 632 665 l 721 736 q 788 572 766 669 q 811 348 811 475 q 782 39 811 166 q 696 -159 753 -87 q 547 -258 638 -232 q 263 -284 456 -284 l 263 -184 q 561 -144 485 -184 q 669 31 637 -104 q 586 -17 629 -17 q 481 34 522 -17 q 421 188 440 85 z "},"Ϥ":{"ha":837,"x_min":54,"x_max":736,"o":"m 593 564 l 593 1004 l 736 1004 l 736 0 l 593 0 l 593 437 q 475 367 538 390 q 344 343 413 343 q 132 428 210 343 q 54 661 54 513 q 71 812 54 726 q 119 1004 87 898 l 255 1004 q 211 829 225 911 q 196 679 196 748 q 241 514 196 569 q 376 460 286 460 q 489 486 435 460 q 593 564 543 512 z "},"ϥ":{"ha":837,"x_min":75,"x_max":703,"o":"m 569 736 l 703 736 l 703 -268 l 569 -268 l 569 149 q 456 24 517 66 q 328 -18 396 -18 q 146 73 216 -18 q 75 306 75 163 q 101 505 75 397 q 180 736 127 613 l 312 736 q 235 511 260 616 q 209 316 209 406 q 245 147 209 203 q 353 91 281 91 q 453 132 399 91 q 569 257 507 174 l 569 736 z "},"Ϧ":{"ha":837,"x_min":100,"x_max":782,"o":"m 100 0 l 100 1004 l 243 1004 l 243 646 q 359 764 295 724 q 500 803 424 803 q 711 687 641 803 q 782 338 782 570 q 673 -116 782 35 q 346 -268 564 -268 q 230 -252 290 -268 l 230 -146 q 339 -168 288 -168 q 565 -46 490 -168 q 640 322 640 77 q 595 592 640 502 q 460 682 550 682 q 352 644 406 682 q 243 532 298 606 l 243 0 l 100 0 z "},"ϧ":{"ha":837,"x_min":134,"x_max":762,"o":"m 134 0 l 134 736 l 268 736 l 268 446 q 381 564 321 524 q 507 603 441 603 q 693 508 625 603 q 762 250 762 413 q 655 -125 762 18 q 376 -268 549 -268 q 268 -252 330 -268 l 268 -146 q 370 -169 330 -169 q 555 -50 481 -169 q 628 250 628 70 q 588 420 628 363 q 467 477 547 477 q 369 447 410 477 q 268 331 327 416 l 268 0 l 134 0 z "},"Ϩ":{"ha":837,"x_min":75,"x_max":762,"o":"m 142 890 l 142 1006 q 408 1029 298 1029 q 677 971 594 1029 q 760 782 760 913 q 642 516 760 621 q 220 304 523 412 q 437 148 355 190 q 610 106 519 106 q 762 121 670 106 l 762 -10 q 612 -25 669 -25 q 364 41 481 -25 q 75 276 246 106 l 75 376 q 496 565 371 473 q 622 775 622 656 q 567 884 622 848 q 402 921 512 921 q 142 890 300 921 z "},"ϩ":{"ha":837,"x_min":63,"x_max":747,"o":"m 130 618 l 130 730 q 389 753 279 753 q 653 690 565 753 q 741 502 741 627 q 635 262 741 354 q 200 33 530 171 q 445 -134 370 -97 q 616 -170 520 -170 q 747 -155 671 -170 l 747 -270 q 607 -284 680 -284 q 393 -242 479 -284 q 121 -47 307 -200 l 63 0 l 63 100 q 476 295 346 202 q 607 489 607 389 q 544 611 607 570 q 355 652 481 652 q 130 618 260 652 z "},"Ϫ":{"ha":837,"x_min":33,"x_max":803,"o":"m 33 0 l 33 109 l 353 624 l 258 789 q 191 881 218 859 q 117 903 163 903 q 42 888 83 903 l 42 996 q 142 1013 87 1013 q 273 981 225 1013 q 370 863 321 950 l 433 753 l 590 1004 l 728 1004 l 500 637 l 803 109 l 803 0 l 33 0 m 171 109 l 649 109 l 420 508 l 171 109 z "},"ϫ":{"ha":837,"x_min":52,"x_max":785,"o":"m 90 640 l 90 740 q 175 753 131 753 q 270 733 233 753 q 354 652 307 712 l 435 552 l 602 736 l 749 736 l 500 465 l 785 100 l 785 0 l 52 0 l 52 100 l 347 461 l 240 600 q 147 652 200 652 q 90 640 120 652 m 419 372 l 198 100 l 630 100 l 419 372 z "},"Ϭ":{"ha":837,"x_min":33,"x_max":803,"o":"m 753 978 l 753 850 q 615 903 675 885 q 509 920 554 920 q 293 839 374 920 q 186 597 212 758 q 307 702 239 667 q 457 736 375 736 q 705 630 606 736 q 803 363 803 524 q 701 82 803 189 q 435 -25 600 -25 q 138 96 243 -25 q 33 437 33 217 q 163 868 33 707 q 512 1029 294 1029 q 626 1017 566 1029 q 753 978 686 1004 m 661 359 q 601 559 661 486 q 437 632 541 632 q 251 553 326 632 q 176 359 176 475 q 250 162 176 245 q 429 79 324 79 q 594 159 528 79 q 661 359 661 239 z "},"ϭ":{"ha":837,"x_min":67,"x_max":770,"o":"m 728 1045 l 728 928 q 631 960 679 949 q 538 970 583 970 q 313 878 395 970 q 209 600 231 785 q 434 694 304 694 q 678 597 587 694 q 770 337 770 499 q 673 81 770 178 q 419 -17 576 -17 q 155 98 243 -17 q 67 444 67 213 q 192 905 67 739 q 536 1071 316 1071 q 625 1064 577 1071 q 728 1045 673 1058 m 416 83 q 571 152 514 83 q 628 338 628 220 q 575 530 628 466 q 418 594 523 594 q 210 338 210 594 q 266 153 210 222 q 416 83 322 83 z "},"Ϯ":{"ha":837,"x_min":21,"x_max":816,"o":"m 347 0 l 347 696 l 21 696 l 21 803 l 347 803 l 347 1004 l 490 1004 l 490 803 l 816 803 l 816 696 l 490 696 l 490 0 l 347 0 z "},"ϯ":{"ha":837,"x_min":58,"x_max":778,"o":"m 351 636 l 58 636 l 58 736 l 351 736 l 351 1071 l 485 1071 l 485 736 l 778 736 l 778 636 l 485 636 l 485 -268 l 351 -268 l 351 636 z "},"ϰ":{"ha":837,"x_min":75,"x_max":761,"o":"m 149 -17 l 75 28 q 130 157 90 92 q 238 286 171 221 q 243 367 243 328 q 216 568 243 515 q 111 620 189 620 q 75 615 95 620 l 75 737 q 164 753 128 753 q 301 677 260 753 q 341 418 341 601 l 340 376 q 483 481 383 417 l 497 490 q 569 653 519 587 q 693 753 618 718 l 761 703 q 695 564 726 610 q 592 448 664 517 q 590 385 590 420 l 589 299 q 619 163 589 208 q 707 117 648 117 q 761 125 729 117 l 761 1 q 667 -17 705 -17 q 534 65 578 -17 q 490 313 490 148 l 490 356 q 340 228 420 311 q 291 93 326 139 q 149 -17 255 47 z "},"ϱ":{"ha":837,"x_min":104,"x_max":749,"o":"m 741 -268 l 531 -268 q 199 -146 294 -268 q 104 277 104 -25 q 125 507 104 425 q 199 650 146 590 q 446 753 290 753 q 668 670 587 753 q 749 444 749 588 q 638 158 749 275 q 367 42 528 42 q 224 71 292 42 q 308 -103 250 -56 q 498 -151 366 -151 l 741 -151 l 741 -268 m 238 186 q 377 142 305 142 q 548 217 481 142 q 615 406 615 292 q 567 591 615 529 q 425 652 519 652 q 266 533 317 652 q 238 300 238 469 l 238 186 z "},"ϲ":{"ha":837,"x_min":111,"x_max":748,"o":"m 748 24 q 510 -17 629 -17 q 215 83 319 -17 q 111 368 111 184 q 213 651 111 549 q 498 753 316 753 q 734 718 616 753 l 734 606 q 513 652 604 652 q 322 577 391 652 q 253 368 253 501 q 326 159 253 235 q 528 83 399 83 q 748 129 627 83 l 748 24 z "},"ϳ":{"ha":837,"x_min":100,"x_max":606,"o":"m 100 -249 l 100 -137 q 307 -184 205 -184 q 424 -141 393 -184 q 456 18 456 -98 l 456 636 l 155 636 l 155 736 l 589 736 l 589 45 q 522 -205 589 -126 q 309 -284 454 -284 q 100 -249 211 -284 m 439 903 l 439 1071 l 606 1071 l 606 903 l 439 903 z "},"Ё":{"ha":837,"x_min":146,"x_max":766,"o":"m 146 0 l 146 1004 l 734 1004 l 734 903 l 280 903 l 280 581 l 665 581 l 665 481 l 280 481 l 280 100 l 766 100 l 766 0 l 146 0 m 264 1088 l 264 1205 l 381 1205 l 381 1088 l 264 1088 m 532 1088 l 532 1205 l 649 1205 l 649 1088 l 532 1088 z "},"Ђ":{"ha":837,"x_min":8,"x_max":812,"o":"m 360 559 q 562 648 452 648 q 743 562 674 648 q 812 334 812 476 q 736 90 812 188 q 549 -8 661 -8 q 477 0 511 -8 l 477 98 q 527 92 497 92 q 634 149 598 92 q 670 319 670 205 q 634 472 670 416 q 536 528 598 528 q 360 430 433 528 l 360 0 l 226 0 l 226 903 l 8 903 l 8 1004 l 586 1004 l 586 903 l 360 903 l 360 559 z "},"Ѓ":{"ha":837,"x_min":168,"x_max":787,"o":"m 168 0 l 168 1004 l 787 1004 l 787 903 l 301 903 l 301 0 l 168 0 m 389 1088 l 539 1289 l 690 1289 l 506 1088 l 389 1088 z "},"Є":{"ha":837,"x_min":71,"x_max":779,"o":"m 779 14 q 541 -25 660 -25 q 196 116 321 -25 q 71 505 71 256 q 199 886 71 744 q 539 1029 326 1029 q 766 990 648 1029 l 766 880 q 538 928 633 928 q 321 836 405 928 q 219 573 237 743 l 602 573 l 602 473 l 219 473 q 313 192 219 304 q 545 79 406 79 q 779 137 661 79 l 779 14 z "},"Ѕ":{"ha":837,"x_min":111,"x_max":758,"o":"m 111 23 l 111 155 q 414 75 288 75 q 565 124 507 75 q 623 250 623 172 q 504 408 623 346 l 309 510 q 118 768 118 610 q 200 959 118 889 q 423 1029 281 1029 q 685 988 538 1029 l 685 872 q 426 928 538 928 q 289 893 334 928 q 243 789 243 859 q 377 627 243 696 l 559 533 q 758 271 758 430 q 661 55 758 136 q 400 -25 564 -25 q 111 23 290 -25 z "},"І":{"ha":837,"x_min":117,"x_max":720,"o":"m 117 0 l 117 100 l 351 100 l 351 903 l 117 903 l 117 1004 l 720 1004 l 720 903 l 486 903 l 486 100 l 720 100 l 720 0 l 117 0 z "},"Ї":{"ha":837,"x_min":117,"x_max":720,"o":"m 117 0 l 117 100 l 351 100 l 351 903 l 117 903 l 117 1004 l 720 1004 l 720 903 l 486 903 l 486 100 l 720 100 l 720 0 l 117 0 m 226 1088 l 226 1205 l 343 1205 l 343 1088 l 226 1088 m 494 1088 l 494 1205 l 611 1205 l 611 1088 l 494 1088 z "},"Ј":{"ha":837,"x_min":134,"x_max":631,"o":"m 134 7 l 134 121 l 178 106 q 327 75 271 75 q 460 125 422 75 q 498 300 498 175 l 498 903 l 197 903 l 197 1004 l 631 1004 l 631 371 q 616 174 631 239 q 556 61 600 110 q 336 -25 479 -25 q 134 7 258 -25 z "},"Љ":{"ha":837,"x_min":0,"x_max":820,"o":"m 0 0 l 0 100 l 15 100 q 96 135 79 100 q 114 296 114 169 l 115 465 l 115 643 l 115 1004 l 517 1004 l 517 586 l 526 586 l 554 586 q 749 513 677 586 q 820 316 820 441 q 738 85 820 171 q 517 0 656 0 l 391 0 l 391 903 l 240 903 l 240 712 l 239 475 q 225 149 239 227 q 162 35 212 70 q 0 0 113 0 m 517 100 l 524 100 q 652 148 610 100 q 695 289 695 195 q 653 436 695 387 q 526 486 610 486 l 517 486 l 517 100 z "},"Њ":{"ha":837,"x_min":75,"x_max":812,"o":"m 382 0 l 382 486 l 201 486 l 201 0 l 75 0 l 75 1004 l 201 1004 l 201 586 l 382 586 l 382 1004 l 508 1004 l 508 586 l 517 586 q 738 518 665 586 q 812 316 812 451 q 730 85 812 171 q 508 0 648 0 l 382 0 m 508 100 l 516 100 q 644 148 601 100 q 686 290 686 195 q 644 436 686 387 q 517 486 602 486 l 508 486 l 508 100 z "},"Ћ":{"ha":837,"x_min":4,"x_max":795,"o":"m 343 0 l 209 0 l 209 903 l 4 903 l 4 1004 l 548 1004 l 548 903 l 343 903 l 343 564 q 473 637 410 612 q 594 661 536 661 q 745 599 694 661 q 795 412 795 536 l 795 0 l 661 0 l 661 375 q 636 506 661 469 q 549 543 612 543 q 450 519 502 543 q 343 448 399 495 l 343 0 z "},"Ќ":{"ha":837,"x_min":139,"x_max":795,"o":"m 273 465 l 273 0 l 139 0 l 139 1004 l 273 1004 l 273 565 q 372 590 343 565 q 476 745 400 615 l 519 819 l 554 881 q 736 1004 626 1004 l 754 1004 l 754 903 l 749 903 q 691 884 712 903 q 633 798 669 864 q 607 749 626 783 l 587 713 q 436 525 505 567 q 550 455 509 500 q 652 284 591 409 l 687 214 q 725 135 694 199 q 795 0 762 58 l 644 0 l 633 21 l 589 110 l 532 227 q 355 465 445 404 l 273 465 m 340 1088 l 490 1289 l 641 1289 l 457 1088 l 340 1088 z "},"Ў":{"ha":837,"x_min":25,"x_max":837,"o":"m 330 319 l 25 1004 l 172 1004 l 410 467 l 703 1004 l 837 1004 l 425 250 q 275 45 337 90 q 77 0 212 0 l 68 0 l 68 117 l 79 117 q 209 144 170 117 q 301 269 248 170 l 330 319 m 184 1289 l 293 1289 q 322 1188 293 1221 q 410 1155 352 1155 q 498 1188 469 1155 q 528 1289 528 1221 l 636 1289 q 580 1138 636 1188 q 410 1088 524 1088 q 241 1138 298 1088 q 184 1289 184 1188 z "},"Џ":{"ha":837,"x_min":100,"x_max":736,"o":"m 100 0 l 100 1004 l 235 1004 l 235 100 l 603 100 l 603 1004 l 736 1004 l 736 0 l 486 0 l 486 -201 l 352 -201 l 352 0 l 100 0 z "},"А":{"ha":837,"x_min":8,"x_max":828,"o":"m 8 0 l 351 1004 l 485 1004 l 828 0 l 686 0 l 589 284 l 220 284 l 123 0 l 8 0 m 254 385 l 555 385 l 405 825 l 254 385 z "},"Б":{"ha":837,"x_min":142,"x_max":758,"o":"m 142 0 l 142 1004 l 707 1004 l 707 903 l 276 903 l 276 573 l 366 573 q 642 522 562 573 q 758 306 758 449 q 627 56 758 138 q 329 0 537 0 l 142 0 m 276 100 l 339 100 q 550 146 485 100 q 615 296 615 193 q 555 432 615 391 q 359 473 496 473 l 276 473 l 276 100 z "},"В":{"ha":837,"x_min":125,"x_max":754,"o":"m 125 0 l 125 1004 l 406 1004 q 637 949 564 1004 q 711 779 711 895 q 662 631 711 695 q 512 522 612 566 q 693 421 633 489 q 754 252 754 353 q 661 58 754 130 q 561 12 617 24 q 388 0 505 0 l 125 0 m 259 561 l 306 561 q 508 608 441 561 q 576 749 576 654 q 517 867 576 831 q 321 903 458 903 l 259 903 l 259 561 m 259 100 l 380 100 q 559 137 507 100 q 612 262 612 174 q 529 418 612 359 q 308 477 446 477 l 259 477 l 259 100 z "},"Г":{"ha":837,"x_min":168,"x_max":787,"o":"m 168 0 l 168 1004 l 787 1004 l 787 903 l 301 903 l 301 0 l 168 0 z "},"Д":{"ha":837,"x_min":19,"x_max":800,"o":"m 19 -201 l 19 100 l 86 100 q 198 449 167 273 q 229 911 229 625 l 229 1004 l 699 1004 l 699 100 l 800 100 l 800 -201 l 665 -201 l 665 0 l 153 0 l 153 -201 l 19 -201 m 565 100 l 565 903 l 353 903 l 353 883 q 324 456 353 637 q 226 100 294 274 l 565 100 z "},"Е":{"ha":837,"x_min":146,"x_max":766,"o":"m 146 0 l 146 1004 l 734 1004 l 734 903 l 280 903 l 280 581 l 665 581 l 665 481 l 280 481 l 280 100 l 766 100 l 766 0 l 146 0 z "},"Ж":{"ha":837,"x_min":4,"x_max":833,"o":"m 360 0 l 360 473 l 342 473 l 323 433 q 182 100 255 296 q 142 0 158 36 l 4 0 l 20 34 q 94 207 60 125 l 125 283 q 160 369 146 334 q 213 468 188 438 q 294 525 239 498 q 225 571 244 550 q 180 652 206 593 l 158 705 l 135 760 q 75 879 96 855 q 13 903 54 903 l 13 1004 l 28 1004 q 150 963 107 1004 q 240 802 192 922 l 258 755 l 281 696 q 327 587 314 609 q 360 562 340 565 l 360 1004 l 477 1004 l 477 562 q 510 586 497 565 q 556 696 522 608 l 578 755 l 597 802 q 687 964 645 923 q 808 1004 730 1004 l 824 1004 l 824 903 q 762 879 783 903 q 701 760 741 855 l 678 705 l 656 652 q 612 572 631 593 q 543 525 593 550 q 624 468 598 498 q 677 369 649 438 q 712 283 691 334 l 743 207 q 817 34 777 125 l 833 0 l 694 0 q 654 100 679 35 q 514 433 584 292 l 494 473 l 477 473 l 477 0 l 360 0 z "},"З":{"ha":837,"x_min":71,"x_max":720,"o":"m 71 17 l 71 142 q 218 92 149 109 q 346 75 287 75 q 514 129 450 75 q 578 271 578 183 q 495 433 578 378 q 253 488 412 488 l 232 488 l 232 580 l 251 580 q 474 632 393 580 q 554 776 554 684 q 500 890 554 852 q 338 928 446 928 q 221 914 283 928 q 87 871 158 900 l 87 987 q 217 1018 153 1008 q 345 1029 281 1029 q 600 966 509 1029 q 690 788 690 903 q 635 638 690 699 q 472 545 581 577 q 654 457 589 526 q 720 286 720 389 q 612 64 720 153 q 347 -25 505 -25 q 207 -15 275 -25 q 71 17 138 -4 z "},"И":{"ha":837,"x_min":100,"x_max":736,"o":"m 100 0 l 100 1004 l 234 1004 l 234 233 l 602 1004 l 736 1004 l 736 0 l 602 0 l 602 771 l 234 0 l 100 0 z "},"Й":{"ha":837,"x_min":100,"x_max":736,"o":"m 100 0 l 100 1004 l 234 1004 l 234 233 l 602 1004 l 736 1004 l 736 0 l 602 0 l 602 771 l 234 0 l 100 0 m 193 1289 l 301 1289 q 331 1188 301 1221 q 418 1155 360 1155 q 507 1188 477 1155 q 536 1289 536 1221 l 644 1289 q 588 1138 644 1188 q 418 1088 532 1088 q 249 1138 306 1088 q 193 1289 193 1188 z "},"К":{"ha":837,"x_min":139,"x_max":795,"o":"m 273 465 l 273 0 l 139 0 l 139 1004 l 273 1004 l 273 565 q 372 590 343 565 q 476 745 400 615 l 519 819 l 554 881 q 736 1004 626 1004 l 754 1004 l 754 903 l 749 903 q 691 884 712 903 q 633 798 669 864 q 607 749 626 783 l 587 713 q 436 525 505 567 q 550 455 509 500 q 652 284 591 409 l 687 214 q 725 135 694 199 q 795 0 762 58 l 644 0 l 633 21 l 589 110 l 532 227 q 355 465 445 404 l 273 465 z "},"Л":{"ha":837,"x_min":17,"x_max":743,"o":"m 17 0 l 17 100 q 129 143 85 105 q 190 253 172 182 q 217 496 208 324 q 226 940 226 668 l 226 1004 l 743 1004 l 743 0 l 608 0 l 608 903 l 351 903 l 351 877 q 336 417 351 594 q 292 171 321 241 q 187 43 256 85 q 17 0 118 0 z "},"М":{"ha":837,"x_min":64,"x_max":772,"o":"m 64 0 l 64 1004 l 224 1004 l 416 431 l 605 1004 l 772 1004 l 772 0 l 663 0 l 663 885 l 466 268 l 353 268 l 157 869 l 157 0 l 64 0 z "},"Н":{"ha":837,"x_min":100,"x_max":736,"o":"m 100 0 l 100 1004 l 234 1004 l 234 577 l 602 577 l 602 1004 l 736 1004 l 736 0 l 602 0 l 602 477 l 234 477 l 234 0 l 100 0 z "},"О":{"ha":837,"x_min":42,"x_max":795,"o":"m 413 -25 q 142 118 243 -25 q 42 502 42 260 q 143 887 42 746 q 418 1029 244 1029 q 693 887 592 1029 q 795 505 795 746 q 693 116 795 256 q 413 -25 592 -25 m 415 75 q 593 183 534 75 q 653 505 653 290 q 594 823 653 717 q 418 928 536 928 q 243 822 301 928 q 184 503 184 715 q 242 182 184 289 q 415 75 300 75 z "},"П":{"ha":837,"x_min":100,"x_max":736,"o":"m 100 0 l 100 1004 l 736 1004 l 736 0 l 602 0 l 602 903 l 234 903 l 234 0 l 100 0 z "},"Р":{"ha":837,"x_min":155,"x_max":785,"o":"m 155 0 l 155 1004 l 437 1004 q 704 941 623 1004 q 785 734 785 878 q 679 490 785 578 q 386 401 573 401 l 288 401 l 288 0 l 155 0 m 288 502 l 372 502 q 574 560 507 502 q 642 735 642 618 q 587 861 642 819 q 421 903 532 903 l 288 903 l 288 502 z "},"С":{"ha":837,"x_min":69,"x_max":783,"o":"m 783 23 q 531 -25 650 -25 q 194 115 319 -25 q 69 494 69 256 q 193 884 69 739 q 524 1029 316 1029 q 772 990 640 1029 l 772 867 q 524 928 637 928 q 297 810 382 928 q 212 496 212 691 q 308 196 212 309 q 565 84 405 84 q 783 133 656 84 l 783 23 z "},"Т":{"ha":837,"x_min":17,"x_max":820,"o":"m 351 0 l 351 903 l 17 903 l 17 1004 l 820 1004 l 820 903 l 486 903 l 486 0 l 351 0 z "},"У":{"ha":837,"x_min":25,"x_max":837,"o":"m 330 319 l 25 1004 l 172 1004 l 410 467 l 703 1004 l 837 1004 l 425 250 q 275 45 337 90 q 77 0 212 0 l 68 0 l 68 117 l 79 117 q 209 144 170 117 q 301 269 248 170 l 330 319 z "},"Ф":{"ha":837,"x_min":21,"x_max":816,"o":"m 481 1004 l 481 870 q 728 766 641 862 q 816 502 816 669 q 728 239 816 335 q 481 134 641 142 l 481 0 l 355 0 l 355 134 q 109 239 196 142 q 21 502 21 335 q 109 766 21 669 q 355 870 196 862 l 355 1004 l 481 1004 m 355 770 q 205 698 255 765 q 155 502 155 631 q 205 306 155 373 q 355 235 255 239 l 355 770 m 481 770 l 481 235 q 632 306 581 239 q 682 502 682 373 q 632 698 682 631 q 481 770 581 765 z "},"Х":{"ha":837,"x_min":7,"x_max":827,"o":"m 7 0 l 346 513 l 37 1004 l 195 1004 l 431 629 l 679 1004 l 809 1004 l 494 528 l 827 0 l 668 0 l 410 411 l 138 0 l 7 0 z "},"Ц":{"ha":837,"x_min":81,"x_max":814,"o":"m 81 0 l 81 1004 l 216 1004 l 216 100 l 579 100 l 579 1004 l 713 1004 l 713 100 l 814 100 l 814 -201 l 680 -201 l 680 0 l 81 0 z "},"Ч":{"ha":837,"x_min":98,"x_max":701,"o":"m 566 0 l 566 404 q 452 359 512 374 q 327 344 392 344 q 155 406 212 344 q 98 593 98 468 l 98 1004 l 232 1004 l 232 629 q 258 494 232 529 q 361 460 284 460 q 461 475 410 460 q 566 520 512 490 l 566 1004 l 701 1004 l 701 0 l 566 0 z "},"Ш":{"ha":837,"x_min":50,"x_max":787,"o":"m 787 0 l 50 0 l 50 1004 l 172 1004 l 172 100 l 359 100 l 359 1004 l 477 1004 l 477 100 l 665 100 l 665 1004 l 787 1004 l 787 0 z "},"Щ":{"ha":837,"x_min":50,"x_max":837,"o":"m 50 0 l 50 1004 l 172 1004 l 172 100 l 359 100 l 359 1004 l 477 1004 l 477 100 l 665 100 l 665 1004 l 787 1004 l 787 100 l 837 100 l 837 -201 l 703 -201 l 703 0 l 50 0 z "},"Ъ":{"ha":837,"x_min":13,"x_max":812,"o":"m 239 0 l 239 903 l 13 903 l 13 1004 l 373 1004 l 373 573 l 420 573 q 697 522 616 573 q 812 306 812 449 q 681 56 812 138 q 383 0 592 0 l 239 0 m 373 100 l 394 100 q 605 146 539 100 q 670 296 670 193 q 610 432 670 391 q 413 473 550 473 l 373 473 l 373 100 z "},"Ы":{"ha":837,"x_min":67,"x_max":770,"o":"m 201 100 l 237 100 q 367 148 323 100 q 410 290 410 195 q 367 439 410 389 q 238 490 324 490 l 201 490 l 201 100 m 770 0 l 636 0 l 636 1004 l 770 1004 l 770 0 m 67 1004 l 201 1004 l 201 590 l 250 590 l 278 590 q 472 515 400 590 q 544 314 544 441 q 456 80 544 160 q 201 0 369 0 l 67 0 l 67 1004 z "},"Ь":{"ha":837,"x_min":155,"x_max":795,"o":"m 155 0 l 155 1004 l 288 1004 l 288 573 l 403 573 q 680 522 599 573 q 795 306 795 449 q 664 56 795 138 q 366 0 574 0 l 155 0 m 288 100 l 376 100 q 587 146 522 100 q 652 296 652 193 q 593 432 652 391 q 396 473 533 473 l 288 473 l 288 100 z "},"Э":{"ha":837,"x_min":58,"x_max":766,"o":"m 58 14 l 58 137 q 175 94 117 108 q 291 79 233 79 q 525 192 431 79 q 618 475 618 305 l 234 475 l 234 575 l 618 575 q 515 836 600 743 q 298 928 431 928 q 194 916 250 928 q 71 880 137 904 l 71 990 q 189 1019 130 1009 q 307 1029 248 1029 q 646 897 526 1029 q 766 524 766 765 q 640 121 766 267 q 293 -25 514 -25 q 176 -15 235 -25 q 58 14 117 -5 z "},"Ю":{"ha":837,"x_min":50,"x_max":812,"o":"m 269 477 l 176 477 l 176 0 l 50 0 l 50 1004 l 176 1004 l 176 577 l 270 577 q 356 916 288 803 q 540 1029 423 1029 q 741 892 670 1029 q 812 502 812 755 q 741 112 812 249 q 540 -25 670 -25 q 341 110 414 -25 q 269 477 269 245 m 402 509 q 438 189 402 303 q 540 75 475 75 q 641 189 604 75 q 677 502 677 302 q 641 815 677 702 q 540 928 604 928 q 439 816 476 928 q 402 509 402 704 z "},"Я":{"ha":837,"x_min":8,"x_max":719,"o":"m 585 427 l 490 427 q 384 299 441 378 q 260 110 327 220 q 210 28 241 79 l 193 0 l 8 0 q 120 153 66 67 l 149 198 l 168 226 l 208 287 q 285 388 246 346 q 362 453 323 429 q 194 551 259 475 q 129 726 129 627 q 225 941 129 857 q 495 1004 298 1004 l 719 1004 l 719 0 l 585 0 l 585 427 m 585 903 l 496 903 q 328 859 384 903 q 271 725 271 814 q 336 576 271 626 q 532 527 401 527 l 585 527 l 585 903 z "},"а":{"ha":837,"x_min":92,"x_max":802,"o":"m 566 89 q 324 -13 445 -13 q 158 45 223 -13 q 92 191 92 102 q 194 375 92 305 q 463 445 296 445 l 545 445 l 545 508 q 508 616 545 580 q 397 652 471 652 q 156 587 280 652 l 156 702 q 425 753 298 753 q 622 697 564 753 q 680 505 680 641 l 680 197 q 694 106 680 130 q 747 82 708 82 q 789 89 760 82 l 802 9 q 699 -13 734 -13 q 616 13 650 -13 q 566 89 583 38 m 545 176 l 545 361 l 505 361 q 299 324 368 361 q 231 213 231 287 q 263 124 231 153 q 359 94 295 94 q 545 176 447 94 z "},"б":{"ha":837,"x_min":83,"x_max":766,"o":"m 217 574 q 336 696 269 655 q 486 736 403 736 q 689 637 612 736 q 766 374 766 537 q 671 91 766 199 q 422 -17 576 -17 q 168 107 252 -17 q 83 478 83 231 q 177 930 83 789 q 479 1071 271 1071 l 507 1071 q 686 1107 607 1071 l 686 999 q 523 970 623 970 l 507 970 q 296 885 359 970 q 217 574 233 799 m 218 481 l 218 458 q 271 177 218 271 q 429 83 323 83 q 571 160 519 83 q 624 366 624 237 q 580 553 624 490 q 450 615 536 615 q 330 582 388 615 q 218 481 273 548 z "},"в":{"ha":837,"x_min":127,"x_max":730,"o":"m 127 0 l 127 736 l 450 736 q 642 697 583 736 q 701 569 701 658 q 662 456 701 503 q 545 385 623 410 q 684 311 637 359 q 730 189 730 262 q 667 47 730 94 q 477 0 604 0 l 127 0 m 261 100 l 382 100 q 548 120 505 100 q 590 197 590 140 q 540 301 590 267 q 391 336 490 336 l 261 336 l 261 100 m 261 425 l 395 425 q 516 457 469 425 q 564 543 564 490 q 523 613 564 589 q 402 636 483 636 l 261 636 l 261 425 z "},"г":{"ha":837,"x_min":168,"x_max":770,"o":"m 168 0 l 168 736 l 770 736 l 770 627 l 301 627 l 301 0 l 168 0 z "},"д":{"ha":837,"x_min":35,"x_max":801,"o":"m 35 -168 l 35 100 l 102 100 q 211 353 174 209 q 247 678 247 498 l 247 736 l 675 736 l 675 100 l 801 100 l 801 -168 l 675 -168 l 675 0 l 161 0 l 161 -168 l 35 -168 m 541 100 l 541 636 l 369 636 l 369 620 q 338 346 369 476 q 245 100 307 216 l 541 100 z "},"е":{"ha":837,"x_min":96,"x_max":745,"o":"m 745 29 q 489 -17 606 -17 q 198 81 300 -17 q 96 360 96 179 q 194 642 96 532 q 443 753 292 753 q 668 661 595 753 q 740 376 740 570 l 740 334 l 238 334 q 313 146 245 208 q 508 83 380 83 q 745 135 616 83 l 745 29 m 242 434 l 597 434 l 597 453 q 556 603 597 553 q 431 652 514 652 q 301 595 351 652 q 242 434 252 537 z "},"ж":{"ha":837,"x_min":18,"x_max":819,"o":"m 360 0 l 360 330 l 328 330 q 283 245 307 289 q 238 161 244 174 l 196 78 q 165 18 193 71 l 155 0 l 18 0 q 73 98 41 37 l 104 156 l 139 223 l 166 275 q 214 339 187 315 q 274 373 241 363 q 216 414 233 393 q 174 492 199 434 l 162 522 q 149 555 157 534 q 115 616 132 595 q 78 636 97 636 l 71 636 l 71 736 l 79 736 q 174 706 140 736 q 245 585 208 675 l 260 547 l 275 508 l 294 467 q 355 406 319 406 l 360 406 l 360 736 l 477 736 l 477 406 l 484 406 q 543 467 518 406 l 562 508 l 578 547 l 593 585 q 664 706 631 675 q 758 736 696 736 l 766 736 l 766 636 l 759 636 q 723 616 740 636 q 689 555 705 595 q 675 522 682 536 l 663 492 q 622 414 639 434 q 563 373 604 393 q 623 339 595 363 q 671 275 650 315 l 698 223 l 733 156 q 764 98 749 127 q 819 0 795 39 l 682 0 l 672 18 q 641 78 645 71 l 600 161 q 554 245 595 170 q 509 330 532 286 l 477 330 l 477 0 l 360 0 z "},"з":{"ha":837,"x_min":110,"x_max":718,"o":"m 245 349 l 245 437 l 294 437 l 384 439 q 515 465 471 439 q 559 542 559 490 q 507 624 559 596 q 350 651 454 651 q 236 642 292 651 q 123 614 179 632 l 123 722 q 242 745 179 737 q 374 753 305 753 q 615 707 535 753 q 696 570 696 661 q 662 475 696 519 q 561 395 628 431 q 679 326 640 370 q 718 216 718 281 q 629 47 718 111 q 389 -17 539 -17 q 253 -5 323 -17 q 110 30 183 6 l 110 154 q 254 103 188 120 q 376 87 321 87 q 528 118 477 87 q 578 212 578 149 q 516 319 578 290 q 289 349 453 349 l 245 349 z "},"и":{"ha":837,"x_min":117,"x_max":720,"o":"m 117 0 l 117 736 l 243 736 l 243 179 l 586 736 l 720 736 l 720 0 l 594 0 l 594 557 l 252 0 l 117 0 z "},"й":{"ha":837,"x_min":117,"x_max":720,"o":"m 117 0 l 117 736 l 243 736 l 243 179 l 586 736 l 720 736 l 720 0 l 594 0 l 594 557 l 252 0 l 117 0 m 193 1071 l 301 1071 q 331 970 301 1004 q 418 937 360 937 q 507 970 477 937 q 536 1071 536 1004 l 644 1071 q 588 920 644 970 q 418 870 532 870 q 249 920 306 870 q 193 1071 193 970 z "},"к":{"ha":837,"x_min":166,"x_max":745,"o":"m 300 314 l 300 0 l 166 0 l 166 736 l 300 736 l 300 414 l 329 415 q 419 436 393 415 q 486 542 445 456 l 500 573 q 588 706 549 675 q 710 736 627 736 l 710 636 q 650 617 670 636 q 598 531 631 599 l 585 504 l 568 467 q 471 370 538 405 q 555 320 527 351 q 633 197 584 290 l 660 145 q 745 0 707 55 l 597 0 q 554 81 578 38 l 517 145 q 400 314 447 271 l 300 314 z "},"л":{"ha":837,"x_min":29,"x_max":703,"o":"m 29 0 l 29 100 q 110 134 77 103 q 160 223 142 165 q 197 415 184 304 q 209 664 209 525 l 209 736 l 703 736 l 703 0 l 569 0 l 569 636 l 338 636 l 338 623 q 320 351 338 468 q 265 155 302 234 q 170 39 229 77 q 29 0 111 0 z "},"м":{"ha":837,"x_min":81,"x_max":755,"o":"m 81 0 l 81 736 l 229 736 l 420 161 l 600 736 l 755 736 l 755 0 l 629 0 l 629 587 l 460 50 l 345 50 l 186 528 l 186 0 l 81 0 z "},"н":{"ha":837,"x_min":117,"x_max":720,"o":"m 117 0 l 117 736 l 251 736 l 251 437 l 586 437 l 586 736 l 720 736 l 720 0 l 586 0 l 586 337 l 251 337 l 251 0 l 117 0 z "},"о":{"ha":837,"x_min":71,"x_max":766,"o":"m 413 -17 q 163 87 256 -17 q 71 368 71 191 q 164 650 71 547 q 418 753 257 753 q 673 650 580 753 q 766 370 766 548 q 672 85 766 187 q 413 -17 579 -17 m 416 83 q 571 155 519 83 q 623 370 623 227 q 569 577 623 502 q 418 652 515 652 q 268 577 322 652 q 214 368 214 502 q 268 159 214 235 q 416 83 321 83 z "},"п":{"ha":837,"x_min":117,"x_max":720,"o":"m 117 0 l 117 736 l 720 736 l 720 0 l 585 0 l 585 636 l 251 636 l 251 0 l 117 0 z "},"р":{"ha":837,"x_min":121,"x_max":766,"o":"m 121 -268 l 121 736 l 255 736 l 247 598 l 255 598 q 363 714 303 675 q 496 753 424 753 q 693 656 621 753 q 766 393 766 559 q 680 96 766 210 q 456 -17 595 -17 q 347 8 397 -17 q 255 83 296 33 l 247 83 l 255 -17 l 255 -268 l 121 -268 m 255 184 q 347 109 301 134 q 438 83 393 83 q 575 161 526 83 q 623 378 623 239 q 585 574 623 509 q 469 639 546 639 q 358 604 412 639 q 255 498 304 568 l 255 184 z "},"с":{"ha":837,"x_min":111,"x_max":748,"o":"m 748 24 q 510 -17 629 -17 q 215 84 319 -17 q 111 368 111 184 q 213 651 111 549 q 498 753 316 753 q 734 718 616 753 l 734 606 q 513 652 604 652 q 322 577 391 652 q 253 368 253 501 q 326 159 253 235 q 528 83 399 83 q 748 129 627 83 l 748 24 z "},"т":{"ha":837,"x_min":50,"x_max":787,"o":"m 352 0 l 352 636 l 50 636 l 50 736 l 787 736 l 787 636 l 486 636 l 486 0 l 352 0 z "},"у":{"ha":837,"x_min":66,"x_max":807,"o":"m 104 -268 l 104 -168 l 159 -168 q 269 -143 235 -168 q 342 -38 304 -119 l 375 33 l 66 736 l 204 736 l 445 185 l 687 736 l 807 736 l 437 -94 q 333 -230 393 -191 q 161 -268 272 -268 l 104 -268 z "},"ф":{"ha":837,"x_min":42,"x_max":795,"o":"m 360 -268 l 360 42 q 240 -17 312 -17 q 95 85 147 -17 q 42 368 42 188 q 95 651 42 549 q 240 753 147 753 q 360 694 312 753 l 360 1071 l 477 1071 l 477 694 q 597 753 526 753 q 743 651 690 753 q 795 368 795 549 q 743 85 795 188 q 597 -17 690 -17 q 477 42 525 -17 l 477 -268 l 360 -268 m 360 141 l 360 600 q 267 656 313 656 q 188 589 213 656 q 163 373 163 521 q 190 154 163 222 q 273 86 216 86 q 360 141 317 86 m 477 141 q 564 86 520 86 q 648 154 621 86 q 674 373 674 222 q 649 589 674 521 q 570 656 624 656 q 477 600 524 656 l 477 141 z "},"х":{"ha":837,"x_min":63,"x_max":783,"o":"m 63 0 l 337 372 l 64 736 l 232 736 l 435 465 l 622 736 l 754 736 l 504 373 l 783 0 l 616 0 l 405 281 l 198 0 l 63 0 z "},"ц":{"ha":837,"x_min":109,"x_max":803,"o":"m 109 0 l 109 736 l 242 736 l 242 100 l 535 100 l 535 736 l 669 736 l 669 100 l 803 100 l 803 -168 l 677 -168 l 677 0 l 109 0 z "},"ч":{"ha":837,"x_min":92,"x_max":682,"o":"m 548 0 l 548 288 q 370 255 467 255 q 153 324 214 255 q 92 570 92 393 l 92 736 l 226 736 l 226 544 q 261 393 226 433 q 392 353 296 353 q 548 387 477 353 l 548 736 l 682 736 l 682 0 l 548 0 z "},"ш":{"ha":837,"x_min":50,"x_max":787,"o":"m 787 0 l 50 0 l 50 736 l 172 736 l 172 100 l 359 100 l 359 736 l 477 736 l 477 100 l 665 100 l 665 736 l 787 736 l 787 0 z "},"щ":{"ha":837,"x_min":50,"x_max":837,"o":"m 50 0 l 50 736 l 172 736 l 172 100 l 359 100 l 359 736 l 477 736 l 477 100 l 665 100 l 665 736 l 787 736 l 787 100 l 837 100 l 837 -201 l 711 -201 l 711 0 l 50 0 z "},"ъ":{"ha":837,"x_min":29,"x_max":758,"o":"m 230 0 l 230 636 l 29 636 l 29 736 l 363 736 l 363 439 l 436 439 q 677 386 597 439 q 758 225 758 332 q 672 56 758 113 q 416 0 587 0 l 230 0 m 363 100 l 425 100 q 568 131 520 100 q 615 222 615 161 q 575 314 615 289 q 428 339 535 339 l 363 339 l 363 100 z "},"ы":{"ha":837,"x_min":67,"x_max":770,"o":"m 67 0 l 67 736 l 193 736 l 193 456 l 245 456 q 473 400 397 456 q 549 234 549 345 q 465 55 549 111 q 195 0 382 0 l 67 0 m 193 100 l 239 100 q 370 133 326 100 q 414 233 414 166 q 374 327 414 298 q 239 355 333 355 l 193 355 l 193 100 m 640 0 l 640 736 l 770 736 l 770 0 l 640 0 z "},"ь":{"ha":837,"x_min":176,"x_max":736,"o":"m 176 0 l 176 736 l 309 736 l 309 439 l 376 439 q 655 391 573 439 q 736 225 736 342 q 651 53 736 106 q 376 0 566 0 l 176 0 m 309 100 l 376 100 q 545 129 495 100 q 594 224 594 157 q 549 315 594 291 q 376 339 503 339 l 309 339 l 309 100 z "},"э":{"ha":837,"x_min":100,"x_max":732,"o":"m 100 23 l 100 143 q 349 92 208 92 q 518 146 461 92 q 593 326 574 201 l 276 326 l 276 427 l 593 427 q 535 596 593 539 q 363 652 478 652 q 125 600 250 652 l 125 710 q 374 753 239 753 q 642 659 551 753 q 732 384 732 566 q 631 90 732 197 q 353 -17 530 -17 q 100 23 222 -17 z "},"ю":{"ha":837,"x_min":50,"x_max":828,"o":"m 294 318 l 176 318 l 176 0 l 50 0 l 50 736 l 176 736 l 176 418 l 295 418 q 372 669 306 585 q 561 753 439 753 q 759 652 689 753 q 828 368 828 552 q 759 83 828 184 q 561 -17 689 -17 q 373 67 440 -17 q 294 318 307 151 m 427 372 q 460 156 427 228 q 561 83 494 83 q 661 155 627 83 q 694 368 694 226 q 661 581 694 510 q 559 652 627 652 q 460 582 493 652 q 427 372 427 512 z "},"я":{"ha":837,"x_min":75,"x_max":692,"o":"m 559 297 l 416 297 q 317 161 368 250 l 274 87 q 226 0 245 37 l 75 0 q 161 144 115 58 l 179 177 l 210 233 q 304 334 249 302 q 178 405 220 357 q 136 528 136 454 q 249 709 136 654 q 461 736 307 736 l 692 736 l 692 0 l 559 0 l 559 297 m 559 636 l 437 636 q 318 607 357 636 q 278 520 278 578 q 320 428 278 458 q 445 397 361 397 l 559 397 l 559 636 z "},"ё":{"ha":837,"x_min":96,"x_max":745,"o":"m 745 29 q 489 -17 606 -17 q 198 81 300 -17 q 96 360 96 179 q 194 642 96 532 q 443 753 292 753 q 668 661 595 753 q 740 376 740 570 l 740 334 l 238 334 q 313 146 245 208 q 508 83 380 83 q 745 135 616 83 l 745 29 m 242 434 l 597 434 l 597 453 q 556 603 597 553 q 431 652 514 652 q 301 595 351 652 q 242 434 252 537 m 269 870 l 269 987 l 386 987 l 386 870 l 269 870 m 536 870 l 536 987 l 654 987 l 654 870 l 536 870 z "},"ђ":{"ha":837,"x_min":23,"x_max":718,"o":"m 123 0 l 123 778 l 23 778 l 23 862 l 123 862 l 123 1071 l 258 1071 l 258 862 l 510 862 l 510 778 l 258 778 l 258 481 q 367 597 304 558 q 509 636 429 636 q 665 574 613 636 q 718 387 718 511 l 718 0 l 718 -62 q 656 -222 718 -161 q 497 -284 595 -284 q 399 -271 451 -284 l 399 -165 q 484 -184 441 -184 q 559 -147 534 -184 q 584 -37 584 -110 l 584 350 q 557 473 584 437 q 467 509 531 509 q 365 473 417 509 q 258 364 312 437 l 258 0 l 123 0 z "},"ѓ":{"ha":837,"x_min":168,"x_max":770,"o":"m 168 0 l 168 736 l 770 736 l 770 627 l 301 627 l 301 0 l 168 0 m 376 870 l 526 1071 l 677 1071 l 493 870 l 376 870 z "},"є":{"ha":837,"x_min":104,"x_max":736,"o":"m 736 132 l 736 28 q 482 -17 612 -17 q 202 83 300 -17 q 104 371 104 183 q 202 656 104 559 q 490 753 300 753 q 728 724 610 753 l 728 615 q 490 652 588 652 q 315 598 376 652 q 245 435 254 544 l 561 435 l 561 334 l 245 334 q 317 146 254 209 q 500 83 381 83 q 736 132 625 83 z "},"ѕ":{"ha":837,"x_min":127,"x_max":715,"o":"m 127 30 l 127 151 q 395 83 282 83 q 530 116 476 83 q 583 199 583 149 q 551 258 583 231 q 456 304 519 284 l 313 351 q 188 426 229 378 q 146 543 146 474 q 222 698 146 643 q 436 753 298 753 q 676 721 538 753 l 676 612 q 437 652 544 652 q 315 628 355 652 q 274 555 274 604 q 299 505 274 527 q 374 465 323 482 l 543 406 q 672 327 629 376 q 715 212 715 279 q 629 45 715 107 q 397 -17 543 -17 q 127 30 271 -17 z "},"і":{"ha":837,"x_min":117,"x_max":536,"o":"m 385 0 l 385 636 l 117 636 l 117 736 l 519 736 l 519 0 l 385 0 m 368 903 l 368 1071 l 536 1071 l 536 903 l 368 903 z "},"ї":{"ha":837,"x_min":117,"x_max":636,"o":"m 385 0 l 385 636 l 117 636 l 117 736 l 519 736 l 519 0 l 385 0 m 251 870 l 251 987 l 368 987 l 368 870 l 251 870 m 519 870 l 519 987 l 636 987 l 636 870 l 519 870 z "},"ј":{"ha":837,"x_min":100,"x_max":606,"o":"m 100 -249 l 100 -137 q 307 -184 205 -184 q 424 -141 393 -184 q 456 18 456 -98 l 456 636 l 155 636 l 155 736 l 589 736 l 589 45 q 522 -205 589 -126 q 309 -284 454 -284 q 100 -249 211 -284 m 439 903 l 439 1071 l 606 1071 l 606 903 l 439 903 z "},"љ":{"ha":837,"x_min":8,"x_max":820,"o":"m 393 0 l 393 636 l 272 636 l 272 623 q 269 557 272 610 l 260 357 q 239 199 256 266 q 192 91 222 133 q 116 26 162 49 q 8 0 71 3 l 8 117 q 67 142 42 121 q 107 201 92 163 q 131 298 123 239 q 138 438 138 357 l 143 577 l 146 664 l 146 736 l 519 736 l 519 437 l 558 437 q 754 385 689 437 q 820 227 820 332 q 750 53 820 106 q 521 0 681 0 l 393 0 m 519 100 l 552 100 q 653 129 619 100 q 686 216 686 158 q 653 307 686 277 q 552 337 619 337 l 519 337 l 519 100 z "},"њ":{"ha":837,"x_min":62,"x_max":821,"o":"m 393 337 l 188 337 l 188 0 l 62 0 l 62 736 l 188 736 l 188 437 l 393 437 l 393 736 l 519 736 l 519 437 l 558 437 q 755 385 689 437 q 821 227 821 332 q 751 53 821 106 q 522 0 681 0 l 393 0 l 393 337 m 519 100 l 553 100 q 653 129 619 100 q 686 216 686 158 q 653 307 686 277 q 553 337 619 337 l 519 337 l 519 100 z "},"ћ":{"ha":837,"x_min":23,"x_max":718,"o":"m 123 0 l 123 778 l 23 778 l 23 862 l 123 862 l 123 1071 l 258 1071 l 258 862 l 510 862 l 510 778 l 258 778 l 258 779 l 258 481 q 367 597 304 558 q 509 636 429 636 q 665 574 613 636 q 718 387 718 511 l 718 0 l 584 0 l 584 350 q 557 473 584 437 q 467 509 531 509 q 365 473 417 509 q 258 364 312 437 l 258 0 l 123 0 z "},"ќ":{"ha":837,"x_min":166,"x_max":745,"o":"m 300 314 l 300 0 l 166 0 l 166 736 l 300 736 l 300 414 l 329 415 q 419 436 393 415 q 486 542 445 456 l 500 573 q 588 706 549 675 q 710 736 627 736 l 710 636 q 650 617 670 636 q 598 531 631 599 l 585 504 l 568 467 q 471 370 538 405 q 555 320 527 351 q 633 197 584 290 l 660 145 q 745 0 707 55 l 597 0 q 554 81 578 38 l 517 145 q 400 314 447 271 l 300 314 m 350 870 l 500 1071 l 651 1071 l 467 870 l 350 870 z "},"ў":{"ha":837,"x_min":66,"x_max":807,"o":"m 104 -268 l 104 -168 l 159 -168 q 269 -143 235 -168 q 342 -38 304 -119 l 375 33 l 66 736 l 204 736 l 445 185 l 687 736 l 807 736 l 437 -94 q 333 -230 393 -191 q 161 -268 272 -268 l 104 -268 m 219 1071 l 328 1071 q 357 970 328 1004 q 445 937 387 937 q 533 970 504 937 q 562 1071 562 1004 l 671 1071 q 614 920 671 970 q 445 870 558 870 q 276 920 332 870 q 219 1071 219 970 z "},"џ":{"ha":837,"x_min":117,"x_max":720,"o":"m 117 0 l 117 736 l 251 736 l 251 100 l 586 100 l 586 736 l 720 736 l 720 0 l 481 0 l 481 -168 l 356 -168 l 356 0 l 117 0 z "},"Ѡ":{"ha":837,"x_min":20,"x_max":818,"o":"m 77 1004 l 209 1004 q 168 786 181 899 q 154 553 154 673 q 175 214 154 327 q 237 100 195 100 q 304 179 274 100 q 357 414 334 257 q 325 635 325 533 q 360 887 325 726 l 477 887 q 513 635 513 726 q 481 414 513 533 q 533 179 503 257 q 600 100 563 100 q 663 213 642 100 q 684 553 684 326 q 670 786 684 673 q 629 1004 656 899 l 760 1004 q 803 753 789 878 q 818 502 818 627 q 767 106 818 238 q 614 -25 715 -25 q 495 48 544 -25 q 418 269 446 122 q 342 48 391 122 q 224 -25 294 -25 q 71 106 121 -25 q 20 502 20 238 q 34 751 20 626 q 77 1004 48 877 z "},"ѡ":{"ha":837,"x_min":46,"x_max":799,"o":"m 283 0 l 174 0 q 78 270 110 142 q 46 512 46 397 q 67 736 46 608 l 189 736 q 168 520 168 620 q 184 319 168 398 q 249 123 200 240 q 352 304 293 193 l 375 347 q 355 562 355 456 q 370 736 355 627 l 494 736 q 477 564 477 638 q 502 324 477 435 q 578 120 528 213 q 653 316 628 217 q 678 517 678 416 q 644 736 678 640 l 777 736 q 799 547 799 648 q 754 270 799 406 q 621 0 710 133 l 521 0 q 412 226 454 92 q 283 0 359 121 z "},"Ѣ":{"ha":837,"x_min":13,"x_max":812,"o":"m 373 573 l 420 573 q 697 522 616 573 q 812 306 812 449 q 681 56 812 138 q 383 0 592 0 l 239 0 l 239 736 l 13 736 l 13 837 l 239 837 l 239 1004 l 373 1004 l 373 837 l 599 837 l 599 736 l 373 736 l 373 573 m 373 100 l 394 100 q 605 146 539 100 q 670 296 670 193 q 610 432 670 391 q 413 473 550 473 l 373 473 l 373 100 z "},"ѣ":{"ha":837,"x_min":46,"x_max":758,"o":"m 363 439 l 436 439 q 677 386 597 439 q 758 225 758 332 q 672 56 758 113 q 416 0 587 0 l 230 0 l 230 652 l 46 652 l 46 736 l 230 736 l 230 1071 l 364 1071 l 364 736 l 581 736 l 581 652 l 364 652 l 363 439 m 363 100 l 425 100 q 568 131 520 100 q 615 222 615 161 q 575 314 615 289 q 428 339 535 339 l 363 339 l 363 100 z "},"Ѥ":{"ha":837,"x_min":21,"x_max":828,"o":"m 222 572 q 338 920 242 813 q 631 1027 434 1027 q 814 1002 722 1027 l 814 891 q 647 926 718 926 q 438 838 508 926 q 369 572 369 749 l 755 572 l 755 472 l 369 472 l 372 432 q 445 162 381 248 q 633 77 508 77 q 828 122 733 77 l 828 9 q 625 -28 711 -28 q 335 92 432 -28 q 222 472 239 212 l 146 472 l 146 0 l 21 0 l 21 1004 l 146 1004 l 146 572 l 222 572 z "},"ѥ":{"ha":837,"x_min":38,"x_max":814,"o":"m 262 435 q 376 674 285 594 q 627 753 467 753 q 806 731 715 753 l 806 622 q 615 652 709 652 q 464 595 522 652 q 399 435 407 537 l 764 435 l 764 334 l 399 334 q 469 146 408 209 q 644 83 530 83 q 814 125 721 83 l 814 21 q 615 -17 722 -17 q 366 71 454 -17 q 260 334 277 159 l 163 334 l 163 0 l 38 0 l 38 736 l 163 736 l 163 435 l 262 435 z "},"Ѧ":{"ha":837,"x_min":10,"x_max":827,"o":"m 827 0 l 686 0 q 620 282 676 151 l 469 282 l 469 0 l 338 0 l 338 282 l 194 282 q 131 0 131 111 l 10 0 q 113 380 30 189 q 144 454 136 434 l 157 485 l 186 553 l 248 692 q 350 1004 340 905 l 486 1004 q 646 572 505 880 q 677 500 669 520 l 695 457 l 729 374 q 827 0 815 167 m 230 382 l 579 382 q 510 549 554 439 l 460 675 q 422 771 439 726 l 403 819 q 340 657 373 736 q 290 535 296 551 l 245 418 q 230 382 243 414 z "},"ѧ":{"ha":837,"x_min":71,"x_max":765,"o":"m 765 0 l 632 0 q 603 127 632 60 l 582 176 q 576 193 581 178 l 471 193 l 471 0 l 346 0 l 346 193 l 241 193 q 193 0 199 96 l 71 0 q 158 277 87 138 q 185 332 178 317 l 197 354 l 221 404 l 273 505 q 360 736 353 664 l 475 736 q 611 418 489 648 q 638 365 631 379 l 653 334 l 682 273 q 765 0 756 120 m 281 284 l 532 284 q 406 557 442 458 q 365 463 389 513 l 327 382 l 296 315 q 281 284 292 307 z "},"Ѩ":{"ha":837,"x_min":33,"x_max":833,"o":"m 154 0 l 33 0 l 33 1004 l 154 1004 l 154 418 l 278 418 q 292 463 290 456 l 317 545 q 340 621 330 590 l 355 666 q 380 746 364 698 q 452 1004 438 927 l 578 1004 q 618 840 589 941 l 659 698 l 701 553 l 728 456 l 743 403 l 766 323 q 833 0 833 95 l 700 0 q 640 322 700 121 l 547 322 l 547 0 l 431 0 l 431 322 l 344 322 l 335 286 q 283 0 289 103 l 182 0 q 256 322 197 138 l 154 322 l 154 0 m 382 418 l 608 418 q 575 541 595 472 l 550 629 q 503 802 523 720 q 421 547 470 709 l 395 461 l 382 418 z "},"ѩ":{"ha":837,"x_min":42,"x_max":811,"o":"m 409 314 l 602 314 l 593 340 l 574 399 l 552 465 q 510 600 528 536 q 492 547 496 557 l 465 474 q 438 399 456 450 l 417 339 l 409 314 m 683 0 q 633 222 683 77 l 553 222 l 553 0 l 444 0 l 444 222 l 368 222 q 321 0 321 65 l 222 0 q 276 222 227 74 l 176 222 l 176 0 l 42 0 l 42 736 l 176 736 l 176 314 l 304 314 l 317 349 q 341 413 332 389 l 361 465 l 370 486 q 391 543 374 498 q 424 631 401 571 q 455 736 446 690 l 589 736 q 623 618 599 688 l 658 514 q 694 410 676 461 q 721 338 717 348 l 733 302 l 752 248 q 811 0 806 92 l 683 0 z "},"Ѫ":{"ha":837,"x_min":9,"x_max":828,"o":"m 42 903 l 42 1004 l 791 1004 l 791 903 l 490 601 q 613 542 572 592 q 704 340 654 492 l 725 276 q 828 0 787 85 l 696 0 q 659 102 679 44 l 630 189 l 608 253 l 591 304 q 494 536 534 477 l 477 536 l 477 0 l 360 0 l 360 536 l 343 536 q 245 304 304 477 l 229 253 l 207 189 l 178 102 q 142 0 158 44 l 9 0 q 113 276 50 85 l 134 340 q 224 542 183 492 q 347 601 265 592 l 42 903 m 439 694 l 647 903 l 227 903 l 439 694 z "},"ѫ":{"ha":837,"x_min":12,"x_max":825,"o":"m 360 0 l 360 376 l 326 376 q 257 233 291 310 q 237 188 240 195 l 217 145 l 194 95 q 144 0 175 55 l 12 0 q 111 191 58 64 l 127 229 q 212 373 173 334 q 328 429 251 412 l 71 636 l 71 736 l 766 736 l 766 636 l 509 429 q 625 373 586 412 q 709 229 664 334 l 726 191 q 825 0 780 64 l 693 0 q 644 95 661 56 l 621 145 l 600 188 q 581 233 597 195 q 511 376 546 310 l 477 376 l 477 0 l 360 0 m 442 494 l 618 636 l 266 636 l 442 494 z "},"Ѭ":{"ha":837,"x_min":21,"x_max":822,"o":"m 142 0 l 21 0 l 21 1004 l 142 1004 l 142 623 l 401 623 l 193 903 l 193 1004 l 779 1004 l 779 903 l 569 606 q 673 554 641 593 q 724 416 705 515 l 743 325 l 753 276 q 822 0 788 102 l 680 0 q 662 87 671 28 q 640 222 654 144 l 631 269 l 621 323 q 569 531 591 487 l 548 531 l 548 0 l 431 0 l 431 531 l 410 531 q 341 275 371 433 l 332 229 l 320 159 q 284 0 300 52 l 170 0 q 222 203 192 68 q 239 276 231 242 l 250 319 q 327 531 285 471 l 142 531 l 142 0 m 505 671 l 667 903 l 331 903 l 505 671 z "},"ѭ":{"ha":837,"x_min":25,"x_max":824,"o":"m 312 372 l 146 372 l 146 0 l 25 0 l 25 736 l 146 736 l 146 439 l 381 439 l 209 632 l 209 736 l 768 736 l 768 636 l 583 426 q 698 372 665 412 q 759 222 732 333 l 769 180 q 824 0 791 91 l 689 0 q 665 113 680 39 l 654 176 l 650 199 q 584 372 627 326 l 552 372 l 552 0 l 435 0 l 435 372 l 420 372 q 354 199 376 325 l 350 176 l 338 113 q 315 0 324 38 l 191 0 l 198 26 q 223 127 212 78 l 235 180 l 245 222 q 312 372 273 334 m 503 475 l 646 636 l 358 636 l 503 475 z "},"Ѯ":{"ha":837,"x_min":70,"x_max":761,"o":"m 481 -171 l 481 -273 q 347 -284 401 -284 q 142 -229 215 -284 q 70 -71 70 -173 q 132 74 70 31 q 343 117 195 117 l 391 117 q 562 151 513 117 q 610 267 610 184 q 533 437 610 380 q 302 494 456 494 l 228 494 l 228 594 l 309 594 q 519 643 449 594 q 589 789 589 691 q 543 893 589 859 q 403 928 496 928 q 191 895 309 928 l 191 999 q 419 1029 337 1029 q 657 970 578 1029 q 737 795 737 912 q 682 647 737 707 q 516 555 627 587 q 700 464 638 528 q 761 298 761 400 q 663 79 761 159 q 391 0 565 0 l 333 0 q 208 -18 241 0 q 174 -84 174 -35 q 218 -159 174 -134 q 349 -184 261 -184 q 454 -175 387 -184 q 481 -171 463 -174 m 651 1238 l 450 1038 l 389 1038 l 255 1238 l 355 1238 l 435 1118 l 437 1118 l 556 1238 l 651 1238 z "},"ѯ":{"ha":837,"x_min":113,"x_max":723,"o":"m 559 -175 l 559 -275 q 428 -284 493 -284 q 184 -237 256 -284 q 113 -77 113 -190 q 179 68 113 20 q 378 117 245 117 l 431 117 q 546 142 508 117 q 585 215 585 166 q 528 316 585 290 q 313 343 471 343 l 238 343 l 238 444 l 329 444 q 509 470 449 444 q 570 551 570 497 q 526 626 570 601 q 394 650 481 650 q 205 631 304 650 l 205 736 q 414 753 311 753 q 632 708 559 753 q 705 574 705 663 q 671 471 705 516 q 572 393 638 425 q 685 320 647 366 q 723 213 723 275 q 650 53 723 106 q 433 0 578 0 l 373 0 q 247 -18 278 0 q 215 -87 215 -35 q 263 -160 215 -136 q 409 -184 312 -184 q 559 -175 480 -184 m 651 962 l 450 762 l 389 762 l 255 962 l 355 962 l 435 842 l 437 842 l 556 962 l 651 962 z "},"Ѱ":{"ha":837,"x_min":12,"x_max":825,"o":"m 439 0 l 306 0 l 306 268 q 154 324 202 268 q 83 523 105 380 l 12 1004 l 131 1004 l 198 555 q 234 405 215 437 q 306 372 254 372 l 306 1004 l 439 1004 l 439 364 q 513 390 494 364 q 548 508 532 416 l 560 578 l 567 625 q 649 942 607 880 q 825 1004 691 1004 l 825 903 q 749 881 772 903 q 716 791 727 858 l 705 724 l 694 663 l 684 600 q 672 529 681 585 q 605 323 646 370 q 439 268 563 276 l 439 0 z "},"ѱ":{"ha":837,"x_min":12,"x_max":825,"o":"m 435 -268 l 310 -268 l 310 0 q 155 55 203 0 q 84 256 106 111 l 12 736 l 131 736 l 198 287 q 235 136 216 168 q 310 104 254 104 l 310 870 l 435 870 l 435 96 q 513 121 493 96 q 548 241 532 146 l 560 311 l 568 357 q 650 674 608 612 q 825 736 692 736 l 825 636 q 749 613 772 636 q 716 524 727 590 l 705 456 l 695 395 l 684 332 q 672 261 681 315 q 604 54 646 101 q 435 0 562 7 l 435 -268 z "},"Ѳ":{"ha":837,"x_min":42,"x_max":795,"o":"m 42 509 q 144 888 42 747 q 418 1029 246 1029 q 694 887 593 1029 q 795 502 795 746 q 694 117 795 258 q 420 -25 593 -25 q 142 117 243 -25 q 42 509 42 260 m 651 558 q 583 836 641 743 q 418 928 524 928 q 255 844 308 928 q 185 557 201 759 q 293 585 236 585 q 404 564 345 585 l 455 545 q 553 522 517 522 q 651 558 602 522 m 186 445 q 254 168 196 260 q 418 75 312 75 q 580 168 522 75 q 652 446 638 260 q 543 418 601 418 q 433 439 493 418 l 382 458 q 283 481 319 481 q 186 445 235 481 z "}}}
